SplineFontDB: 1.0
FontName: FreeSerif
FullName: Nimbus Roman No9 L Regular
FamilyName: Nimbus
Weight: Regular
Copyright: Copyright (URW)++,Copyright 1999 by (URW)++ Design & Development
Version: 1.05
ItalicAngle: 0
UnderlinePosition: -100
UnderlineWidth: 50
Ascent: 800
Descent: 200
FSType: 0
Encoding: unicode
DisplaySize: -36
AntiAlias: 1
BeginPrivate: 8
UniqueID 7 5020931
BlueValues 23 [-20 0 450 470 662 682]
BlueScale 8 0.039625
StdHW 4 [30]
StdVW 4 [85]
StemSnapH 200 [30 38 43 53 60 73] 
systemdict /internaldict known
{1183615869 systemdict /internaldict get exec
/StemSnapLength 2 copy known { get 6 lt } { pop pop true } ifelse }
{ true } ifelse { pop [30 38] } if
StemSnapV 204 [78 85 91 103 109 115] 
systemdict /internaldict known
{1183615869 systemdict /internaldict get exec
/StemSnapLength 2 copy known { get 6 lt } { pop pop true } ifelse }
{ true } ifelse { pop [85 103] } if
ForceBold 5 false
EndPrivate
BeginChars: 65536 3174
StartChar: exclam
Encoding: 33 33
Width: 333
Flags: MW
HStem: -9 107<168 198> 656 20<166.5 200>
Fore
189 176 m 1
 176 176 l 1
 167 284 l 2
 165 309 159 362 150 422 c 0
 139 494 130 576 130 599 c 0
 130 646 150 676 183 676 c 0
 217 676 236 648 236 596 c 0
 236 582 235 571 234 559 c 1
 189 176 l 1
183 98 m 0
 213 98 237 73 237 43 c 0
 237 13 214 -9 182 -9 c 0
 152 -9 130 13 130 43 c 0
 130 74 153 98 183 98 c 0
EndSplineSet
EndChar
StartChar: quotedbl
Encoding: 34 34
Width: 408
Flags: MW
HStem: 431 245<109 130 109 109 278 299 278 278>
Fore
299 431 m 1
 278 431 l 1
 261 521 246 619 246 635 c 0
 246 658 265 676 289 676 c 0
 312 676 331 658 331 636 c 0
 331 607 322 547 306 471 c 1
 299 431 l 1
130 431 m 1
 109 431 l 1
 92 521 77 619 77 635 c 0
 77 658 96 676 120 676 c 0
 143 676 162 658 162 636 c 0
 162 607 153 547 137 471 c 1
 130 431 l 1
EndSplineSet
EndChar
StartChar: numbersign
Encoding: 35 35
Width: 500
Flags: MW
HStem: 0 20 216 55<5 112 179 304 371 471> 405 55<32 142 208 333 399 496> 642 20<181 239 239 239 371 429 429 429>
Fore
471 271 m 1
 471 216 l 1
 362 216 l 1
 331 0 l 1
 273 0 l 1
 304 216 l 1
 170 216 l 1
 137 0 l 1
 79 0 l 1
 112 216 l 1
 5 216 l 1
 5 271 l 1
 121 271 l 1
 142 405 l 1
 32 405 l 1
 32 460 l 1
 150 460 l 1
 181 662 l 1
 239 662 l 1
 208 460 l 1
 341 460 l 1
 371 662 l 1
 429 662 l 1
 399 460 l 1
 496 460 l 1
 496 405 l 1
 391 405 l 1
 371 271 l 1
 471 271 l 1
333 405 m 1
 200 405 l 1
 179 271 l 1
 313 271 l 1
 333 405 l 1
EndSplineSet
EndChar
StartChar: dollar
Encoding: 36 36
Width: 500
Flags: MW
VStem: 52 74<511 533.5> 230 34<-87 0 28 293 664 727> 378 79<146 177>
Fore
425 500 m 1
 410 500 l 1
 393 585 348 627 264 637 c 1
 264 391 l 1
 385 321 412 301 437 260 c 0
 449 240 457 204 457 170 c 0
 457 122 438 81 405 53 c 0
 369 24 338 12 264 0 c 1
 264 -87 l 1
 230 -87 l 1
 230 0 l 1
 146 3 104 14 44 51 c 1
 44 181 l 1
 59 181 l 1
 83 76 136 29 230 28 c 1
 230 310 l 1
 159 350 137 365 108 393 c 0
 68 430 52 465 52 512 c 0
 52 555 72 595 106 622 c 0
 139 648 167 657 230 664 c 1
 230 727 l 1
 264 727 l 1
 264 664 l 1
 348 654 391 639 425 611 c 1
 425 500 l 1
229 407 m 1
 229 637 l 1
 160 623 126 589 126 534 c 0
 126 488 146 463 229 407 c 1
264 293 m 1
 264 28 l 1
 342 43 378 80 378 146 c 0
 378 208 357 235 264 293 c 1
EndSplineSet
EndChar
StartChar: percent
Encoding: 37 37
Width: 833
Flags: W
HStem: -13 20 0 30<568 591.5> 289 34<178.5 200.5> 339 32<660.5 695> 583 25<427.5 464> 632 30<266.5 284.5> 656 20<595 634 634 634>
VStem: 61 76<381 405> 359 25<512.5 556> 449 76<90 120.5> 746 26<230.5 281>
Fore
669 371 m 0
 734 371 772 332 772 264 c 0
 772 186 739 105 686 51 c 0
 651 16 614 0 569 0 c 0
 497 0 449 51 449 129 c 0
 449 254 556 371 669 371 c 0
676 339 m 0
 645 339 617 321 590 281 c 0
 553 229 525 147 525 94 c 0
 525 56 550 30 586 30 c 0
 622 30 651 47 683 87 c 0
 721 134 746 202 746 259 c 0
 746 303 714 339 676 339 c 0
634 676 m 1
 249 -13 l 1
 201 -13 l 1
 552 613 l 1
 512 590 486 583 442 583 c 0
 413 583 395 586 377 593 c 1
 382 575 384 563 384 549 c 0
 384 476 352 397 300 344 c 0
 267 309 222 289 179 289 c 0
 114 289 61 346 61 416 c 0
 61 543 168 662 282 662 c 0
 313 662 326 657 352 635 c 0
 376 615 399 608 439 608 c 0
 501 608 541 625 595 676 c 1
 634 676 l 1
350 600 m 1
 321 608 309 613 295 626 c 0
 289 631 287 632 282 632 c 0
 251 632 213 598 184 544 c 0
 157 494 137 426 137 384 c 0
 137 348 161 323 196 323 c 0
 277 323 359 438 359 551 c 0
 359 565 356 580 350 600 c 1
EndSplineSet
EndChar
StartChar: ampersand
Encoding: 38 38
Width: 778
Flags: W
HStem: -13 52<228 253.5> -13 71<617 631> -13 52 644 32<335 381>
VStem: 42 92<141.5 181> 202 79<539.5 565> 438 53<538.5 583.5> 495 216<405 426>
Fore
711 426 m 1
 711 405 l 1
 661 399 641 387 617 346 c 2
 591 300 l 2
 560 246 535 209 491 150 c 1
 537 89 589 58 645 58 c 0
 681 58 703 71 735 111 c 1
 750 100 l 1
 720 29 663 -13 599 -13 c 0
 541 -13 492 13 429 78 c 1
 354 12 294 -13 213 -13 c 0
 107 -13 42 44 42 139 c 0
 42 223 93 294 199 355 c 2
 237 377 l 1
 210 452 202 484 202 522 c 0
 202 608 270 676 356 676 c 0
 435 676 491 626 491 555 c 0
 491 522 478 487 457 464 c 0
 429 433 404 416 336 384 c 1
 380 298 412 247 468 178 c 1
 532 263 559 317 559 360 c 0
 559 390 545 400 495 405 c 1
 495 426 l 1
 711 426 l 1
321 416 m 1
 403 460 438 503 438 559 c 0
 438 608 404 644 358 644 c 0
 312 644 281 610 281 562 c 0
 281 517 291 479 321 416 c 1
252 343 m 1
 165 287 134 244 134 180 c 0
 134 103 193 39 263 39 c 0
 305 39 345 57 404 104 c 1
 347 174 312 229 252 343 c 1
EndSplineSet
EndChar
StartChar: quotesingle
Encoding: 39 39
Width: 180
Flags: MW
HStem: 431 245<80 101 80 80>
Fore
101 431 m 1
 80 431 l 1
 63 521 48 619 48 635 c 0
 48 658 67 676 91 676 c 0
 114 676 133 658 133 636 c 0
 133 607 124 547 108 471 c 1
 101 431 l 1
EndSplineSet
EndChar
StartChar: parenleft
Encoding: 40 40
Width: 333
Flags: MW
HStem: 656 20<295 295>
VStem: 48 86<205 307.5>
Fore
295 676 m 1
 304 660 l 1
 232 602 202 566 174 504 c 0
 147 442 134 360 134 255 c 0
 134 155 145 79 169 12 c 0
 196 -63 224 -98 304 -161 c 1
 292 -177 l 1
 240 -145 214 -123 173 -75 c 0
 85 27 48 125 48 252 c 0
 48 369 83 469 154 556 c 0
 191 602 221 628 295 676 c 1
EndSplineSet
EndChar
StartChar: parenright
Encoding: 41 41
Width: 333
Flags: MW
HStem: 656 20<41 41>
VStem: 199 86<192 294>
Fore
38 -177 m 1
 29 -161 l 1
 101 -103 131 -67 159 -4 c 0
 186 57 199 140 199 244 c 0
 199 344 188 420 164 487 c 0
 136 562 109 597 29 660 c 1
 41 676 l 1
 93 644 119 622 160 574 c 0
 248 472 285 375 285 247 c 0
 285 130 250 30 179 -57 c 0
 142 -103 112 -129 38 -177 c 1
EndSplineSet
EndChar
StartChar: asterisk
Encoding: 42 42
Width: 500
Flags: MW
HStem: 656 20<241 261>
VStem: 241 19<449 456 486 499 499 510>
Fore
241 449 m 1
 241 456 l 1
 206 434 199 429 189 420 c 0
 181 413 176 408 147 375 c 0
 130 356 121 351 105 351 c 0
 83 351 69 364 69 386 c 0
 69 411 86 423 131 431 c 0
 177 440 193 446 234 471 c 1
 223 478 l 2
 204 491 174 501 137 508 c 0
 89 517 69 531 69 555 c 0
 69 575 84 591 103 591 c 0
 119 591 131 583 151 559 c 1
 184 523 203 507 241 486 c 1
 241 499 l 2
 241 526 236 557 226 590 c 0
 220 611 216 629 216 641 c 0
 216 661 231 676 251 676 c 0
 271 676 287 660 287 639 c 0
 287 628 283 612 277 593 c 0
 266 562 260 534 260 510 c 2
 260 484 l 1
 267 488 l 2
 289 500 314 522 339 552 c 0
 363 580 380 593 395 593 c 0
 416 593 431 577 431 554 c 0
 431 529 418 518 380 512 c 0
 336 505 317 498 268 470 c 1
 276 465 l 2
 302 449 334 437 373 431 c 0
 417 424 432 413 432 387 c 0
 432 365 418 350 397 350 c 0
 379 350 362 362 337 393 c 0
 310 426 289 444 267 453 c 2
 260 456 l 1
 260 449 l 2
 260 410 267 372 280 337 c 0
 285 324 288 311 288 305 c 0
 288 284 270 265 249 265 c 0
 230 265 214 282 214 302 c 0
 214 313 218 330 225 348 c 0
 238 382 244 411 242 432 c 1
 241 449 l 1
EndSplineSet
EndChar
StartChar: plus
Encoding: 43 43
Width: 564
Flags: MW
HStem: 0 20 220 66<30 249 315 534>
VStem: 249 66<0 220 286 506>
Fore
249 286 m 1
 249 506 l 1
 315 506 l 1
 315 286 l 1
 534 286 l 1
 534 220 l 1
 315 220 l 1
 315 0 l 1
 249 0 l 1
 249 220 l 1
 30 220 l 1
 30 286 l 1
 249 286 l 1
EndSplineSet
EndChar
StartChar: comma
Encoding: 44 44
Width: 250
Flags: W
HStem: -6 20 -2 104
VStem: 156 39<-17 -12>
Fore
83 -141 m 1
 74 -122 l 1
 128 -85 156 -48 156 -16 c 0
 156 -8 150 -2 142 -2 c 0
 141 -2 141 -2 134 -4 c 0
 128 -5 121 -6 115 -6 c 0
 79 -6 56 13 56 45 c 0
 56 79 80 102 115 102 c 0
 160 102 195 63 195 13 c 0
 195 -47 150 -108 83 -141 c 1
EndSplineSet
EndChar
StartChar: hyphen
Encoding: 45 45
Width: 333
Flags: MW
HStem: 194 63<39 285>
VStem: 39 246<194 257>
Fore
39 257 m 1
 285 257 l 1
 285 194 l 1
 39 194 l 1
 39 257 l 1
EndSplineSet
EndChar
StartChar: period
Encoding: 46 46
Width: 250
Flags: MW
HStem: -11 20
Fore
125 100 m 0
 155 100 181 74 181 43 c 0
 181 14 155 -11 124 -11 c 0
 95 -11 70 14 70 43 c 0
 70 74 95 100 125 100 c 0
EndSplineSet
EndChar
StartChar: slash
Encoding: 47 47
Width: 278
Flags: MW
HStem: -14 20 656 20<220 287 287 287>
Fore
287 676 m 1
 59 -14 l 1
 -9 -14 l 1
 220 676 l 1
 287 676 l 1
EndSplineSet
EndChar
StartChar: zero
Encoding: 48 48
Width: 500
Flags: MW
HStem: -14 26<221 275.5> 650 26<226.5 293>
VStem: 24 96<281.5 394.5> 380 96<269.5 432.5>
Fore
254 676 m 0
 385 676 476 535 476 330 c 0
 476 209 438 93 380 38 c 0
 344 3 301 -14 250 -14 c 0
 192 -14 141 10 104 54 c 0
 57 110 24 227 24 336 c 0
 24 453 62 568 120 624 c 0
 157 659 199 676 254 676 c 0
251 650 m 0
 165 650 120 539 120 327 c 0
 120 119 164 12 250 12 c 0
 336 12 380 119 380 328 c 0
 380 537 335 650 251 650 c 0
EndSplineSet
EndChar
StartChar: one
Encoding: 49 49
Width: 500
Flags: MW
HStem: 0 15 571 14 656 20<291 291>
VStem: 213 86<93 546 546 562>
Fore
291 676 m 1
 299 674 l 1
 299 74 l 2
 299 26 315 16 394 15 c 1
 394 0 l 1
 118 0 l 1
 118 15 l 1
 160 16 174 19 189 28 c 0
 205 37 213 60 213 93 c 2
 213 546 l 2
 213 578 204 593 183 593 c 0
 173 593 156 589 138 582 c 0
 134 580 123 576 111 571 c 1
 111 585 l 1
 291 676 l 1
EndSplineSet
EndChar
StartChar: two
Encoding: 50 50
Width: 500
Flags: MW
HStem: 0 76<128 367 367 389.5> 602 74<211.5 239>
VStem: 338 86<460 503>
Fore
475 137 m 1
 420 0 l 1
 30 0 l 1
 30 12 l 1
 208 201 l 2
 292 290 338 383 338 461 c 0
 338 545 281 602 197 602 c 0
 128 602 92 570 52 472 c 1
 31 477 l 1
 48 548 63 580 95 614 c 0
 132 654 184 676 239 676 c 0
 343 676 424 599 424 499 c 0
 424 421 385 345 296 252 c 2
 128 76 l 1
 367 76 l 2
 412 76 425 85 462 142 c 1
 475 137 l 1
EndSplineSet
EndChar
StartChar: three
Encoding: 51 51
Width: 500
Flags: W
HStem: -14 36 616 60<217 241.5>
VStem: 319 79<512 540.5> 360 72<185.5 205.5>
Fore
153 330 m 1
 153 343 l 1
 221 367 249 382 279 412 c 0
 304 437 319 473 319 509 c 0
 319 572 274 616 209 616 c 0
 146 616 101 583 60 510 c 1
 45 514 l 1
 67 574 82 600 112 627 c 0
 148 659 192 676 242 676 c 0
 334 676 398 620 398 539 c 0
 398 485 373 448 304 401 c 1
 348 382 367 370 387 348 c 0
 416 317 432 270 432 219 c 0
 432 152 406 94 359 53 c 0
 312 12 233 -14 156 -14 c 0
 86 -14 43 8 43 43 c 0
 43 64 58 78 81 78 c 0
 98 78 115 71 145 53 c 0
 182 29 202 22 229 22 c 0
 303 22 360 87 360 171 c 0
 360 240 321 297 259 319 c 0
 235 328 212 330 153 330 c 1
EndSplineSet
EndChar
StartChar: four
Encoding: 52 52
Width: 500
Flags: W
HStem: 0 20 167 64<52 292 370 472> 656 20<326 370 370 370>
VStem: 292 78<231 574 574 574> 293 77<0 167>
Fore
472 231 m 1
 472 167 l 1
 370 167 l 1
 370 0 l 1
 293 0 l 1
 293 167 l 1
 12 167 l 1
 12 231 l 1
 326 676 l 1
 370 676 l 1
 370 231 l 1
 472 231 l 1
292 231 m 1
 292 574 l 1
 52 231 l 1
 292 231 l 1
EndSplineSet
EndChar
StartChar: five
Encoding: 53 53
Width: 500
Flags: MW
HStem: -14 37 583 79<181 181 181 377>
VStem: 357 70<204 243.5>
Fore
181 583 m 1
 139 498 l 1
 257 477 314 454 358 410 c 0
 408 360 427 314 427 242 c 0
 427 166 406 109 360 64 c 1
 310 13 238 -14 154 -14 c 0
 79 -14 32 10 32 48 c 0
 32 73 46 85 75 85 c 0
 96 85 119 75 151 52 c 0
 181 30 198 23 218 23 c 0
 296 23 357 98 357 194 c 0
 357 293 304 355 189 392 c 0
 148 405 108 412 76 412 c 0
 68 412 64 415 64 420 c 0
 64 422 64 423 65 425 c 2
 174 662 l 1
 383 662 l 2
 404 662 414 667 429 688 c 1
 438 681 l 1
 400 592 l 2
 397 585 393 583 377 583 c 2
 181 583 l 1
EndSplineSet
EndChar
StartChar: six
Encoding: 54 54
Width: 500
Flags: MW
HStem: -14 28<227 304> 382 46<258 285>
VStem: 34 93<235.5 288.5> 378 90<150 247.5>
Fore
446 684 m 1
 448 668 l 1
 291 642 179 534 152 383 c 1
 215 421 236 428 280 428 c 0
 395 428 468 347 468 219 c 0
 468 81 382 -14 258 -14 c 0
 196 -14 142 10 104 54 c 0
 61 104 34 192 34 279 c 0
 34 413 93 527 201 604 c 0
 274 655 332 674 446 684 c 1
242 382 m 0
 207 382 176 373 155 357 c 0
 135 342 127 314 127 263 c 0
 127 108 181 14 269 14 c 0
 339 14 378 75 378 185 c 0
 378 310 328 382 242 382 c 0
EndSplineSet
EndChar
StartChar: seven
Encoding: 55 55
Width: 500
Flags: MW
HStem: -8 20 588 74<125.5 153 153 370>
Fore
449 662 m 1
 449 646 l 1
 237 -8 l 1
 172 -8 l 1
 370 588 l 1
 153 588 l 2
 98 588 80 575 37 507 c 1
 20 515 l 1
 79 662 l 1
 449 662 l 1
EndSplineSet
EndChar
StartChar: eight
Encoding: 56 56
Width: 500
Flags: W
HStem: -14 28<221 291.5> 648 28<212.5 278>
VStem: 56 76<115.5 185> 62 74<521 563.5> 355 69<506.5 569.5> 369 76<103.5 152>
Fore
290 371 m 1
 411 281 445 232 445 155 c 0
 445 52 368 -14 248 -14 c 0
 135 -14 56 54 56 151 c 0
 56 219 78 250 186 332 c 1
 81 424 62 453 62 518 c 0
 62 609 143 676 252 676 c 0
 352 676 424 616 424 534 c 0
 424 466 389 424 290 371 c 1
272 268 m 2
 212 312 l 1
 154 265 132 223 132 159 c 0
 132 72 183 14 259 14 c 0
 324 14 369 59 369 124 c 0
 369 180 345 216 272 268 c 2
261 389 m 1
 265 392 265 392 270 395 c 0
 327 433 355 478 355 535 c 0
 355 604 312 648 244 648 c 0
 181 648 136 607 136 549 c 0
 136 493 172 447 261 389 c 1
EndSplineSet
EndChar
StartChar: nine
Encoding: 57 57
Width: 500
Flags: MW
HStem: 237 43<208 237.5> 648 28<215.5 273.5>
VStem: 30 92<414.5 502.5>
Fore
59 -22 m 1
 56 -2 l 1
 208 24 319 131 360 294 c 1
 307 253 265 237 210 237 c 0
 102 237 30 318 30 440 c 0
 30 575 119 676 238 676 c 0
 367 676 459 559 459 394 c 0
 459 259 398 135 294 59 c 0
 226 10 171 -9 59 -22 c 1
362 355 m 2
 362 394 l 2
 362 562 317 648 230 648 c 0
 201 648 176 637 159 617 c 0
 138 591 122 531 122 474 c 0
 122 355 170 280 246 280 c 0
 282 280 319 293 347 317 c 0
 358 326 362 335 362 355 c 2
EndSplineSet
EndChar
StartChar: colon
Encoding: 58 58
Width: 278
Flags: MW
HStem: -11 111<121 150.5> 348 111<121 150.5>
Fore
136 459 m 0
 166 459 192 433 192 402 c 0
 192 373 166 348 135 348 c 0
 106 348 81 373 81 402 c 0
 81 433 106 459 136 459 c 0
136 100 m 0
 166 100 192 74 192 43 c 0
 192 14 166 -11 135 -11 c 0
 106 -11 81 14 81 43 c 0
 81 74 106 100 136 100 c 0
EndSplineSet
EndChar
StartChar: semicolon
Encoding: 59 59
Width: 278
Flags: W
HStem: -6 20 -2 104 348 111<121 150.5>
VStem: 81 111<387.5 417.5> 180 39<-17 -12>
Fore
107 -141 m 1
 98 -122 l 1
 152 -85 180 -48 180 -16 c 0
 180 -8 174 -2 166 -2 c 0
 165 -2 165 -2 158 -4 c 0
 152 -5 145 -6 139 -6 c 0
 102 -6 80 13 80 46 c 0
 80 80 104 102 139 102 c 0
 184 102 219 63 219 13 c 0
 219 -47 176 -107 107 -141 c 1
136 459 m 0
 166 459 192 433 192 402 c 0
 192 373 166 348 135 348 c 0
 106 348 81 373 81 402 c 0
 81 433 106 459 136 459 c 0
EndSplineSet
EndChar
StartChar: less
Encoding: 60 60
Width: 564
Flags: MW
HStem: -10 20
Fore
536 -10 m 1
 28 220 l 1
 28 286 l 1
 536 516 l 1
 536 444 l 1
 116 253 l 1
 536 62 l 1
 536 -10 l 1
EndSplineSet
EndChar
StartChar: equal
Encoding: 61 61
Width: 564
Flags: MW
HStem: 120 66<30 534> 320 66<30 534>
Fore
534 386 m 1
 534 320 l 1
 30 320 l 1
 30 386 l 1
 534 386 l 1
534 186 m 1
 534 120 l 1
 30 120 l 1
 30 186 l 1
 534 186 l 1
EndSplineSet
EndChar
StartChar: greater
Encoding: 62 62
Width: 564
Flags: MW
HStem: -10 20
Fore
28 -10 m 1
 28 62 l 1
 448 253 l 1
 28 444 l 1
 28 516 l 1
 536 286 l 1
 536 220 l 1
 28 -10 l 1
EndSplineSet
EndChar
StartChar: question
Encoding: 63 63
Width: 444
Flags: MW
HStem: -8 107<222 251.5> 449 20<100.5 128> 646 30<189.5 244>
VStem: 68 51 184 107<29 59> 322 92<503 540>
Fore
244 164 m 1
 227 164 l 1
 228 208 238 257 257 306 c 1
 285 370 l 2
 309 425 322 480 322 526 c 0
 322 593 274 646 214 646 c 0
 165 646 119 616 119 584 c 0
 119 576 124 567 136 553 c 0
 151 536 157 524 157 510 c 0
 157 486 140 469 116 469 c 0
 85 469 68 491 68 531 c 0
 68 614 138 676 230 676 c 0
 284 676 343 653 378 618 c 0
 401 595 414 559 414 521 c 0
 414 480 401 444 369 395 c 0
 355 374 355 374 309 318 c 0
 272 271 255 231 244 164 c 1
237 99 m 0
 266 99 291 74 291 44 c 0
 291 14 268 -8 236 -8 c 0
 206 -8 184 14 184 43 c 0
 184 75 207 99 237 99 c 0
EndSplineSet
EndChar
StartChar: at
Encoding: 64 64
Width: 921
Flags: W
HStem: -14 39<407 518> 143 33<627 673> 144 43 436 20<589 589> 645 31<445.5 560.5>
VStem: 116 84<236 369.5> 321 71<246 292.5> 769 40<323 447.5>
Fore
688 73 m 1
 700 43 l 1
 603 -1 553 -14 483 -14 c 0
 276 -14 116 134 116 326 c 0
 116 521 278 676 481 676 c 0
 666 676 809 548 809 383 c 0
 809 254 724 143 625 143 c 0
 577 143 540 172 534 216 c 1
 500 171 453 144 409 144 c 0
 360 144 321 193 321 256 c 0
 321 329 352 405 405 458 c 0
 439 492 474 508 517 508 c 0
 552 508 567 497 589 456 c 1
 599 494 l 1
 668 494 l 1
 603 240 l 1
 602 234 601 229 601 222 c 0
 601 191 614 176 640 176 c 0
 706 176 769 273 769 373 c 0
 769 522 639 645 482 645 c 0
 409 645 342 618 293 569 c 0
 236 510 200 416 200 323 c 0
 200 149 322 25 492 25 c 0
 559 25 610 38 688 73 c 1
531 464 m 0
 507 466 472 446 444 414 c 0
 410 376 392 326 392 272 c 0
 392 220 415 187 452 187 c 0
 479 187 508 209 527 245 c 0
 553 292 570 351 572 399 c 0
 574 438 559 462 531 464 c 0
EndSplineSet
EndChar
StartChar: A
Encoding: 65 65
Width: 722
Flags: MW
HStem: 0 20 216 41<216 447> 654 20<347 367 367 367>
Fore
706 19 m 1
 706 0 l 1
 451 0 l 1
 451 19 l 1
 504 20 521 28 521 53 c 0
 521 67 514 93 502 120 c 2
 461 216 l 1
 199 216 l 1
 153 99 l 2
 148 86 145 72 145 60 c 0
 145 32 165 19 213 19 c 1
 213 0 l 1
 15 0 l 1
 15 19 l 1
 63 21 75 37 139 183 c 1
 347 674 l 1
 367 674 l 1
 616 106 l 1
 651 32 661 22 706 19 c 1
216 257 m 1
 447 257 l 1
 331 532 l 1
 216 257 l 1
EndSplineSet
EndChar
StartChar: B
Encoding: 66 66
Width: 667
Flags: W
HStem: 0 19 0 37<253.5 311> 625 37<229.5 237 237 281> 643 19
VStem: 113 102<109 326 366 553 553 590> 457 102<471.5 532.5> 478 115<156 202>
Fore
17 662 m 1
 297 662 l 6
 470 662 559 604 559 492 c 0
 559 451 544 414 519 392 c 0
 495 371 474 361 422 348 c 1
 487 332 514 320 544 293 c 0
 575 264 593 224 593 180 c 0
 593 132 573 87 537 55 c 0
 500 21 429 0 351 0 c 2
 17 0 l 1
 17 19 l 1
 100 22 113 35 113 109 c 2
 113 553 l 2
 113 627 101 638 17 643 c 1
 17 662 l 1
215 326 m 1
 215 78 l 2
 215 46 229 37 278 37 c 0
 344 37 385 45 417 63 c 0
 457 86 478 125 478 179 c 0
 478 242 451 282 394 306 c 0
 358 321 312 326 215 326 c 1
215 366 m 1
 310 366 l 2
 404 366 457 410 457 488 c 0
 457 577 396 625 281 625 c 2
 237 625 l 2
 222 625 215 616 215 595 c 2
 215 366 l 1
EndSplineSet
EndChar
StartChar: C
Encoding: 67 67
Width: 667
Flags: MW
HStem: -14 44<360.5 416.5> 636 40<322 386.5>
VStem: 28 116<282.5 380>
Fore
620 450 m 1
 597 450 l 1
 578 515 563 543 531 575 c 0
 491 615 439 636 382 636 c 0
 237 636 144 519 144 338 c 0
 144 227 175 137 230 88 c 0
 273 50 329 30 392 30 c 0
 475 30 541 60 615 131 c 1
 633 113 l 1
 572 32 473 -14 360 -14 c 0
 261 -14 169 24 109 89 c 0
 58 146 28 232 28 325 c 0
 28 435 66 528 136 590 c 0
 198 645 281 676 363 676 c 0
 410 676 460 668 509 652 c 0
 524 646 539 643 548 643 c 0
 568 643 584 655 590 676 c 1
 611 676 l 1
 620 450 l 1
EndSplineSet
EndChar
StartChar: D
Encoding: 68 68
Width: 722
Flags: W
HStem: 0 19 0 37<238 300> 625 37<237.5 286 286 301> 643 19
VStem: 104 102<109 553 553 586> 576 109<285.5 379>
Fore
104 109 m 2
 104 553 l 2
 104 627 95 636 16 643 c 1
 16 662 l 1
 286 662 l 2
 423 662 532 626 600 557 c 0
 655 502 685 424 685 334 c 0
 685 237 648 148 583 89 c 0
 521 33 416 0 300 0 c 2
 16 0 l 1
 16 19 l 1
 92 24 104 37 104 109 c 2
206 586 m 2
 206 78 l 2
 206 46 218 37 258 37 c 0
 345 37 403 49 454 78 c 0
 535 125 576 209 576 327 c 0
 576 435 535 521 457 575 c 0
 409 609 344 625 258 625 c 0
 217 625 206 617 206 586 c 2
EndSplineSet
EndChar
StartChar: E
Encoding: 69 69
Width: 611
Flags: W
HStem: 0 37<306 333 333 404.5> 0 19 0 37 327 41<201 355> 624 38<220.5 234 234 369> 643 19
VStem: 99 102<109 327 368 553 553 588>
Fore
597 169 m 1
 552 0 l 1
 12 0 l 1
 12 19 l 1
 85 24 99 39 99 109 c 2
 99 553 l 2
 99 623 86 637 12 643 c 1
 12 662 l 1
 543 662 l 1
 546 519 l 1
 521 519 l 1
 504 609 482 624 369 624 c 2
 234 624 l 2
 207 624 201 618 201 590 c 2
 201 368 l 1
 355 368 l 2
 402 368 430 376 443 393 c 0
 454 407 458 422 465 463 c 1
 488 463 l 1
 488 231 l 1
 465 231 l 1
 452 314 437 327 355 327 c 2
 201 327 l 1
 201 80 l 2
 201 63 203 52 208 49 c 1
 215 42 257 37 306 37 c 2
 333 37 l 2
 476 37 519 61 569 169 c 1
 597 169 l 1
EndSplineSet
EndChar
StartChar: F
Encoding: 70 70
Width: 556
Flags: W
HStem: 0 19 327 41<201 346> 624 38<219.5 233 233 369> 643 19
VStem: 99 102<120 327 368 553 553 588>
Fore
479 231 m 1
 456 231 l 1
 444 312 427 327 346 327 c 2
 201 327 l 1
 201 109 l 2
 201 37 215 23 292 19 c 1
 292 0 l 1
 12 0 l 1
 12 19 l 1
 88 24 99 37 99 120 c 2
 99 553 l 2
 99 623 86 637 12 643 c 1
 12 662 l 1
 543 662 l 1
 546 519 l 1
 521 519 l 1
 504 609 482 624 369 624 c 2
 233 624 l 2
 206 624 201 618 201 590 c 2
 201 368 l 1
 346 368 l 2
 426 368 444 383 456 463 c 1
 479 463 l 1
 479 231 l 1
EndSplineSet
EndChar
StartChar: G
Encoding: 71 71
Width: 722
Flags: MW
HStem: -14 40<333 431> 636 40<358 397.5>
VStem: 32 114<276 373> 542 97<85 247 247 259>
Fore
709 354 m 1
 709 336 l 1
 651 331 639 318 639 259 c 2
 639 56 l 1
 599 21 474 -14 388 -14 c 0
 278 -14 182 24 115 93 c 0
 59 152 32 227 32 325 c 0
 32 529 175 676 375 676 c 0
 420 676 466 668 511 653 c 0
 529 646 545 643 555 643 c 0
 576 643 594 657 600 676 c 1
 622 676 l 1
 630 465 l 1
 607 465 l 1
 582 526 566 553 536 581 c 0
 497 617 448 636 392 636 c 0
 324 636 262 609 218 560 c 0
 174 511 146 420 146 326 c 0
 146 140 246 26 409 26 c 0
 481 26 542 53 542 85 c 2
 542 247 l 2
 542 290 536 313 521 322 c 0
 509 330 497 333 454 336 c 1
 454 354 l 1
 709 354 l 1
EndSplineSet
EndChar
StartChar: H
Encoding: 72 72
Width: 722
Flags: MW
HStem: 0 19 315 44<209 512> 643 19
VStem: 107 102<120 315 359 553> 512 102<120 315 315 315 359 553>
Fore
209 359 m 1
 512 359 l 1
 512 553 l 2
 512 625 501 636 424 643 c 1
 424 662 l 1
 702 662 l 1
 702 643 l 1
 625 636 614 625 614 553 c 2
 614 109 l 2
 614 38 627 25 702 19 c 1
 702 0 l 1
 424 0 l 1
 424 19 l 1
 502 24 512 36 512 120 c 2
 512 315 l 1
 209 315 l 1
 209 109 l 2
 209 38 222 25 297 19 c 1
 297 0 l 1
 19 0 l 1
 19 19 l 1
 97 24 107 36 107 120 c 2
 107 553 l 2
 107 625 96 636 19 643 c 1
 19 662 l 1
 297 662 l 1
 297 643 l 1
 220 636 209 625 209 553 c 2
 209 359 l 1
EndSplineSet
EndChar
StartChar: I
Encoding: 73 73
Width: 333
Flags: MW
HStem: 0 19 643 19
VStem: 115 102<109 553>
Fore
115 109 m 2
 115 553 l 2
 115 627 103 638 18 643 c 1
 18 662 l 1
 315 662 l 1
 315 643 l 1
 231 639 217 626 217 553 c 2
 217 109 l 2
 217 36 233 22 315 19 c 1
 315 0 l 1
 18 0 l 1
 18 19 l 1
 102 22 115 34 115 109 c 2
EndSplineSet
EndChar
StartChar: J
Encoding: 74 74
Width: 389
Flags: MW
HStem: -14 38<131 151> 643 19
VStem: 176 102<120.5 183 183 553>
Fore
278 553 m 6
 278 183 l 6
 278 58 217 -14 109 -14 c 4
 51 -14 10 16 10 58 c 4
 10 85 32 108 59 108 c 4
 85 108 101 92 111 57 c 4
 118 32 124 24 138 24 c 4
 164 24 176 45 176 90 c 6
 176 553 l 6
 176 626 165 637 83 643 c 5
 83 662 l 5
 370 662 l 5
 370 643 l 5
 289 637 278 626 278 553 c 6
EndSplineSet
EndChar
StartChar: K
Encoding: 75 75
Width: 722
Flags: MW
HStem: 0 19 643 19
VStem: 124 102<120 296 348 553>
Fore
413 643 m 1
 413 662 l 1
 675 662 l 1
 675 643 l 1
 607 638 591 630 523 565 c 1
 333 377 l 1
 566 127 l 2
 657 30 671 20 723 19 c 1
 723 0 l 1
 418 0 l 1
 418 19 l 1
 430 20 441 20 446 20 c 0
 474 21 488 28 488 42 c 0
 488 66 434 137 358 212 c 2
 252 317 l 1
 226 296 l 1
 226 109 l 2
 226 36 238 24 316 19 c 1
 316 0 l 1
 34 0 l 1
 34 19 l 1
 113 24 124 37 124 120 c 2
 124 553 l 2
 124 624 112 637 34 643 c 1
 34 662 l 1
 318 662 l 1
 318 643 l 1
 237 637 226 626 226 553 c 2
 226 348 l 1
 403 509 l 2
 458 560 481 590 481 612 c 0
 481 632 469 640 439 642 c 0
 435 642 425 642 413 643 c 1
EndSplineSet
EndChar
StartChar: L
Encoding: 76 76
Width: 611
Flags: W
HStem: 0 39<287 354 354 395.5> 0 19 0 39 643 19
VStem: 99 102<109 553>
Fore
573 174 m 5
 598 174 l 5
 550 0 l 5
 12 0 l 5
 12 19 l 5
 85 24 99 39 99 109 c 6
 99 553 l 6
 99 623 86 637 12 643 c 5
 12 662 l 5
 294 662 l 5
 294 643 l 5
 215 638 201 624 201 553 c 6
 201 80 l 6
 201 45 214 39 287 39 c 6
 354 39 l 6
 437 39 492 57 527 96 c 4
 542 113 556 136 573 174 c 5
EndSplineSet
EndChar
StartChar: M
Encoding: 77 77
Width: 889
Flags: MW
HStem: 0 19 643 19
VStem: 109 44<147 550> 674 102<120 553>
Fore
674 573 m 1
 418 0 l 1
 404 0 l 1
 153 550 l 1
 153 147 l 2
 153 46 170 23 247 19 c 1
 247 0 l 1
 12 0 l 1
 12 19 l 1
 95 25 109 44 109 147 c 2
 109 553 l 2
 109 626 96 638 14 643 c 1
 14 662 l 1
 212 662 l 1
 443 157 l 1
 664 662 l 1
 863 662 l 1
 863 643 l 1
 789 637 776 624 776 553 c 2
 776 109 l 2
 776 38 790 24 863 19 c 1
 863 0 l 1
 583 0 l 1
 583 19 l 1
 662 24 674 37 674 120 c 2
 674 573 l 1
EndSplineSet
EndChar
StartChar: N
Encoding: 78 78
Width: 722
Flags: W
HStem: -11 20 0 19 643 19<12 33.5>
VStem: 109 44<147 539> 568 44<178 515>
Fore
612 -11 m 1
 595 -11 l 1
 153 539 l 1
 153 147 l 2
 153 46 170 23 247 19 c 1
 247 0 l 1
 12 0 l 1
 12 19 l 1
 95 25 109 44 109 147 c 2
 109 588 l 1
 69 635 55 643 12 643 c 1
 12 662 l 1
 183 662 l 1
 568 178 l 1
 568 515 l 2
 568 577 559 613 539 627 c 0
 524 636 510 640 472 643 c 1
 472 662 l 1
 707 662 l 1
 707 643 l 1
 669 639 655 635 641 625 c 0
 622 612 612 575 612 515 c 2
 612 -11 l 1
EndSplineSet
EndChar
StartChar: O
Encoding: 79 79
Width: 722
Flags: MW
HStem: -14 36<336 385.5> 640 36<333.5 384>
VStem: 34 114<284 380> 574 114<298.5 376.5>
Fore
361 676 m 4
 457 676 541 640 604 571 c 0
 659 511 688 426 688 327 c 0
 688 126 552 -14 355 -14 c 0
 267 -14 178 25 120 88 c 0
 66 146 34 237 34 331 c 0
 34 532 170 676 361 676 c 4
361 640 m 0
 306 640 257 618 218 575 c 0
 176 528 148 431 148 329 c 0
 148 218 181 117 233 71 c 0
 268 40 313 22 359 22 c 0
 412 22 457 40 492 75 c 0
 515 98 532 123 541 148 c 0
 561 200 574 269 574 328 c 0
 574 447 543 541 489 590 c 0
 453 622 407 640 361 640 c 0
EndSplineSet
EndChar
StartChar: P
Encoding: 80 80
Width: 556
Flags: W
HStem: 0 19 288 40<258 310> 625 37<222.5 280 280 303.5> 643 19
VStem: 100 102<120 291 331 553 553 589> 433 109<448 502>
Fore
202 291 m 1
 202 109 l 2
 202 36 217 22 296 19 c 1
 296 0 l 1
 16 0 l 1
 16 19 l 1
 92 26 100 36 100 120 c 2
 100 553 l 2
 100 625 90 635 16 643 c 1
 16 662 l 1
 280 662 l 2
 374 662 461 634 501 590 c 0
 528 561 542 523 542 481 c 0
 542 415 506 354 446 322 c 0
 403 298 349 288 271 288 c 0
 245 288 228 289 202 291 c 1
202 591 m 2
 202 331 l 1
 225 329 239 328 259 328 c 0
 374 328 433 378 433 475 c 0
 433 578 371 625 236 625 c 0
 209 625 202 618 202 591 c 2
EndSplineSet
EndChar
StartChar: Q
Encoding: 81 81
Width: 722
Flags: MW
HStem: 640 36<335 385.5>
VStem: 34 114<280 383> 574 114<283.5 389.5>
Fore
701 -159 m 1
 701 -177 l 1
 695 -177 l 2
 684 -178 675 -178 660 -178 c 0
 501 -178 380 -135 312 -56 c 2
 265 -1 l 1
 194 23 162 43 123 85 c 0
 64 149 34 231 34 329 c 0
 34 532 170 676 361 676 c 0
 552 676 688 532 688 331 c 0
 688 220 650 129 576 63 c 0
 530 23 494 6 426 -7 c 1
 507 -112 587 -156 701 -159 c 1
364 640 m 0
 306 640 259 619 218 575 c 0
 177 529 148 431 148 335 c 0
 148 218 180 118 233 71 c 0
 269 39 313 22 361 22 c 0
 416 22 468 45 505 86 c 0
 545 132 574 234 574 333 c 0
 574 446 542 542 488 590 c 0
 453 621 407 640 364 640 c 0
EndSplineSet
EndChar
StartChar: R
Encoding: 82 82
Width: 667
Flags: W
HStem: 0 19 625 37<235 293 293 317.5> 643 19
VStem: 102 102<120 306 343 553 553 588.5> 438 109<463 507.5>
Fore
659 19 m 1
 659 0 l 1
 498 0 l 1
 260 308 l 1
 204 306 l 1
 204 109 l 2
 204 37 217 24 294 19 c 1
 294 0 l 1
 17 0 l 1
 17 19 l 1
 92 25 102 37 102 120 c 2
 102 553 l 2
 102 624 92 635 17 643 c 1
 17 662 l 1
 293 662 l 2
 387 662 470 636 508 595 c 0
 534 566 547 529 547 486 c 0
 547 439 528 397 496 371 c 0
 463 344 433 332 366 319 c 1
 572 66 l 1
 601 32 621 22 659 19 c 1
204 589 m 2
 204 343 l 1
 300 345 335 351 381 377 c 0
 417 396 438 438 438 488 c 0
 438 582 380 625 255 625 c 0
 215 625 204 617 204 589 c 2
EndSplineSet
EndChar
StartChar: S
Encoding: 83 83
Width: 556
Flags: W
HStem: -14 36<267 303.5> 0 20<114.5 127.5> 635 41<230 260> 642 20
VStem: 71 86<515 531> 390 101<116.5 147>
Fore
447 676 m 1
 469 463 l 1
 444 463 l 1
 428 522 414 548 383 580 c 0
 348 616 306 635 261 635 c 0
 199 635 157 597 157 542 c 0
 157 488 199 444 304 386 c 0
 436 315 491 250 491 168 c 0
 491 65 402 -14 287 -14 c 0
 247 -14 207 -6 169 9 c 0
 150 16 133 20 122 20 c 0
 107 20 95 6 94 -13 c 1
 72 -13 l 1
 42 199 l 1
 65 199 l 1
 115 77 178 22 267 22 c 0
 340 22 390 68 390 135 c 0
 390 159 385 180 376 193 c 0
 351 231 299 272 227 310 c 0
 115 369 71 425 71 505 c 0
 71 557 89 599 124 630 c 0
 157 659 201 676 244 676 c 0
 276 676 313 668 350 654 c 1
 367 646 384 642 394 642 c 0
 411 642 422 653 426 676 c 1
 447 676 l 1
EndSplineSet
EndChar
StartChar: T
Encoding: 84 84
Width: 611
Flags: MW
HStem: 0 19 620 42<144 200 200 254 356 356 356 410>
VStem: 254 102<120 620>
Fore
254 620 m 1
 200 620 l 2
 88 620 65 601 41 492 c 1
 17 492 l 1
 23 662 l 1
 587 662 l 1
 593 492 l 1
 569 492 l 1
 546 602 524 620 410 620 c 2
 356 620 l 1
 356 109 l 2
 356 36 370 23 452 19 c 1
 452 0 l 1
 160 0 l 1
 160 19 l 1
 243 24 254 35 254 120 c 2
 254 620 l 1
EndSplineSet
EndChar
StartChar: U
Encoding: 85 85
Width: 722
Flags: MW
HStem: -14 44<342.5 409.5> 643 19
VStem: 104 102<241 553> 567 44<245 254 254 515>
Fore
611 515 m 2
 611 254 l 2
 611 177 602 131 578 89 c 0
 539 21 464 -14 355 -14 c 0
 185 -14 104 68 104 241 c 2
 104 553 l 2
 104 626 93 637 14 643 c 1
 14 662 l 1
 297 662 l 1
 297 643 l 1
 217 636 206 625 206 553 c 2
 206 233 l 2
 206 170 213 133 231 101 c 0
 258 54 307 30 378 30 c 0
 453 30 517 61 544 109 c 0
 560 139 567 177 567 245 c 2
 567 515 l 2
 567 615 551 637 473 643 c 1
 473 662 l 1
 705 662 l 1
 705 643 l 1
 623 633 611 617 611 515 c 2
EndSplineSet
EndChar
StartChar: V
Encoding: 86 86
Width: 722
Flags: MW
HStem: -11 20 642 20<16 282 282 282 492 697 697 697>
Fore
697 662 m 1
 697 643 l 1
 649 640 638 629 605 550 c 1
 383 -11 l 1
 368 -11 l 1
 122 538 l 1
 79 627 65 641 16 643 c 1
 16 662 l 1
 282 662 l 1
 282 643 l 1
 268 642 257 641 253 641 c 0
 221 639 207 629 207 610 c 0
 207 595 215 572 248 499 c 2
 399 161 l 1
 546 528 l 2
 558 558 565 585 565 601 c 0
 565 629 547 640 492 643 c 1
 492 662 l 1
 697 662 l 1
EndSplineSet
EndChar
StartChar: W
Encoding: 87 87
Width: 944
Flags: MW
HStem: -11 20 642 20<5 250 250 250 313 580 580 580 734 932 932 932>
Fore
932 662 m 1
 932 643 l 1
 879 633 868 624 849 572 c 0
 740 278 730 250 645 -11 c 1
 630 -11 l 1
 470 412 l 1
 316 -11 l 1
 301 -11 l 1
 108 526 l 1
 71 620 56 638 5 643 c 1
 5 662 l 1
 250 662 l 1
 250 643 l 1
 199 640 185 633 185 611 c 0
 185 600 189 583 196 565 c 2
 340 189 l 1
 447 471 l 1
 414 553 l 1
 380 633 370 642 313 643 c 1
 313 662 l 1
 580 662 l 1
 580 643 l 1
 526 642 503 632 503 608 c 0
 503 597 509 578 518 557 c 0
 519 554 528 532 530 527 c 2
 662 186 l 1
 787 525 l 2
 797 553 803 579 803 600 c 0
 803 627 785 638 734 643 c 1
 734 662 l 1
 932 662 l 1
EndSplineSet
EndChar
StartChar: X
Encoding: 88 88
Width: 722
Flags: MW
HStem: 0 20 642 20<296 296>
Fore
696 662 m 1
 696 643 l 1
 632 639 612 627 547 549 c 1
 401 367 l 1
 593 93 l 1
 636 35 651 25 704 19 c 1
 704 0 l 1
 407 0 l 1
 407 19 l 1
 419 20 430 21 434 21 c 0
 468 22 484 32 484 50 c 0
 484 65 466 99 433 148 c 2
 338 288 l 1
 219 140 l 2
 182 94 167 69 167 54 c 0
 167 31 185 23 243 19 c 1
 243 0 l 1
 10 0 l 1
 10 19 l 1
 61 23 66 27 155 133 c 1
 312 326 l 1
 203 486 l 1
 105 625 87 640 22 643 c 1
 22 662 l 1
 324 662 l 1
 324 643 l 1
 296 642 l 2
 263 641 248 633 248 613 c 0
 248 591 272 548 333 463 c 2
 375 404 l 1
 488 542 l 2
 517 578 528 596 528 611 c 0
 528 634 512 641 458 643 c 1
 458 662 l 1
 696 662 l 1
EndSplineSet
EndChar
StartChar: Y
Encoding: 89 89
Width: 722
Flags: MW
HStem: 0 19 642 20<277 279>
VStem: 315 102<120 294 294 294>
Fore
703 662 m 1
 703 643 l 1
 652 639 626 617 565 529 c 1
 417 303 l 1
 417 109 l 2
 417 33 431 21 520 19 c 1
 520 0 l 1
 214 0 l 1
 214 19 l 1
 305 23 315 33 315 120 c 2
 315 294 l 1
 184 486 l 1
 84 627 70 641 22 643 c 1
 22 662 l 1
 302 662 l 1
 302 643 l 1
 291 642 281 642 277 642 c 0
 245 640 231 631 231 613 c 0
 231 602 237 585 248 569 c 2
 396 347 l 1
 539 573 l 2
 548 588 553 600 553 610 c 0
 553 634 536 642 484 643 c 1
 484 662 l 1
 703 662 l 1
EndSplineSet
EndChar
StartChar: Z
Encoding: 90 90
Width: 611
Flags: MW
HStem: 0 38<145 402 402 430.5> 624 38<192 225 225 446>
Fore
574 176 m 5
 597 176 l 5
 573 0 l 5
 9 0 l 5
 9 15 l 5
 446 624 l 5
 225 624 l 6
 159 624 114 610 91 581 c 4
 74 560 66 540 57 491 c 5
 31 491 l 5
 51 662 l 5
 577 662 l 5
 577 647 l 5
 145 38 l 5
 402 38 l 6
 459 38 503 52 527 77 c 4
 547 99 557 120 574 176 c 5
EndSplineSet
EndChar
StartChar: bracketleft
Encoding: 91 91
Width: 333
Flags: MW
HStem: -156 25<213 299> 637 25<193 209 209 299>
VStem: 88 76<-96.5 -79 -79 593>
Fore
299 -131 m 1
 299 -156 l 1
 88 -156 l 1
 88 662 l 1
 299 662 l 1
 299 637 l 1
 209 637 l 2
 177 637 164 624 164 593 c 2
 164 -79 l 2
 164 -114 180 -131 213 -131 c 2
 299 -131 l 1
EndSplineSet
EndChar
StartChar: backslash
Encoding: 92 92
Width: 278
Flags: MW
HStem: -14 20 656 20<-9 58 58 58>
Fore
-9 676 m 1
 58 676 l 1
 287 -14 l 1
 219 -14 l 1
 -9 676 l 1
EndSplineSet
EndChar
StartChar: bracketright
Encoding: 93 93
Width: 333
Flags: MW
HStem: -156 25<34 124 124 139.5> 637 25<34 120>
VStem: 169 76<-87 585 585 602.5>
Fore
34 -131 m 1
 124 -131 l 2
 155 -131 169 -118 169 -87 c 2
 169 585 l 2
 169 620 153 637 120 637 c 2
 34 637 l 1
 34 662 l 1
 245 662 l 1
 245 -156 l 1
 34 -156 l 1
 34 -131 l 1
EndSplineSet
EndChar
StartChar: asciicircum
Encoding: 94 94
Width: 469
Flags: MW
HStem: 642 20<205 265 265 265>
Fore
92 297 m 1
 24 297 l 1
 205 662 l 1
 265 662 l 1
 446 297 l 1
 378 297 l 1
 235 586 l 1
 92 297 l 1
EndSplineSet
EndChar
StartChar: underscore
Encoding: 95 95
Width: 500
Flags: MW
HStem: -125 50<0 500>
Fore
500 -125 m 1
 0 -125 l 1
 0 -75 l 1
 500 -75 l 1
 500 -125 l 1
EndSplineSet
EndChar
StartChar: grave
Encoding: 96 96
Width: 333
Flags: MW
HStem: 658 20<42.5 60.5>
Fore
242 507 m 1
 202 507 l 1
 48 604 l 2
 30 616 19 631 19 647 c 0
 19 666 32 678 53 678 c 0
 68 678 77 673 95 655 c 2
 242 507 l 1
EndSplineSet
EndChar
StartChar: a
Encoding: 97 97
Width: 444
Flags: W
HStem: -10 57 -10 58 -10 57 -10 58 436 24<191 235.5>
VStem: 56 83 287 81<123 268 268 268 292 300>
Fore
442 66 m 1
 442 40 l 1
 407 2 386 -10 352 -10 c 0
 311 -10 293 11 288 63 c 1
 227 11 186 -10 142 -10 c 0
 81 -10 37 34 37 97 c 0
 37 130 51 164 73 184 c 0
 116 222 133 230 287 292 c 1
 287 353 l 2
 287 407 260 436 211 436 c 0
 171 436 139 414 139 387 c 0
 139 380 140 372 142 363 c 0
 143 356 144 351 144 347 c 0
 144 325 123 305 99 305 c 0
 76 305 56 325 56 348 c 0
 56 411 130 460 224 460 c 0
 283 460 326 441 348 405 c 0
 363 381 368 352 368 300 c 2
 368 105 l 2
 368 61 375 47 398 47 c 0
 413 47 425 52 442 66 c 1
287 123 m 2
 287 268 l 1
 166 224 125 188 125 129 c 2
 125 125 l 2
 125 82 153 48 188 48 c 0
 209 48 237 57 261 71 c 0
 282 83 287 92 287 123 c 2
EndSplineSet
EndChar
StartChar: b
Encoding: 98 98
Width: 500
Flags: MW
HStem: -10 32<224 291> 397 63<261.5 291>
VStem: 69 84<57.5 70 70 322 375 573 573 594> 380 88<171.5 258>
Fore
153 681 m 1
 153 375 l 1
 173 424 231 460 292 460 c 0
 392 460 468 366 468 243 c 0
 468 100 366 -10 234 -10 c 0
 154 -10 69 23 69 54 c 2
 69 573 l 2
 69 615 60 624 20 624 c 0
 13 624 9 624 3 623 c 1
 3 639 l 1
 32 647 l 2
 79 660 106 668 148 683 c 1
 153 681 l 1
153 322 m 2
 153 70 l 2
 153 45 198 22 250 22 c 0
 332 22 380 86 380 197 c 0
 380 319 330 397 252 397 c 0
 200 397 153 361 153 322 c 2
EndSplineSet
EndChar
StartChar: c
Encoding: 99 99
Width: 444
Flags: MW
HStem: -10 72<211.5 237.5> 431 29<219.5 256>
VStem: 25 77<199.5 252.5>
Fore
398 156 m 1
 412 147 l 1
 382 88 363 61 336 37 c 0
 300 6 260 -10 215 -10 c 0
 104 -10 25 83 25 213 c 0
 25 292 53 360 103 404 c 0
 144 440 195 460 244 460 c 0
 328 460 398 413 398 357 c 0
 398 334 376 315 350 315 c 0
 329 315 311 333 303 361 c 2
 297 383 l 2
 287 420 274 431 238 431 c 0
 157 431 102 360 102 257 c 0
 102 142 166 62 257 62 c 0
 314 62 350 86 398 156 c 1
EndSplineSet
EndChar
StartChar: d
Encoding: 100 100
Width: 500
Flags: MW
HStem: -10 52<209.5 240> 42 16 432 28<200 255>
VStem: 27 86<183.5 276> 340 84<102 114 114 332 332 358.5 417 573 573 593.5>
Fore
344 -10 m 1
 340 -7 l 1
 340 57 l 1
 306 10 268 -10 212 -10 c 0
 102 -10 27 77 27 205 c 0
 27 347 120 460 235 460 c 0
 275 460 302 449 340 417 c 1
 340 573 l 2
 340 614 331 624 294 624 c 0
 286 624 280 624 272 623 c 1
 272 639 l 1
 336 656 371 666 419 683 c 1
 424 681 l 1
 424 114 l 2
 424 68 432 57 468 57 c 0
 471 57 473 57 491 58 c 1
 491 42 l 1
 344 -10 l 1
340 102 m 2
 340 332 l 2
 340 385 291 432 238 432 c 0
 162 432 113 358 113 245 c 0
 113 122 168 42 251 42 c 0
 280 42 305 52 323 72 c 0
 333 83 340 95 340 102 c 2
EndSplineSet
EndChar
StartChar: e
Encoding: 101 101
Width: 444
Flags: MW
HStem: -10 69<224.5 259.5> 277 32<99 303> 424 36<209 235.5>
Fore
408 164 m 1
 424 157 l 1
 382 49 307 -10 212 -10 c 0
 97 -10 25 76 25 214 c 0
 25 296 52 367 99 408 c 0
 137 442 184 460 234 460 c 0
 286 460 332 439 362 403 c 0
 387 371 397 342 405 277 c 1
 97 277 l 1
 99 216 106 183 124 145 c 0
 153 88 196 59 253 59 c 0
 317 59 360 88 408 164 c 1
99 309 m 1
 303 309 l 1
 290 396 266 424 205 424 c 0
 144 424 110 387 99 309 c 1
EndSplineSet
EndChar
StartChar: f
Encoding: 102 102
Width: 333
Flags: MW
HStem: 0 15 418 32<21 103 187 309 187 187> 655 28<248 253.5>
VStem: 103 84<104 418>
Fore
309 450 m 5
 309 418 l 5
 187 418 l 5
 187 104 l 6
 187 29 198 18 280 15 c 5
 280 0 l 5
 20 0 l 5
 20 15 l 5
 92 19 103 31 103 104 c 6
 103 418 l 5
 21 418 l 5
 21 450 l 5
 103 450 l 5
 104 530 112 566 138 610 c 4
 164 656 217 683 279 683 c 4
 339 683 383 657 383 621 c 4
 383 598 364 580 341 580 c 4
 324 580 312 590 296 616 c 4
 278 645 264 655 243 655 c 4
 205 655 186 624 186 566 c 6
 186 450 l 5
 309 450 l 5
EndSplineSet
EndChar
StartChar: g
Encoding: 103 103
Width: 500
Flags: MW
HStem: -218 57<200 238.5> -2 20 149 25<247 268.5> 388 39<393 470> 432 28<203 241.5>
VStem: 28 70<-110 -102.5> 329 77<279 284.5> 433 28<-68 -46>
Fore
470 388 m 1
 387 388 l 1
 401 356 406 333 406 304 c 0
 406 254 391 219 358 191 c 0
 327 164 287 149 250 149 c 0
 244 149 231 150 212 152 c 0
 209 152 202 153 193 154 c 1
 166 146 133 111 133 91 c 0
 133 75 158 66 211 64 c 2
 340 58 l 2
 414 55 461 13 461 -49 c 0
 461 -87 444 -119 406 -150 c 0
 354 -192 276 -218 201 -218 c 0
 106 -218 28 -174 28 -121 c 0
 28 -84 55 -51 126 1 c 1
 85 21 73 33 73 54 c 0
 73 74 86 94 119 123 c 0
 125 128 143 145 162 163 c 1
 96 196 69 234 69 297 c 0
 69 388 143 460 236 460 c 0
 262 460 289 455 316 445 c 2
 338 437 l 2
 358 430 373 427 393 427 c 2
 470 427 l 1
 470 388 l 1
147 -2 m 1
 105 -52 98 -65 98 -88 c 0
 98 -132 156 -161 244 -161 c 0
 357 -161 433 -122 433 -64 c 0
 433 -28 400 -15 309 -15 c 0
 260 -15 180 -9 147 -2 c 1
152 338 m 2
 152 335 l 2
 152 239 194 174 254 174 c 0
 300 174 329 209 329 265 c 0
 329 304 317 350 299 385 c 0
 283 415 257 432 226 432 c 0
 180 432 152 397 152 338 c 2
EndSplineSet
EndChar
StartChar: h
Encoding: 104 104
Width: 500
Flags: MW
HStem: 0 15 406 54<274.5 293>
VStem: 73 84<102 343 376 573 573 594.5> 343 84<102 300 300 301>
Fore
157 343 m 1
 157 102 l 2
 157 33 167 21 225 15 c 1
 225 0 l 1
 9 0 l 1
 9 15 l 1
 67 23 73 32 73 102 c 2
 73 573 l 2
 73 616 65 624 22 624 c 0
 17 624 14 624 10 623 c 1
 10 639 l 1
 37 647 l 2
 93 663 118 671 152 683 c 1
 157 680 l 1
 157 376 l 1
 203 436 245 460 304 460 c 0
 385 460 427 406 427 301 c 2
 427 102 l 2
 427 33 433 25 487 15 c 1
 487 0 l 1
 275 0 l 1
 275 15 l 1
 333 21 343 34 343 102 c 2
 343 300 l 2
 343 370 318 406 268 406 c 0
 229 406 199 389 157 343 c 1
EndSplineSet
EndChar
StartChar: i
Encoding: 105 105
Width: 278
Flags: W
HStem: 0 15 390 15 440 20<175 175> 581 102<114.5 142.5>
VStem: 78 102<618 646> 95 84<102 334 334 356>
Fore
175 460 m 1
 179 457 l 1
 179 102 l 2
 179 30 187 20 253 15 c 1
 253 0 l 1
 16 0 l 1
 16 15 l 1
 85 19 95 30 95 102 c 2
 95 334 l 2
 95 378 86 394 62 394 c 0
 53 394 40 393 28 391 c 2
 20 390 l 1
 20 405 l 1
 175 460 l 1
128 683 m 0
 157 683 180 660 180 632 c 0
 180 603 157 581 128 581 c 0
 100 581 78 604 78 632 c 0
 78 660 101 683 128 683 c 0
EndSplineSet
EndChar
StartChar: j
Encoding: 106 106
Width: 278
Flags: W
HStem: -218 34<53.5 68> 440 20<188 188> 581 102<128.5 156.5>
VStem: 92 102<618 646> 109 84<-45 0 0 334 334 355.5>
Fore
193 457 m 5
 193 0 l 6
 193 -142 134 -218 24 -218 c 4
 -30 -218 -70 -195 -70 -163 c 4
 -70 -141 -52 -124 -29 -124 c 4
 -13 -124 1 -133 19 -156 c 4
 36 -177 46 -184 61 -184 c 4
 75 -184 89 -176 95 -166 c 4
 106 -146 109 -121 109 -45 c 6
 109 334 l 6
 109 377 100 394 77 394 c 4
 67 394 52 393 37 391 c 6
 32 390 l 5
 32 406 l 5
 91 424 129 437 188 460 c 5
 193 457 l 5
142 683 m 4
 171 683 194 660 194 632 c 4
 194 603 171 581 142 581 c 4
 114 581 92 604 92 632 c 4
 92 660 115 683 142 683 c 4
EndSplineSet
EndChar
StartChar: k
Encoding: 107 107
Width: 500
Flags: MW
HStem: 0 15<287 306 306 312> 435 15<463.5 472 472 480>
VStem: 82 84<82 251 261 564 564 588>
Fore
7 623 m 1
 7 639 l 1
 37 647 l 2
 95 663 124 671 162 683 c 1
 166 681 l 1
 166 261 l 1
 303 383 l 2
 317 395 326 409 326 417 c 0
 326 431 315 435 276 436 c 1
 276 450 l 1
 480 450 l 1
 480 435 l 1
 472 435 l 2
 455 435 441 433 426 429 c 0
 397 421 335 375 264 309 c 2
 235 282 l 1
 388 88 l 1
 430 37 461 18 505 15 c 1
 505 0 l 1
 287 0 l 1
 287 15 l 1
 306 15 l 2
 318 15 327 21 327 30 c 0
 327 35 324 41 316 51 c 0
 313 54 311 57 309 60 c 2
 306 64 l 1
 166 251 l 1
 166 67 l 2
 166 32 181 18 221 16 c 2
 241 15 l 1
 241 0 l 1
 7 0 l 1
 7 15 l 1
 79 27 82 30 82 82 c 2
 82 564 l 2
 82 612 72 625 39 625 c 0
 29 625 20 624 7 623 c 1
EndSplineSet
EndChar
StartChar: l
Encoding: 108 108
Width: 278
Flags: HMW
HStem: 0 15
VStem: 98 84<87 564 564 587.5>
Fore
19 623 m 1
 19 639 l 1
 88 656 126 666 178 683 c 1
 182 681 l 1
 182 84 l 2
 182 29 194 19 257 15 c 1
 257 0 l 1
 21 0 l 1
 21 15 l 1
 84 20 98 33 98 87 c 2
 98 564 l 2
 98 611 88 625 56 625 c 0
 48 625 36 624 25 623 c 2
 19 623 l 1
EndSplineSet
EndChar
StartChar: m
Encoding: 109 109
Width: 778
Flags: MW
HStem: 0 15 408 52<299 310 561 575.5>
VStem: 86 84<85 338 338 349> 354 84<86 95 95 303 303 338> 622 84<87 282>
Fore
19 398 m 1
 19 415 l 1
 74 430 108 441 159 460 c 1
 166 458 l 1
 166 383 l 1
 249 446 277 460 321 460 c 0
 375 460 409 433 427 376 c 1
 481 434 532 460 590 460 c 0
 667 460 706 400 706 282 c 2
 706 76 l 2
 706 37 719 19 749 17 c 2
 775 15 l 1
 775 0 l 1
 556 0 l 1
 556 15 l 1
 614 22 622 30 622 87 c 2
 622 298 l 2
 622 381 604 408 547 408 c 0
 501 408 468 390 438 347 c 1
 438 95 l 2
 438 33 453 16 510 15 c 1
 510 0 l 1
 286 0 l 1
 286 15 l 1
 343 19 354 30 354 86 c 2
 354 303 l 2
 354 373 332 408 288 408 c 0
 253 408 210 391 185 368 c 0
 178 361 170 351 170 349 c 2
 170 67 l 2
 170 28 185 17 238 15 c 1
 238 0 l 1
 16 0 l 1
 16 15 l 1
 72 16 86 31 86 85 c 2
 86 338 l 2
 86 386 77 402 51 402 c 0
 40 402 32 401 19 398 c 1
EndSplineSet
EndChar
StartChar: n
Encoding: 110 110
Width: 500
Flags: MW
HStem: 0 15 405 55<283 291.5>
VStem: 80 84<90 338 338 348> 340 84<99 308 308 310>
Fore
16 398 m 1
 16 415 l 1
 71 431 105 442 154 460 c 1
 161 458 l 1
 161 379 l 1
 229 443 260 460 306 460 c 0
 380 460 424 404 424 310 c 2
 424 81 l 2
 424 32 436 20 485 15 c 1
 485 0 l 1
 277 0 l 1
 277 15 l 1
 327 19 340 36 340 99 c 2
 340 308 l 2
 340 374 316 405 267 405 c 0
 234 405 212 393 164 348 c 1
 164 67 l 2
 164 31 179 19 230 15 c 1
 230 0 l 1
 18 0 l 1
 18 15 l 1
 69 19 80 33 80 90 c 2
 80 338 l 2
 80 387 71 402 43 402 c 0
 32 402 22 401 16 398 c 1
EndSplineSet
EndChar
StartChar: o
Encoding: 111 111
Width: 500
Flags: MW
HStem: -10 28<240.5 297.5> 432 28<201.5 279>
VStem: 29 90<239.5 295> 380 90<165 267.5>
Fore
250 460 m 0
 378 460 470 365 470 234 c 0
 470 96 374 -10 248 -10 c 0
 122 -10 29 91 29 226 c 0
 29 364 120 460 250 460 c 0
237 432 m 0
 166 432 119 370 119 275 c 0
 119 204 135 134 163 82 c 0
 184 42 221 18 260 18 c 0
 335 18 380 86 380 199 c 0
 380 336 321 432 237 432 c 0
EndSplineSet
EndChar
StartChar: p
Encoding: 112 112
Width: 500
Flags: W
HStem: -217 17 -217 217 -217 18 -10 32<239.5 299> 400 60<275 298>
VStem: 75 84<-131 -124 -124 33 73 88 88 334> 384 86<174.5 266>
Fore
9 393 m 1
 9 409 l 1
 64 426 99 439 153 460 c 1
 159 458 l 1
 159 381 l 1
 203 435 247 460 303 460 c 0
 400 460 470 371 470 247 c 0
 470 102 378 -10 260 -10 c 0
 218 -10 194 0 159 33 c 1
 159 -124 l 2
 159 -187 172 -198 247 -199 c 1
 247 -217 l 1
 5 -217 l 1
 5 -200 l 1
 64 -194 75 -183 75 -131 c 2
 75 337 l 2
 75 384 68 394 34 394 c 0
 25 394 18 394 9 393 c 1
159 334 m 2
 159 88 l 2
 159 58 216 22 263 22 c 0
 335 22 384 97 384 208 c 0
 384 324 335 400 261 400 c 0
 215 400 159 364 159 334 c 2
EndSplineSet
EndChar
StartChar: q
Encoding: 113 113
Width: 500
Flags: W
HStem: -217 17 -217 14 -10 61 433 28<205.5 264.5>
VStem: 24 86<208 277> 341 84<-124 64 64 64 127 333 333 366.5>
Fore
360 425 m 1
 414 457 l 1
 425 457 l 1
 425 -141 l 2
 425 -183 433 -191 488 -203 c 1
 488 -217 l 1
 252 -217 l 1
 252 -200 l 1
 323 -195 341 -180 341 -124 c 2
 341 64 l 1
 297 16 242 -10 184 -10 c 0
 90 -10 24 79 24 205 c 0
 24 349 120 461 245 461 c 0
 284 461 314 452 360 425 c 1
341 127 m 2
 341 333 l 2
 341 400 310 433 248 433 c 0
 163 433 110 359 110 241 c 0
 110 175 131 110 163 81 c 1
 183 61 210 51 241 51 c 0
 272 51 305 63 327 82 c 0
 337 90 341 103 341 127 c 2
EndSplineSet
EndChar
StartChar: r
Encoding: 114 114
Width: 333
Flags: MW
HStem: 0 15 440 20<155 155 259 297>
VStem: 76 84<84 90 90 315>
Fore
7 390 m 1
 7 406 l 1
 66 425 102 438 155 460 c 1
 160 458 l 1
 160 366 l 1
 209 437 238 460 280 460 c 0
 314 460 335 440 335 407 c 0
 335 379 320 362 296 362 c 0
 283 362 272 368 256 382 c 0
 245 392 236 397 230 397 c 0
 203 397 160 347 160 315 c 2
 160 90 l 2
 160 33 177 18 245 15 c 1
 245 0 l 1
 5 0 l 1
 5 15 l 1
 69 27 76 34 76 84 c 2
 76 334 l 2
 76 378 67 394 42 394 c 0
 30 394 21 393 7 390 c 1
EndSplineSet
EndChar
StartChar: s
Encoding: 115 115
Width: 389
Flags: W
HStem: -10 22<198 220.5> 0 20 430 20<300 311 311 311> 437 22<167 200>
VStem: 51 62<355.5 372> 278 70<83 99.5>
Fore
315 314 m 1
 300 314 l 1
 277 403 247 437 190 437 c 0
 144 437 113 409 113 369 c 0
 113 342 128 317 156 301 c 2
 264 237 l 2
 324 201 348 168 348 118 c 0
 348 48 284 -10 207 -10 c 0
 189 -10 162 -6 134 0 c 0
 111 6 97 8 88 8 c 0
 76 8 72 6 65 -4 c 1
 52 -4 l 1
 52 152 l 1
 68 152 l 1
 81 95 90 72 111 47 c 0
 130 25 161 12 195 12 c 0
 246 12 278 40 278 84 c 0
 278 115 261 139 226 159 c 2
 168 192 l 2
 83 240 51 280 51 336 c 0
 51 408 108 459 187 459 c 0
 213 459 235 455 257 447 c 0
 268 442 278 440 284 440 c 0
 288 440 289 441 298 448 c 2
 300 450 l 1
 311 450 l 1
 315 314 l 1
EndSplineSet
EndChar
StartChar: t
Encoding: 116 116
Width: 278
Flags: W
HStem: -10 52 418 32<154 255>
VStem: 13 242<423.5 427.5> 70 84<117 132 132 418>
Fore
255 450 m 1
 255 418 l 1
 154 418 l 1
 154 132 l 2
 154 69 169 42 206 42 c 0
 228 42 245 52 266 77 c 1
 279 66 l 1
 246 14 208 -10 159 -10 c 0
 100 -10 70 33 70 117 c 2
 70 418 l 1
 17 418 l 1
 14 420 13 422 13 425 c 0
 13 430 19 437 30 444 c 1
 46 448 89 496 127 551 c 0
 134 561 140 570 147 579 c 1
 153 579 154 576 154 566 c 2
 154 450 l 1
 255 450 l 1
EndSplineSet
EndChar
StartChar: u
Encoding: 117 117
Width: 500
Flags: W
HStem: -10 58<206.5 210.5> -9 20 433 17 436 14
VStem: 71 84<120 124 124 372 372 395> 333 84<135 370 370 395>
Fore
479 50 m 1
 479 36 l 1
 428 22 392 11 342 -9 c 1
 338 -7 l 1
 338 76 l 1
 295 33 l 2
 268 6 229 -10 192 -10 c 0
 119 -10 71 41 71 120 c 2
 71 372 l 2
 71 418 57 433 9 436 c 1
 9 450 l 1
 155 450 l 1
 155 124 l 2
 155 82 187 48 226 48 c 0
 256 48 287 60 314 82 c 0
 328 93 333 107 333 135 c 2
 333 370 l 2
 333 420 321 430 259 433 c 1
 259 450 l 1
 417 450 l 1
 417 107 l 2
 417 61 428 50 474 50 c 2
 479 50 l 1
EndSplineSet
EndChar
StartChar: v
Encoding: 118 118
Width: 500
Flags: MW
HStem: -14 20 430 20<19 215 215 215 338 477 477 477>
Fore
477 450 m 1
 477 435 l 1
 447 432 441 425 412 357 c 1
 284 36 l 2
 269 -1 262 -14 256 -14 c 0
 250 -14 244 -6 238 12 c 0
 235 20 232 27 230 33 c 1
 110 320 l 1
 64 423 57 433 19 435 c 1
 19 450 l 1
 215 450 l 1
 215 435 l 1
 180 432 169 425 169 407 c 0
 169 398 172 384 178 370 c 1
 280 114 l 1
 379 373 l 2
 383 383 385 393 385 403 c 0
 385 422 370 432 338 435 c 1
 338 450 l 1
 477 450 l 1
EndSplineSet
EndChar
StartChar: w
Encoding: 119 119
Width: 722
Flags: MW
HStem: -14 20 430 20<21 201 201 201 262 465 465 465 571 694 694 694>
Fore
571 450 m 1
 694 450 l 1
 694 435 l 1
 674 428 671 423 653 381 c 1
 515 35 l 2
 499 -5 494 -14 487 -14 c 0
 481 -14 477 -8 463 29 c 2
 372 265 l 1
 260 25 l 2
 248 -1 240 -14 235 -14 c 0
 229 -14 221 0 209 30 c 2
 74 372 l 1
 52 423 44 433 21 435 c 1
 21 450 l 1
 201 450 l 1
 201 435 l 1
 167 431 155 423 155 402 c 0
 155 392 157 382 161 372 c 2
 260 111 l 1
 351 310 l 1
 345 328 338 347 331 366 c 0
 311 420 299 431 262 435 c 1
 262 450 l 1
 465 450 l 1
 465 435 l 1
 418 428 407 421 407 399 c 0
 407 386 407 386 424 340 c 2
 508 116 l 1
 598 338 l 2
 609 365 615 389 615 404 c 0
 615 421 605 428 571 435 c 1
 571 450 l 1
EndSplineSet
EndChar
StartChar: x
Encoding: 120 120
Width: 500
Flags: MW
HStem: 0 20 435 15<24 33>
Fore
278 0 m 1
 278 15 l 1
 311 17 318 21 318 39 c 0
 318 45 316 51 312 57 c 2
 221 197 l 1
 142 74 l 2
 129 54 122 39 122 33 c 0
 122 20 134 15 162 15 c 1
 162 0 l 1
 17 0 l 1
 17 15 l 1
 50 18 60 25 90 66 c 1
 204 231 l 1
 110 375 l 2
 79 422 63 435 33 435 c 2
 24 435 l 1
 24 450 l 1
 231 450 l 1
 231 435 l 1
 201 434 188 427 188 413 c 0
 188 400 206 366 234 324 c 2
 248 304 l 1
 261 324 273 342 278 348 c 0
 303 379 315 401 315 413 c 0
 315 427 305 433 275 435 c 1
 275 450 l 1
 433 450 l 1
 433 435 l 1
 401 434 371 418 352 391 c 2
 269 271 l 1
 397 75 l 1
 428 31 448 15 479 15 c 1
 479 0 l 1
 278 0 l 1
EndSplineSet
EndChar
StartChar: y
Encoding: 121 121
Width: 500
Flags: MW
HStem: -218 84 430 20<14 220 220 220 340 475 475 475>
Fore
475 450 m 1
 475 435 l 1
 451 432 440 422 427 390 c 1
 273 -18 l 2
 219 -162 171 -218 104 -218 c 0
 62 -218 30 -193 30 -160 c 0
 30 -136 50 -116 73 -116 c 0
 90 -116 107 -120 126 -127 c 0
 136 -132 145 -134 151 -134 c 0
 165 -134 187 -115 201 -89 c 0
 218 -59 241 4 241 19 c 0
 241 34 225 70 197 120 c 1
 182 150 l 1
 179 158 l 1
 65 404 l 2
 57 421 40 432 14 436 c 1
 14 450 l 1
 220 450 l 1
 220 435 l 1
 177 433 162 426 162 408 c 0
 162 397 166 384 172 370 c 2
 287 117 l 1
 384 393 l 1
 387 400 388 406 388 410 c 0
 388 426 372 435 340 435 c 1
 340 450 l 1
 475 450 l 1
EndSplineSet
EndChar
StartChar: z
Encoding: 122 122
Width: 444
Flags: MW
HStem: 0 30<134 272 272 297.5> 420 30<125 155 155 293>
Fore
418 135 m 5
 404 0 l 5
 27 0 l 5
 27 15 l 5
 293 420 l 5
 155 420 l 6
 95 420 80 405 71 332 c 5
 53 332 l 5
 56 450 l 5
 403 450 l 5
 403 435 l 5
 134 30 l 5
 272 30 l 6
 323 30 357 39 371 56 c 4
 384 73 390 89 400 139 c 5
 418 135 l 5
EndSplineSet
EndChar
StartChar: braceleft
Encoding: 123 123
Width: 480
Flags: MW
HStem: 660 20<350 350>
VStem: 185 74<-41 121 363 378 378 541 541 546>
Fore
350 -170 m 1
 350 -181 l 1
 284 -180 257 -174 229 -156 c 0
 201 -138 185 -97 185 -41 c 2
 185 136 l 2
 185 205 167 229 100 250 c 1
 167 270 185 293 185 363 c 2
 185 541 l 2
 185 598 200 637 229 655 c 0
 258 673 284 679 350 680 c 1
 350 669 l 1
 281 651 259 621 259 546 c 2
 259 378 l 2
 259 295 240 269 165 249 c 1
 240 230 259 204 259 121 c 2
 259 -47 l 2
 259 -122 281 -152 350 -170 c 1
EndSplineSet
EndChar
StartChar: bar
Encoding: 124 124
Width: 200
Flags: MW
HStem: -14 20 656 20<67 133 133 133>
VStem: 67 66<-14 676>
Fore
67 -14 m 1
 67 676 l 1
 133 676 l 1
 133 -14 l 1
 67 -14 l 1
EndSplineSet
EndChar
StartChar: braceright
Encoding: 125 125
Width: 480
Flags: MW
HStem: 660 20<130 130>
VStem: 221 74<-47 -42 -42 121 121 136 378 540>
Fore
130 669 m 1
 130 680 l 1
 197 679 223 673 251 655 c 0
 279 637 295 596 295 540 c 2
 295 363 l 2
 295 293 313 270 380 250 c 1
 313 229 295 206 295 136 c 2
 295 -42 l 2
 295 -99 280 -138 251 -156 c 0
 222 -174 196 -180 130 -181 c 1
 130 -170 l 1
 199 -152 221 -122 221 -47 c 2
 221 121 l 2
 221 204 240 230 315 250 c 1
 240 269 221 294 221 378 c 2
 221 546 l 2
 221 621 199 651 130 669 c 1
EndSplineSet
EndChar
StartChar: asciitilde
Encoding: 126 126
Width: 541
Flags: MW
HStem: 186 66<363.5 389.5> 254 66<152.5 178.5>
Fore
448 303 m 1
 502 271 l 1
 456 207 425 186 379 186 c 0
 334 186 316 193 227 240 c 0
 210 249 189 254 168 254 c 0
 137 254 120 242 94 203 c 1
 40 235 l 1
 86 299 117 320 163 320 c 0
 208 320 226 313 315 266 c 0
 332 257 353 252 374 252 c 0
 405 252 422 264 448 303 c 1
EndSplineSet
EndChar
StartChar: exclamdown
Encoding: 161 161
Width: 333
Flags: MW
HStem: -218 20 362 107<135 165>
Fore
144 282 m 1
 157 282 l 1
 166 174 l 2
 170 127 176 81 183 36 c 0
 195 -35 203 -106 203 -140 c 0
 203 -188 183 -218 150 -218 c 0
 116 -218 97 -190 97 -138 c 0
 97 -126 98 -113 99 -101 c 1
 144 282 l 1
151 469 m 0
 180 469 204 446 204 417 c 0
 204 387 180 362 150 362 c 0
 120 362 97 386 97 418 c 0
 97 448 119 469 151 469 c 0
EndSplineSet
EndChar
StartChar: cent
Encoding: 162 162
Width: 500
Flags: W
HStem: -9 73 0 20 430 30<225 274.5> 435 20<324 324>
VStem: 53 77<224 286.5>
Fore
403 579 m 1
 356 444 l 1
 404 425 431 395 431 360 c 0
 431 334 413 315 388 315 c 0
 363 315 348 328 330 367 c 1
 229 76 l 1
 253 67 268 64 288 64 c 0
 347 64 383 89 435 164 c 1
 448 156 l 1
 414 86 395 59 360 29 c 0
 332 5 295 -9 257 -9 c 0
 240 -9 225 -7 201 0 c 1
 152 -138 l 1
 118 -138 l 1
 169 12 l 1
 132 33 117 46 99 71 c 0
 70 111 53 165 53 219 c 0
 53 354 149 460 273 460 c 0
 287 460 300 459 324 455 c 1
 368 579 l 1
 403 579 l 1
198 98 m 1
 313 421 l 1
 295 428 283 430 266 430 c 0
 184 430 130 362 130 260 c 0
 130 188 149 143 198 98 c 1
EndSplineSet
EndChar
StartChar: sterling
Encoding: 163 163
Width: 500
Flags: W
HStem: -8 28<67 89> -7 83<323.5 346> 94 36<76 101> 328 45<23 130 223 344 223 223> 649 27<273 321.5>
VStem: 12 26<46 69> 123 85<492 513.5>
Fore
344 373 m 1
 344 328 l 1
 223 328 l 1
 223 301 l 1
 224 273 l 1
 224 238 223 233 199 111 c 1
 264 84 299 76 348 76 c 0
 394 76 429 91 461 125 c 0
 471 136 479 141 484 141 c 0
 488 141 490 139 490 136 c 0
 490 119 468 75 447 51 c 0
 415 14 370 -7 322 -7 c 0
 279 -7 246 7 178 54 c 1
 138 7 115 -8 80 -8 c 0
 39 -8 12 16 12 54 c 0
 12 100 49 130 103 130 c 0
 118 130 130 129 149 125 c 1
 152 133 153 139 153 146 c 0
 153 164 151 181 131 328 c 1
 23 328 l 1
 23 373 l 1
 130 373 l 1
 125 399 123 418 123 442 c 0
 123 585 199 676 318 676 c 0
 392 676 448 636 448 583 c 0
 448 552 427 530 398 530 c 0
 368 530 360 544 359 597 c 0
 358 632 340 649 303 649 c 0
 243 649 208 598 208 510 c 0
 208 474 211 441 219 373 c 1
 344 373 l 1
89 94 m 0
 56 94 38 81 38 57 c 0
 38 35 55 20 79 20 c 0
 99 20 111 26 125 43 c 0
 136 56 142 68 142 76 c 0
 142 84 113 94 89 94 c 0
EndSplineSet
EndChar
StartChar: currency
Encoding: 164 164
Width: 500
Flags: MW
HStem: 115 64<228 274.5> 481 64<226.5 275>
VStem: 35 68<306.5 354> 397 68<307 355.5>
Fore
-22 108 m 1
 76 204 l 1
 47 246 35 283 35 330 c 0
 35 378 47 416 76 456 c 1
 -22 554 l 1
 28 602 l 1
 124 506 l 1
 169 535 202 545 251 545 c 0
 299 545 337 533 376 506 c 1
 474 602 l 1
 522 554 l 1
 426 456 l 1
 455 413 465 380 465 331 c 0
 465 283 455 249 426 204 c 1
 522 108 l 1
 474 58 l 1
 376 156 l 1
 337 128 298 115 251 115 c 0
 205 115 166 128 124 156 c 1
 28 58 l 1
 -22 108 l 1
253 481 m 0
 169 481 103 414 103 330 c 0
 103 247 169 179 251 179 c 0
 332 179 397 246 397 331 c 0
 397 413 332 481 253 481 c 0
EndSplineSet
EndChar
StartChar: yen
Encoding: 165 165
Width: 500
Flags: MW
HStem: 0 19 182 40<16 190 275 448> 312 40<16 160 302 448> 643 19<317 331>
VStem: 190 85<120 182 222 298>
Fore
190 182 m 1
 16 182 l 1
 16 222 l 1
 190 222 l 1
 190 298 l 1
 183 312 l 1
 16 312 l 1
 16 352 l 1
 160 352 l 1
 65 525 l 2
 10 624 -7 640 -53 643 c 1
 -53 662 l 1
 190 662 l 1
 190 643 l 1
 143 642 125 634 125 614 c 0
 125 601 130 585 138 569 c 2
 256 348 l 1
 368 568 l 2
 377 585 382 602 382 612 c 0
 382 631 361 643 331 643 c 2
 317 643 l 1
 317 662 l 1
 512 662 l 1
 512 643 l 1
 461 632 431 605 394 536 c 1
 302 352 l 1
 448 352 l 1
 448 312 l 1
 282 312 l 1
 275 298 l 1
 275 222 l 1
 448 222 l 1
 448 182 l 1
 275 182 l 1
 275 109 l 2
 275 39 291 21 355 19 c 1
 355 0 l 1
 111 0 l 1
 111 19 l 1
 178 22 190 37 190 120 c 2
 190 182 l 1
EndSplineSet
EndChar
StartChar: brokenbar
Encoding: 166 166
Width: 200
Flags: MW
HStem: -14 20 656 20<67 133 133 133>
VStem: 67 66<-14 262 400 676>
Fore
67 -14 m 1
 67 262 l 1
 133 262 l 1
 133 -14 l 1
 67 -14 l 1
67 400 m 1
 67 676 l 1
 133 676 l 1
 133 400 l 1
 67 400 l 1
EndSplineSet
EndChar
StartChar: section
Encoding: 167 167
Width: 500
Flags: W
HStem: -148 21<224.5 269.5> 125 21<292 310 292 292> 383 22<171.5 188> 655 21<225.5 268>
VStem: 70 53<301 320> 110 56<571.5 590> 330 56<-59 -30.5> 374 52<210 225>
Fore
310 125 m 2
 292 125 l 1
 367 60 386 30 386 -21 c 0
 386 -97 329 -148 242 -148 c 0
 164 -148 104 -104 104 -48 c 0
 104 -17 127 6 158 6 c 0
 185 6 206 -12 206 -36 c 0
 206 -50 199 -63 183 -77 c 0
 176 -83 172 -88 172 -92 c 0
 172 -110 206 -127 243 -127 c 0
 296 -127 330 -97 330 -50 c 0
 330 -11 305 21 241 65 c 0
 119 149 70 213 70 286 c 0
 70 354 119 405 185 405 c 0
 191 405 200 405 210 404 c 1
 130 470 110 500 110 554 c 0
 110 626 166 676 249 676 c 0
 322 676 377 634 377 578 c 0
 377 545 358 525 326 525 c 0
 299 525 279 543 279 568 c 0
 279 584 289 600 305 612 c 0
 310 617 313 620 313 623 c 0
 313 641 285 655 251 655 c 0
 200 655 166 626 166 584 c 0
 166 559 180 530 200 513 c 2
 337 400 l 2
 395 352 426 298 426 245 c 0
 426 175 378 125 310 125 c 2
191 383 m 0
 152 383 123 355 123 316 c 0
 123 286 135 263 169 229 c 0
 229 169 267 146 305 146 c 0
 342 146 374 177 374 212 c 0
 374 238 355 271 321 305 c 0
 275 351 222 383 191 383 c 0
EndSplineSet
EndChar
StartChar: dieresis
Encoding: 168 168
Width: 333
Flags: MW
VStem: 18 99<559 585.5> 217 99<559 585.5>
Fore
66 622 m 0
 94 622 117 599 117 572 c 0
 117 545 94 523 66 523 c 0
 39 523 18 545 18 573 c 4
 18 599 41 622 66 622 c 0
265 622 m 0
 293 622 316 599 316 572 c 0
 316 545 293 523 265 523 c 0
 238 523 217 545 217 573 c 0
 217 599 240 622 265 622 c 0
EndSplineSet
EndChar
StartChar: copyright
Encoding: 169 169
Width: 760
Flags: MW
HStem: -14 42<302.5 459> 141 20<363 420.5> 512 20<361.5 427.5> 634 42<304.5 461>
VStem: 38 55<248 414> 190 77<281.5 391> 667 55<248.5 412.5>
Fore
531 247 m 1
 547 247 l 1
 530 171 l 2
 527 158 449 141 392 141 c 0
 271 141 190 217 190 331 c 0
 190 451 279 532 411 532 c 0
 444 532 483 524 517 510 c 0
 526 507 531 500 531 493 c 2
 531 423 l 1
 514 423 l 1
 505 482 469 512 406 512 c 0
 317 512 267 449 267 337 c 0
 267 226 319 161 407 161 c 0
 467 161 501 185 531 247 c 1
386 676 m 0
 571 676 722 521 722 330 c 0
 722 138 572 -14 381 -14 c 0
 190 -14 38 138 38 330 c 0
 38 525 190 676 386 676 c 0
385 634 m 0
 224 634 93 498 93 330 c 0
 93 166 224 28 381 28 c 0
 537 28 667 166 667 331 c 0
 667 494 537 634 385 634 c 0
EndSplineSet
EndChar
StartChar: ordfeminine
Encoding: 170 170
Width: 276
Flags: W
HStem: 394 47 430 20 648 28<110 132.5>
VStem: 4 63 16 60<623 628.5> 158 71<474 551 551 551>
Fore
270 442 m 1
 270 424 l 1
 247 401 233 394 211 394 c 0
 184 394 172 406 166 438 c 1
 133 408 105 394 75 394 c 0
 34 394 4 422 4 462 c 0
 4 482 13 502 26 513 c 0
 53 536 66 543 157 576 c 1
 157 606 l 2
 157 633 144 648 121 648 c 0
 99 648 76 636 76 625 c 0
 76 621 77 616 78 611 c 0
 79 608 79 605 79 603 c 0
 79 590 64 578 48 578 c 0
 30 578 16 592 16 609 c 0
 16 648 62 676 124 676 c 0
 194 676 229 644 229 580 c 2
 229 465 l 2
 229 436 231 430 242 430 c 0
 252 430 260 434 270 442 c 1
158 474 m 2
 158 551 l 1
 88 526 67 511 67 485 c 0
 67 461 84 441 105 441 c 0
 118 441 130 444 147 452 c 1
 155 459 158 466 158 474 c 2
EndSplineSet
EndChar
StartChar: guillemotleft
Encoding: 171 171
Width: 500
Flags: W
Fore
42 222 m 1
 107 281 l 1
 113 285 118 290 123 295 c 2
 126 297 l 2
 134 304 141 311 150 318 c 0
 179 344 206 371 210 377 c 0
 227 398 248 416 254 416 c 0
 259 416 264 411 264 406 c 0
 264 393 239 353 210 317 c 0
 173 273 158 255 135 224 c 1
 141 215 142 215 145 211 c 0
 222 114 263 55 263 42 c 0
 263 37 259 33 254 33 c 0
 249 33 247 34 243 39 c 1
 186 95 145 133 73 195 c 2
 42 222 l 1
234 222 m 1
 299 281 l 1
 305 285 310 290 315 295 c 2
 318 297 l 2
 326 304 333 311 342 318 c 0
 371 344 398 371 402 377 c 0
 419 398 440 416 446 416 c 0
 451 416 456 411 456 406 c 0
 456 393 431 353 402 317 c 0
 365 273 350 255 327 224 c 1
 333 215 334 215 337 211 c 0
 414 114 455 55 455 42 c 0
 455 37 451 33 446 33 c 0
 441 33 439 34 435 39 c 1
 378 95 337 133 265 195 c 2
 234 222 l 1
EndSplineSet
EndChar
StartChar: logicalnot
Encoding: 172 172
Width: 564
Flags: MW
HStem: 320 66<30 468>
VStem: 468 66<108 320 320 320>
Fore
468 108 m 1
 468 320 l 1
 30 320 l 1
 30 386 l 1
 534 386 l 1
 534 108 l 1
 468 108 l 1
EndSplineSet
EndChar
StartChar: registered
Encoding: 174 174
Width: 760
Flags: MW
HStem: -14 42<302.5 458> 314 19<332 375 375 380> 501 19<332 332 332 373> 634 42<302.5 460>
VStem: 38 55<248 413> 268 64<215 314 333 456 456 478> 444 67<404 448> 667 55<246 411.5>
Fore
219 505 m 1
 219 520 l 1
 396 520 l 2
 466 520 511 484 511 428 c 0
 511 380 484 345 432 324 c 1
 489 245 l 2
 517 206 541 180 565 160 c 1
 565 152 l 1
 501 152 l 2
 484 152 460 180 432 231 c 0
 421 251 417 258 380 314 c 1
 332 314 l 1
 332 215 l 2
 332 172 332 172 381 167 c 1
 381 152 l 1
 219 152 l 1
 219 167 l 1
 268 172 268 172 268 215 c 2
 268 456 l 2
 268 500 268 500 219 505 c 1
332 501 m 1
 332 333 l 1
 375 333 l 2
 419 333 444 365 444 422 c 0
 444 474 420 501 373 501 c 2
 332 501 l 1
381 676 m 0
 573 676 722 523 722 325 c 0
 722 138 569 -14 381 -14 c 0
 190 -14 38 138 38 330 c 0
 38 523 190 676 381 676 c 0
381 634 m 0
 224 634 93 496 93 330 c 0
 93 166 224 28 381 28 c 0
 535 28 667 166 667 326 c 0
 667 497 539 634 381 634 c 0
EndSplineSet
EndChar
StartChar: macron
Encoding: 175 175
Width: 333
Flags: MW
HStem: 547 54<11 322>
Fore
11 601 m 1
 322 601 l 1
 322 547 l 1
 11 547 l 1
 11 601 l 1
EndSplineSet
EndChar
StartChar: degree
Encoding: 176 176
Width: 400
Flags: MW
HStem: 390 34<171 228> 642 34<171.5 228>
VStem: 57 39<503.5 562.5> 304 39<503 562.5>
Fore
200 676 m 0
 280 676 343 613 343 532 c 0
 343 452 279 390 198 390 c 0
 120 390 57 454 57 533 c 0
 57 613 120 676 200 676 c 0
200 642 m 0
 143 642 96 592 96 533 c 0
 96 474 143 424 199 424 c 0
 257 424 304 473 304 533 c 0
 304 592 256 642 200 642 c 0
EndSplineSet
EndChar
StartChar: plusminus
Encoding: 177 177
Width: 564
Flags: MW
HStem: 0 66<30 534> 282 66<30 249 315 534>
VStem: 249 66<122 282 348 568>
Fore
30 0 m 1
 30 66 l 1
 534 66 l 1
 534 0 l 1
 30 0 l 1
249 348 m 1
 249 568 l 1
 315 568 l 1
 315 348 l 1
 534 348 l 1
 534 282 l 1
 315 282 l 1
 315 122 l 1
 249 122 l 1
 249 282 l 1
 30 282 l 1
 30 348 l 1
 249 348 l 1
EndSplineSet
EndChar
StartChar: twosuperior
Encoding: 178 178
Width: 300
Flags: MW
HStem: 270 65<107 228 228 241.5> 613 63<126 132>
VStem: 185 92<545.5 558>
Fore
296 355 m 1
 259 270 l 1
 6 270 l 1
 6 293 l 1
 104 400 l 2
 154 454 185 507 185 537 c 0
 185 579 152 613 112 613 c 0
 75 613 48 591 26 543 c 1
 1 557 l 1
 17 603 27 622 48 641 c 1
 71 664 106 676 146 676 c 0
 224 676 277 633 277 570 c 0
 277 521 254 480 193 420 c 2
 107 335 l 1
 228 335 l 2
 255 335 264 340 279 362 c 1
 296 355 l 1
EndSplineSet
EndChar
StartChar: threesuperior
Encoding: 179 179
Width: 300
Flags: W
HStem: 262 48<132.5 152.5> 620 56<125.5 148>
VStem: 188 76<579 586.5> 210 81<359 393.5>
Fore
93 460 m 1
 93 489 l 1
 162 513 188 535 188 571 c 0
 188 602 166 620 130 620 c 0
 96 620 76 606 46 563 c 1
 21 581 l 1
 56 649 95 676 156 676 c 0
 216 676 264 639 264 593 c 0
 264 565 247 542 204 511 c 1
 262 488 291 450 291 398 c 0
 291 320 208 262 97 262 c 0
 45 262 14 280 14 312 c 0
 14 333 29 349 49 349 c 0
 60 349 71 344 90 330 c 0
 112 314 123 310 142 310 c 0
 183 310 210 337 210 378 c 0
 210 409 196 434 169 449 c 0
 153 458 128 465 116 463 c 2
 93 460 l 1
EndSplineSet
EndChar
StartChar: acute
Encoding: 180 180
Width: 333
Flags: MW
HStem: 658 20<274.5 293>
Fore
133 507 m 1
 93 507 l 1
 240 655 l 2
 258 673 267 678 282 678 c 0
 304 678 317 666 317 646 c 0
 317 630 308 617 287 604 c 2
 133 507 l 1
EndSplineSet
EndChar
StartChar: mu
Encoding: 181 181
Width: 500
Flags: W
HStem: -218 20 -10 62<206 235.5> -10 37 430 20<60 148 148 148 342 430 430 430>
VStem: 60 88<115.5 144 144 450> 342 88<115 450>
Fore
430 450 m 1
 430 92 l 2
 430 46 440 27 462 27 c 0
 477 27 489 34 512 55 c 1
 512 47 l 1
 479 4 456 -10 418 -10 c 0
 370 -10 347 18 345 80 c 1
 305 18 263 -10 208 -10 c 0
 157 -10 121 13 91 64 c 1
 95 27 97 17 110 -33 c 0
 123 -85 128 -113 128 -141 c 0
 128 -192 113 -218 82 -218 c 0
 53 -218 36 -192 36 -148 c 0
 36 -127 41 -83 48 -43 c 0
 58 13 60 32 60 54 c 2
 60 450 l 1
 148 450 l 1
 148 144 l 2
 148 87 180 52 232 52 c 0
 278 52 318 75 342 115 c 1
 342 450 l 1
 430 450 l 1
EndSplineSet
EndChar
StartChar: paragraph
Encoding: 182 182
Width: 453
Flags: W
HStem: 640 22<238 238 238 296> 643 19
VStem: -22 76<436.5 516.5> 172 66<-31 273 273 273 295 640> 296 66<-77.5 -42 -42 553>
Fore
238 640 m 1
 238 -154 l 1
 84 -154 l 1
 84 -132 l 1
 162 -127 172 -115 172 -31 c 2
 172 273 l 1
 109 275 81 283 48 307 c 0
 1 339 -22 396 -22 477 c 0
 -22 607 40 662 187 662 c 2
 450 662 l 1
 450 643 l 1
 373 636 362 625 362 553 c 2
 362 -42 l 2
 362 -113 374 -126 450 -132 c 1
 450 -154 l 1
 296 -154 l 1
 296 640 l 1
 238 640 l 1
172 295 m 1
 172 640 l 1
 132 637 115 631 97 618 c 0
 68 597 54 552 54 481 c 0
 54 355 86 304 172 295 c 1
EndSplineSet
EndChar
StartChar: periodcentered
Encoding: 183 183
Width: 250
Flags: W
Fore
125 310 m 4
 155 310 181 284 181 253 c 4
 181 224 155 199 124 199 c 4
 95 199 70 224 70 253 c 4
 70 284 95 310 125 310 c 4
EndSplineSet
EndChar
StartChar: cedilla
Encoding: 184 184
Width: 333
Flags: MW
HStem: -215 35<120.5 148> -100 38
VStem: 186 75<-149.5 -123>
Fore
98 -99 m 1
 139 0 l 1
 174 0 l 1
 149 -65 l 1
 159 -63 165 -62 175 -62 c 0
 229 -62 261 -88 261 -131 c 0
 261 -183 213 -215 136 -215 c 0
 104 -215 81 -211 52 -199 c 1
 66 -168 l 1
 94 -177 110 -180 131 -180 c 0
 165 -180 186 -163 186 -136 c 0
 186 -110 171 -100 133 -100 c 0
 122 -100 113 -101 105 -104 c 1
 98 -99 l 1
EndSplineSet
EndChar
StartChar: onesuperior
Encoding: 185 185
Width: 300
Flags: MW
HStem: 656 20<177 177>
VStem: 110 81<326 330 330 583 583 594>
Fore
248 294 m 1
 248 270 l 1
 57 270 l 1
 57 294 l 1
 100 297 110 303 110 326 c 2
 110 583 l 2
 110 605 108 611 102 611 c 0
 96 611 96 611 59 598 c 1
 59 621 l 1
 177 676 l 1
 191 673 l 1
 191 330 l 2
 191 304 202 297 248 294 c 1
EndSplineSet
EndChar
StartChar: ordmasculine
Encoding: 186 186
Width: 310
Flags: MW
HStem: 394 33<147.5 183> 643 33<128.5 174>
VStem: 6 73<549.5 575.5> 231 73<500 551.5>
Fore
159 676 m 0
 244 676 304 621 304 542 c 0
 304 458 238 394 151 394 c 0
 67 394 6 453 6 533 c 0
 6 618 68 676 159 676 c 0
150 643 m 0
 107 643 79 614 79 569 c 0
 79 530 88 490 104 461 c 0
 116 439 135 427 160 427 c 0
 206 427 231 458 231 514 c 0
 231 589 198 643 150 643 c 0
EndSplineSet
EndChar
StartChar: guillemotright
Encoding: 187 187
Width: 500
Flags: W
Fore
458 222 m 1
 427 195 l 2
 354 132 314 95 257 39 c 1
 253 34 251 33 247 33 c 0
 241 33 237 37 237 42 c 0
 237 54 280 116 355 211 c 2
 361 218 l 1
 365 224 l 1
 343 252 334 264 290 317 c 0
 261 352 236 393 236 406 c 0
 236 411 241 416 246 416 c 0
 252 416 273 398 290 377 c 1
 292 372 321 344 351 318 c 0
 360 309 368 302 374 297 c 2
 377 295 l 2
 382 290 387 285 393 281 c 1
 458 222 l 1
266 222 m 1
 235 195 l 2
 162 132 122 95 65 39 c 1
 61 34 59 33 55 33 c 0
 49 33 45 37 45 42 c 0
 45 54 88 116 163 211 c 2
 169 218 l 1
 173 224 l 1
 151 252 142 264 98 317 c 0
 69 352 44 393 44 406 c 0
 44 411 49 416 54 416 c 0
 60 416 81 398 98 377 c 1
 100 372 129 344 159 318 c 0
 168 309 176 302 182 297 c 2
 185 295 l 2
 190 290 195 285 201 281 c 1
 266 222 l 1
EndSplineSet
EndChar
StartChar: onequarter
Encoding: 188 188
Width: 750
Flags: MW
HStem: -14 20 90 57<458 593 663 718> 656 20<157 157 591 637 637 637>
VStem: 90 81<326 330 330 583 583 594> 593 70<0 90 147 326 326 326>
Fore
718 147 m 1
 718 90 l 1
 663 90 l 1
 663 0 l 1
 593 0 l 1
 593 90 l 1
 413 90 l 1
 413 139 l 1
 616 405 l 1
 663 405 l 1
 663 147 l 1
 718 147 l 1
593 147 m 1
 593 326 l 1
 458 147 l 1
 593 147 l 1
637 676 m 1
 187 -14 l 1
 138 -14 l 1
 591 676 l 1
 637 676 l 1
228 294 m 1
 228 270 l 1
 37 270 l 1
 37 294 l 1
 80 297 90 303 90 326 c 2
 90 583 l 2
 90 605 88 611 82 611 c 0
 76 611 76 611 39 598 c 1
 39 621 l 1
 157 676 l 1
 171 673 l 1
 171 330 l 2
 171 304 182 297 228 294 c 1
EndSplineSet
EndChar
StartChar: onehalf
Encoding: 189 189
Width: 750
Flags: W
HStem: -14 20 0 65<557 678 678 691.5> 343 63<576 582> 656 20<151 151 554 600 600 600>
VStem: 84 81<326 330 330 583 583 594> 635 92<275.5 288>
Fore
600 676 m 1
 150 -14 l 1
 101 -14 l 1
 554 676 l 1
 600 676 l 1
222 294 m 1
 222 270 l 1
 31 270 l 1
 31 294 l 1
 74 297 84 303 84 326 c 2
 84 583 l 2
 84 605 82 611 76 611 c 0
 70 611 70 611 33 598 c 1
 33 621 l 1
 151 676 l 1
 165 673 l 1
 165 330 l 2
 165 304 176 297 222 294 c 1
746 85 m 1
 709 0 l 1
 456 0 l 1
 456 23 l 1
 554 130 l 2
 604 184 635 237 635 267 c 0
 635 309 602 343 562 343 c 0
 525 343 498 321 476 273 c 1
 451 287 l 1
 467 333 477 352 498 371 c 1
 521 394 556 406 596 406 c 0
 674 406 727 363 727 300 c 0
 727 251 704 210 643 150 c 2
 557 65 l 1
 678 65 l 2
 705 65 714 70 729 92 c 1
 746 85 l 1
EndSplineSet
EndChar
StartChar: threequarters
Encoding: 190 190
Width: 750
Flags: W
HStem: -14 20 90 57<458 593 663 718> 262 48<133.5 153.5> 620 56<127 151>
VStem: 190 76<579 586> 211 81<359 393.5> 593 70<0 90 147 326 326 326>
Fore
718 147 m 1
 718 90 l 1
 663 90 l 1
 663 0 l 1
 593 0 l 1
 593 90 l 1
 413 90 l 1
 413 139 l 1
 616 405 l 1
 663 405 l 1
 663 147 l 1
 718 147 l 1
593 147 m 1
 593 326 l 1
 458 147 l 1
 593 147 l 1
637 676 m 1
 187 -14 l 1
 138 -14 l 1
 591 676 l 1
 637 676 l 1
94 460 m 1
 94 489 l 1
 164 513 190 535 190 571 c 0
 190 601 168 620 134 620 c 0
 97 620 78 607 46 563 c 1
 21 581 l 1
 57 649 96 676 158 676 c 0
 218 676 266 639 266 593 c 0
 266 565 249 542 205 511 c 1
 263 488 292 450 292 398 c 0
 292 320 209 262 98 262 c 0
 46 262 15 280 15 312 c 0
 15 333 30 349 50 349 c 0
 61 349 73 344 91 330 c 0
 113 314 124 310 143 310 c 0
 184 310 211 337 211 378 c 0
 211 409 197 434 170 449 c 0
 154 458 129 465 117 463 c 2
 94 460 l 1
EndSplineSet
EndChar
StartChar: questiondown
Encoding: 191 191
Width: 444
Flags: MW
HStem: -218 30<200 254> -11 20 361 107<192 221.5>
VStem: 30 92<-82 -45> 154 107<401 430.5> 325 51
Fore
200 294 m 1
 217 294 l 1
 216 250 206 200 187 152 c 1
 159 88 l 2
 135 33 122 -22 122 -68 c 0
 122 -135 170 -188 230 -188 c 0
 278 -188 325 -158 325 -126 c 0
 325 -118 320 -109 308 -95 c 0
 293 -78 287 -66 287 -52 c 0
 287 -28 303 -11 328 -11 c 0
 359 -11 376 -33 376 -73 c 0
 376 -156 306 -218 214 -218 c 0
 160 -218 101 -195 66 -160 c 0
 43 -137 30 -101 30 -63 c 0
 30 -12 54 42 105 104 c 0
 168 178 186 213 200 294 c 1
208 468 m 0
 237 468 261 445 261 416 c 0
 261 386 236 361 207 361 c 0
 177 361 154 385 154 417 c 0
 154 447 176 468 208 468 c 0
EndSplineSet
EndChar
StartChar: Agrave
Encoding: 192 192
Width: 722
Flags: MW
HStem: 0 20 216 41<216 447> 654 20<347 367 367 367>
Fore
706 19 m 1
 706 0 l 1
 451 0 l 1
 451 19 l 1
 504 20 521 28 521 53 c 0
 521 67 514 93 502 120 c 2
 461 216 l 1
 199 216 l 1
 153 99 l 2
 148 86 145 72 145 60 c 0
 145 32 165 19 213 19 c 1
 213 0 l 1
 15 0 l 1
 15 19 l 1
 63 21 75 37 139 183 c 1
 347 674 l 1
 367 674 l 1
 616 106 l 1
 651 32 661 22 706 19 c 1
216 257 m 1
 447 257 l 1
 331 532 l 1
 216 257 l 1
437 719 m 1
 397 719 l 1
 243 816 l 2
 225 828 214 843 214 859 c 0
 214 878 227 890 248 890 c 0
 263 890 272 885 290 867 c 2
 437 719 l 1
EndSplineSet
EndChar
StartChar: Aacute
Encoding: 193 193
Width: 722
Flags: MW
HStem: 0 20 216 41<216 447> 654 20<347 367 367 367>
Fore
706 19 m 1
 706 0 l 1
 451 0 l 1
 451 19 l 1
 504 20 521 28 521 53 c 0
 521 67 514 93 502 120 c 2
 461 216 l 1
 199 216 l 1
 153 99 l 2
 148 86 145 72 145 60 c 0
 145 32 165 19 213 19 c 1
 213 0 l 1
 15 0 l 1
 15 19 l 1
 63 21 75 37 139 183 c 1
 347 674 l 1
 367 674 l 1
 616 106 l 1
 651 32 661 22 706 19 c 1
216 257 m 1
 447 257 l 1
 331 532 l 1
 216 257 l 1
323 719 m 1
 283 719 l 1
 430 867 l 2
 448 885 457 890 472 890 c 0
 494 890 507 878 507 858 c 0
 507 842 498 829 477 816 c 2
 323 719 l 1
EndSplineSet
EndChar
StartChar: Acircumflex
Encoding: 194 194
Width: 722
Flags: MW
HStem: 0 20 216 41<216 447> 654 20<347 367 367 367>
Fore
706 19 m 1
 706 0 l 1
 451 0 l 1
 451 19 l 1
 504 20 521 28 521 53 c 0
 521 67 514 93 502 120 c 2
 461 216 l 1
 199 216 l 1
 153 99 l 2
 148 86 145 72 145 60 c 0
 145 32 165 19 213 19 c 1
 213 0 l 1
 15 0 l 1
 15 19 l 1
 63 21 75 37 139 183 c 1
 347 674 l 1
 367 674 l 1
 616 106 l 1
 651 32 661 22 706 19 c 1
216 257 m 1
 447 257 l 1
 331 532 l 1
 216 257 l 1
512 719 m 1
 478 719 l 1
 356 822 l 5
 235 719 l 1
 201 719 l 1
 325 886 l 1
 387 886 l 1
 512 719 l 1
EndSplineSet
EndChar
StartChar: Atilde
Encoding: 195 195
Width: 722
Flags: W
HStem: 0 20 216 41<216 447> 654 20<347 367 367 367> 744 56<436.5 448.5> 790 55<272 282>
Fore
706 19 m 1
 706 0 l 1
 451 0 l 1
 451 19 l 1
 504 20 521 28 521 53 c 0
 521 67 514 93 502 120 c 2
 461 216 l 1
 199 216 l 1
 153 99 l 2
 148 86 145 72 145 60 c 0
 145 32 165 19 213 19 c 1
 213 0 l 1
 15 0 l 1
 15 19 l 1
 63 21 75 37 139 183 c 1
 347 674 l 1
 367 674 l 1
 616 106 l 1
 651 32 661 22 706 19 c 1
216 257 m 1
 447 257 l 1
 331 532 l 1
 216 257 l 1
497 850 m 1
 526 850 l 1
 505 774 476 744 421 744 c 0
 396 744 381 748 340 768 c 2
 317 779 l 2
 302 786 288 790 276 790 c 0
 253 790 236 775 225 744 c 1
 196 744 l 1
 211 809 247 845 297 845 c 0
 319 845 344 839 367 827 c 2
 391 815 l 2
 410 806 429 800 444 800 c 0
 467 800 480 812 497 850 c 1
EndSplineSet
EndChar
StartChar: Adieresis
Encoding: 196 196
Width: 722
Flags: W
HStem: 0 20 216 41<216 447> 654 20<347 367 367 367>
VStem: 15 99 214 99
Fore
706 19 m 1
 706 0 l 1
 451 0 l 1
 451 19 l 1
 504 20 521 28 521 53 c 0
 521 67 514 93 502 120 c 2
 461 216 l 1
 199 216 l 1
 153 99 l 2
 148 86 145 72 145 60 c 0
 145 32 165 19 213 19 c 1
 213 0 l 1
 15 0 l 1
 15 19 l 1
 63 21 75 37 139 183 c 1
 347 674 l 1
 367 674 l 1
 616 106 l 1
 651 32 661 22 706 19 c 1
216 257 m 1
 447 257 l 1
 331 532 l 1
 216 257 l 1
254 834 m 0
 282 834 305 811 305 784 c 0
 305 757 282 735 254 735 c 0
 227 735 206 757 206 785 c 4
 206 811 229 834 254 834 c 0
453 834 m 0
 481 834 504 811 504 784 c 0
 504 757 481 735 453 735 c 0
 426 735 405 757 405 785 c 0
 405 811 428 834 453 834 c 0
EndSplineSet
EndChar
StartChar: Aring
Encoding: 197 197
Width: 722
Flags: W
HStem: 0 20 216 41<216 447> 654 20<347 367 367 367> 724 34 889 34
VStem: 15 34 180 34
Fore
706 19 m 1
 706 0 l 1
 451 0 l 1
 451 19 l 1
 504 20 521 28 521 53 c 0
 521 67 514 93 502 120 c 2
 461 216 l 1
 199 216 l 1
 153 99 l 2
 148 86 145 72 145 60 c 0
 145 32 165 19 213 19 c 1
 213 0 l 1
 15 0 l 1
 15 19 l 1
 63 21 75 37 139 183 c 1
 347 674 l 1
 367 674 l 1
 616 106 l 1
 651 32 661 22 706 19 c 1
216 257 m 1
 447 257 l 1
 331 532 l 1
 216 257 l 1
351 915 m 0
 406 915 451 870 451 815 c 0
 451 760 406 716 351 716 c 0
 295 716 252 760 252 816 c 0
 252 870 297 915 351 915 c 0
352 881 m 0
 316 881 286 852 286 816 c 0
 286 780 315 750 350 750 c 0
 387 750 417 779 417 815 c 0
 417 851 387 881 352 881 c 0
EndSplineSet
EndChar
StartChar: AE
Encoding: 198 198
Width: 889
Flags: W
HStem: 0 19<198 199> 0 38<566 642 642 696> 0 19 0 38 260 39<239 398> 329 37<497 608 608 639.5> 626 36<514.5 524 524 611>
VStem: 398 99<108 260 260 260 299 329 366 596>
Fore
816 521 m 1
 793 521 l 1
 780 612 757 626 611 626 c 2
 524 626 l 6
 505 626 497 618 497 596 c 2
 497 366 l 1
 608 366 l 2
 671 366 706 375 722 396 c 0
 732 411 736 426 740 463 c 1
 761 463 l 1
 761 229 l 1
 740 229 l 1
 735 270 731 285 720 301 c 0
 707 319 680 329 642 329 c 2
 497 329 l 1
 497 91 l 2
 497 41 501 38 566 38 c 2
 642 38 l 2
 750 38 781 58 839 168 c 1
 863 168 l 1
 819 0 l 1
 309 0 l 1
 309 19 l 1
 326 21 l 2
 386 28 398 42 398 108 c 2
 398 260 l 1
 222 260 l 1
 194 207 l 2
 154 129 130 71 130 49 c 0
 130 34 155 23 198 19 c 2
 199 19 l 1
 199 0 l 1
 0 0 l 1
 0 19 l 1
 43 25 55 36 88 97 c 1
 333 581 l 2
 339 592 342 603 342 609 c 0
 342 631 317 640 252 642 c 1
 252 662 l 1
 816 662 l 1
 816 521 l 1
239 299 m 1
 398 299 l 1
 398 618 l 1
 239 299 l 1
EndSplineSet
EndChar
StartChar: Ccedilla
Encoding: 199 199
Width: 667
Flags: W
HStem: -215 35<287.5 315> -100 38 -14 44<360.5 416.5> -13 20 636 40<322 386.5>
VStem: 28 116<282.5 380> 353 75<-149.5 -123>
Fore
336 -13 m 1
 316 -65 l 1
 326 -63 332 -62 342 -62 c 0
 396 -62 428 -88 428 -131 c 0
 428 -183 380 -215 303 -215 c 0
 271 -215 248 -211 219 -199 c 1
 233 -168 l 1
 261 -177 277 -180 298 -180 c 0
 332 -180 353 -163 353 -136 c 0
 353 -110 338 -100 300 -100 c 0
 289 -100 280 -101 272 -104 c 1
 265 -99 l 1
 302 -10 l 1
 135 14 28 144 28 325 c 0
 28 435 66 528 136 590 c 0
 198 645 281 676 363 676 c 0
 410 676 460 668 509 652 c 0
 524 646 539 643 548 643 c 0
 568 643 584 655 590 676 c 1
 611 676 l 1
 620 450 l 1
 597 450 l 1
 578 515 563 543 531 575 c 0
 491 615 439 636 382 636 c 0
 237 636 144 519 144 338 c 0
 144 227 175 137 230 88 c 0
 273 50 329 30 392 30 c 0
 475 30 541 60 615 131 c 1
 633 113 l 1
 573 32 473 -14 360 -14 c 0
 352 -14 345 -14 336 -13 c 1
EndSplineSet
EndChar
StartChar: Egrave
Encoding: 200 200
Width: 611
Flags: W
HStem: 0 37<306 333 333 404.5> 0 19 0 37 327 41<201 355> 624 38<220.5 234 234 369> 643 19
VStem: 99 102<109 327 368 553 553 588>
Fore
597 169 m 1
 552 0 l 1
 12 0 l 1
 12 19 l 1
 85 24 99 39 99 109 c 2
 99 553 l 2
 99 623 86 637 12 643 c 1
 12 662 l 1
 543 662 l 1
 546 519 l 1
 521 519 l 1
 504 609 482 624 369 624 c 2
 234 624 l 2
 207 624 201 618 201 590 c 2
 201 368 l 1
 355 368 l 2
 402 368 430 376 443 393 c 0
 454 407 458 422 465 463 c 1
 488 463 l 1
 488 231 l 1
 465 231 l 1
 452 314 437 327 355 327 c 2
 201 327 l 1
 201 80 l 2
 201 63 203 52 208 49 c 1
 215 42 257 37 306 37 c 2
 333 37 l 2
 476 37 519 61 569 169 c 1
 597 169 l 1
381 719 m 1
 341 719 l 1
 187 816 l 2
 169 828 158 843 158 859 c 0
 158 878 171 890 192 890 c 0
 207 890 216 885 234 867 c 2
 381 719 l 1
EndSplineSet
EndChar
StartChar: Eacute
Encoding: 201 201
Width: 611
Flags: W
HStem: 0 37<306 333 333 404.5> 0 19 0 37 327 41<201 355> 624 38<220.5 234 234 369> 643 19
VStem: 99 102<109 327 368 553 553 588>
Fore
597 169 m 1
 552 0 l 1
 12 0 l 1
 12 19 l 1
 85 24 99 39 99 109 c 2
 99 553 l 2
 99 623 86 637 12 643 c 1
 12 662 l 1
 543 662 l 1
 546 519 l 1
 521 519 l 1
 504 609 482 624 369 624 c 2
 234 624 l 2
 207 624 201 618 201 590 c 2
 201 368 l 1
 355 368 l 2
 402 368 430 376 443 393 c 0
 454 407 458 422 465 463 c 1
 488 463 l 1
 488 231 l 1
 465 231 l 1
 452 314 437 327 355 327 c 2
 201 327 l 1
 201 80 l 2
 201 63 203 52 208 49 c 1
 215 42 257 37 306 37 c 2
 333 37 l 2
 476 37 519 61 569 169 c 1
 597 169 l 1
273 719 m 5
 233 719 l 5
 380 867 l 6
 398 885 407 890 422 890 c 4
 444 890 457 878 457 858 c 4
 457 842 448 829 427 816 c 6
 273 719 l 5
EndSplineSet
EndChar
StartChar: Ecircumflex
Encoding: 202 202
Width: 611
Flags: W
HStem: 0 37<306 333 333 404.5> 0 19 0 37 327 41<201 355> 624 38<220.5 234 234 369> 643 19
VStem: 99 102<109 327 368 553 553 588>
Fore
597 169 m 1
 552 0 l 1
 12 0 l 1
 12 19 l 1
 85 24 99 39 99 109 c 2
 99 553 l 2
 99 623 86 637 12 643 c 1
 12 662 l 1
 543 662 l 1
 546 519 l 1
 521 519 l 1
 504 609 482 624 369 624 c 2
 234 624 l 2
 207 624 201 618 201 590 c 2
 201 368 l 1
 355 368 l 2
 402 368 430 376 443 393 c 0
 454 407 458 422 465 463 c 1
 488 463 l 1
 488 231 l 1
 465 231 l 1
 452 314 437 327 355 327 c 2
 201 327 l 1
 201 80 l 2
 201 63 203 52 208 49 c 1
 215 42 257 37 306 37 c 2
 333 37 l 2
 476 37 519 61 569 169 c 1
 597 169 l 1
462 719 m 1
 428 719 l 1
 306 822 l 5
 185 719 l 1
 151 719 l 1
 275 886 l 1
 337 886 l 1
 462 719 l 1
EndSplineSet
EndChar
StartChar: Edieresis
Encoding: 203 203
Width: 611
Flags: W
HStem: 0 37<306 333 333 404.5> 0 19 0 37 327 41<201 355> 624 38<220.5 234 234 369> 643 19
VStem: 12 99 99 102<109 327 368 553 553 588> 211 99
Fore
597 169 m 1
 552 0 l 1
 12 0 l 1
 12 19 l 1
 85 24 99 39 99 109 c 2
 99 553 l 2
 99 623 86 637 12 643 c 1
 12 662 l 1
 543 662 l 1
 546 519 l 1
 521 519 l 1
 504 609 482 624 369 624 c 2
 234 624 l 2
 207 624 201 618 201 590 c 2
 201 368 l 1
 355 368 l 2
 402 368 430 376 443 393 c 0
 454 407 458 422 465 463 c 1
 488 463 l 1
 488 231 l 1
 465 231 l 1
 452 314 437 327 355 327 c 2
 201 327 l 1
 201 80 l 2
 201 63 203 52 208 49 c 1
 215 42 257 37 306 37 c 2
 333 37 l 2
 476 37 519 61 569 169 c 1
 597 169 l 1
205 834 m 4
 233 834 256 811 256 784 c 4
 256 757 233 735 205 735 c 4
 178 735 157 757 157 785 c 4
 157 811 180 834 205 834 c 4
404 834 m 4
 432 834 455 811 455 784 c 4
 455 757 432 735 404 735 c 4
 377 735 356 757 356 785 c 4
 356 811 379 834 404 834 c 4
EndSplineSet
EndChar
StartChar: Igrave
Encoding: 204 204
Width: 333
Flags: MW
HStem: 0 19 643 19
VStem: 115 102<109 553>
Fore
115 109 m 2
 115 553 l 2
 115 627 103 638 18 643 c 1
 18 662 l 1
 315 662 l 1
 315 643 l 1
 231 639 217 626 217 553 c 2
 217 109 l 2
 217 36 233 22 315 19 c 1
 315 0 l 1
 18 0 l 1
 18 19 l 1
 102 22 115 34 115 109 c 2
242 719 m 1
 202 719 l 1
 48 816 l 2
 30 828 19 843 19 859 c 0
 19 878 32 890 53 890 c 0
 68 890 77 885 95 867 c 2
 242 719 l 1
EndSplineSet
EndChar
StartChar: Iacute
Encoding: 205 205
Width: 333
Flags: MW
HStem: 0 19 643 19
VStem: 115 102<109 553>
Fore
115 109 m 2
 115 553 l 2
 115 627 103 638 18 643 c 1
 18 662 l 1
 315 662 l 1
 315 643 l 1
 231 639 217 626 217 553 c 2
 217 109 l 2
 217 36 233 22 315 19 c 1
 315 0 l 1
 18 0 l 1
 18 19 l 1
 102 22 115 34 115 109 c 2
133 719 m 1
 93 719 l 1
 240 867 l 2
 258 885 267 890 282 890 c 0
 304 890 317 878 317 858 c 0
 317 842 308 829 287 816 c 2
 133 719 l 1
EndSplineSet
EndChar
StartChar: Icircumflex
Encoding: 206 206
Width: 333
Flags: MW
HStem: 0 19 643 19
VStem: 115 102<109 553>
Fore
115 109 m 2
 115 553 l 2
 115 627 103 638 18 643 c 1
 18 662 l 1
 315 662 l 1
 315 643 l 1
 231 639 217 626 217 553 c 2
 217 109 l 2
 217 36 233 22 315 19 c 1
 315 0 l 1
 18 0 l 1
 18 19 l 1
 102 22 115 34 115 109 c 2
322 719 m 1
 288 719 l 1
 166 822 l 5
 45 719 l 1
 11 719 l 1
 135 886 l 1
 197 886 l 1
 322 719 l 1
EndSplineSet
EndChar
StartChar: Idieresis
Encoding: 207 207
Width: 333
Flags: W
HStem: 0 19 643 19
VStem: 18 99<771 797.5> 115 102<109 553> 217 99<771 797.5>
Fore
115 109 m 2
 115 553 l 2
 115 627 103 638 18 643 c 1
 18 662 l 1
 315 662 l 1
 315 643 l 1
 231 639 217 626 217 553 c 2
 217 109 l 2
 217 36 233 22 315 19 c 1
 315 0 l 1
 18 0 l 1
 18 19 l 1
 102 22 115 34 115 109 c 2
66 834 m 0
 94 834 117 811 117 784 c 0
 117 757 94 735 66 735 c 0
 39 735 18 757 18 785 c 0
 18 811 41 834 66 834 c 0
265 834 m 0
 293 834 316 811 316 784 c 0
 316 757 293 735 265 735 c 0
 238 735 217 757 217 785 c 0
 217 811 240 834 265 834 c 0
EndSplineSet
EndChar
StartChar: Eth
Encoding: 208 208
Width: 722
Flags: W
HStem: 0 19 0 37<238 300> 315 44<21 104 206 352> 625 37<236 286 286 300.5> 643 19
VStem: 104 102<109 315 359 553 553 586> 576 109<285.5 379>
Fore
104 315 m 1
 21 315 l 1
 21 359 l 1
 104 359 l 1
 104 553 l 2
 104 627 95 636 16 643 c 1
 16 662 l 1
 286 662 l 2
 423 662 532 626 600 557 c 0
 655 502 685 424 685 334 c 0
 685 237 648 148 583 89 c 0
 521 33 416 0 300 0 c 2
 16 0 l 1
 16 19 l 1
 92 24 104 37 104 109 c 2
 104 315 l 1
352 359 m 1
 352 315 l 1
 206 315 l 1
 206 78 l 2
 206 46 218 37 258 37 c 0
 345 37 403 49 454 78 c 0
 535 125 576 209 576 327 c 0
 576 435 535 521 457 575 c 0
 409 609 345 625 256 625 c 0
 216 625 206 617 206 586 c 2
 206 359 l 1
 352 359 l 1
EndSplineSet
EndChar
StartChar: Ntilde
Encoding: 209 209
Width: 722
Flags: W
HStem: -11 20 0 19 643 19<12 33.5> 744 56<436.5 448.5> 790 55<272 282>
VStem: 109 44<147 539> 568 44<178 515>
Fore
612 -11 m 1
 595 -11 l 1
 153 539 l 1
 153 147 l 2
 153 46 170 23 247 19 c 1
 247 0 l 1
 12 0 l 1
 12 19 l 1
 95 25 109 44 109 147 c 2
 109 588 l 1
 69 635 55 643 12 643 c 1
 12 662 l 1
 183 662 l 1
 568 178 l 1
 568 515 l 2
 568 577 559 613 539 627 c 0
 524 636 510 640 472 643 c 1
 472 662 l 1
 707 662 l 1
 707 643 l 1
 669 639 655 635 641 625 c 0
 622 612 612 575 612 515 c 2
 612 -11 l 1
497 850 m 5
 526 850 l 5
 505 774 476 744 421 744 c 4
 396 744 381 748 340 768 c 6
 317 779 l 6
 302 786 288 790 276 790 c 4
 253 790 236 775 225 744 c 5
 196 744 l 5
 211 809 247 845 297 845 c 4
 319 845 344 839 367 827 c 6
 391 815 l 6
 410 806 429 800 444 800 c 4
 467 800 480 812 497 850 c 5
EndSplineSet
EndChar
StartChar: Ograve
Encoding: 210 210
Width: 722
Flags: MW
HStem: -14 36<336 385.5> 640 36<333.5 384>
VStem: 34 114<284 380> 574 114<298.5 376.5>
Fore
361 676 m 0
 457 676 541 640 604 571 c 0
 659 511 688 426 688 327 c 0
 688 126 552 -14 355 -14 c 0
 267 -14 178 25 120 88 c 0
 66 146 34 237 34 331 c 0
 34 532 170 676 361 676 c 0
361 640 m 0
 306 640 257 618 218 575 c 0
 176 528 148 431 148 329 c 0
 148 218 181 117 233 71 c 0
 268 40 313 22 359 22 c 0
 412 22 457 40 492 75 c 0
 515 98 532 123 541 148 c 0
 561 200 574 269 574 328 c 0
 574 447 543 541 489 590 c 0
 453 622 407 640 361 640 c 0
437 719 m 1
 397 719 l 1
 243 816 l 2
 225 828 214 843 214 859 c 0
 214 878 227 890 248 890 c 0
 263 890 272 885 290 867 c 2
 437 719 l 1
EndSplineSet
EndChar
StartChar: Oacute
Encoding: 211 211
Width: 722
Flags: MW
HStem: -14 36<336 385.5> 640 36<333.5 384>
VStem: 34 114<284 380> 574 114<298.5 376.5>
Fore
361 676 m 0
 457 676 541 640 604 571 c 0
 659 511 688 426 688 327 c 0
 688 126 552 -14 355 -14 c 0
 267 -14 178 25 120 88 c 0
 66 146 34 237 34 331 c 0
 34 532 170 676 361 676 c 0
361 640 m 0
 306 640 257 618 218 575 c 0
 176 528 148 431 148 329 c 0
 148 218 181 117 233 71 c 0
 268 40 313 22 359 22 c 0
 412 22 457 40 492 75 c 0
 515 98 532 123 541 148 c 0
 561 200 574 269 574 328 c 0
 574 447 543 541 489 590 c 0
 453 622 407 640 361 640 c 0
328 719 m 1
 288 719 l 1
 435 867 l 2
 453 885 462 890 477 890 c 0
 499 890 512 878 512 858 c 0
 512 842 503 829 482 816 c 2
 328 719 l 1
EndSplineSet
EndChar
StartChar: Ocircumflex
Encoding: 212 212
Width: 722
Flags: MW
HStem: -14 36<336 385.5> 640 36<333.5 384>
VStem: 34 114<284 380> 574 114<298.5 376.5>
Fore
361 676 m 0
 457 676 541 640 604 571 c 0
 659 511 688 426 688 327 c 0
 688 126 552 -14 355 -14 c 0
 267 -14 178 25 120 88 c 0
 66 146 34 237 34 331 c 0
 34 532 170 676 361 676 c 0
361 640 m 0
 306 640 257 618 218 575 c 0
 176 528 148 431 148 329 c 0
 148 218 181 117 233 71 c 0
 268 40 313 22 359 22 c 0
 412 22 457 40 492 75 c 0
 515 98 532 123 541 148 c 0
 561 200 574 269 574 328 c 0
 574 447 543 541 489 590 c 0
 453 622 407 640 361 640 c 0
517 719 m 1
 483 719 l 1
 361 822 l 5
 240 719 l 1
 206 719 l 1
 330 886 l 1
 392 886 l 1
 517 719 l 1
EndSplineSet
EndChar
StartChar: Otilde
Encoding: 213 213
Width: 722
Flags: W
HStem: -14 36<336 385.5> 640 36<333.5 384> 744 56<436.5 448.5> 790 55<272 282>
VStem: 34 114<284 380> 574 114<298.5 376.5>
Fore
361 676 m 0
 457 676 541 640 604 571 c 0
 659 511 688 426 688 327 c 0
 688 126 552 -14 355 -14 c 0
 267 -14 178 25 120 88 c 0
 66 146 34 237 34 331 c 0
 34 532 170 676 361 676 c 0
361 640 m 0
 306 640 257 618 218 575 c 0
 176 528 148 431 148 329 c 0
 148 218 181 117 233 71 c 0
 268 40 313 22 359 22 c 0
 412 22 457 40 492 75 c 0
 515 98 532 123 541 148 c 0
 561 200 574 269 574 328 c 0
 574 447 543 541 489 590 c 0
 453 622 407 640 361 640 c 0
497 850 m 1
 526 850 l 1
 505 774 476 744 421 744 c 0
 396 744 381 748 340 768 c 2
 317 779 l 2
 302 786 288 790 276 790 c 0
 253 790 236 775 225 744 c 1
 196 744 l 1
 211 809 247 845 297 845 c 0
 319 845 344 839 367 827 c 2
 391 815 l 2
 410 806 429 800 444 800 c 0
 467 800 480 812 497 850 c 1
EndSplineSet
EndChar
StartChar: Odieresis
Encoding: 214 214
Width: 722
Flags: W
HStem: -14 36<336 385.5> 640 36<333.5 384>
VStem: 34 114<284 380> 34 99 233 99 574 114<298.5 376.5>
Fore
361 676 m 0
 457 676 541 640 604 571 c 0
 659 511 688 426 688 327 c 0
 688 126 552 -14 355 -14 c 0
 267 -14 178 25 120 88 c 0
 66 146 34 237 34 331 c 0
 34 532 170 676 361 676 c 0
361 640 m 0
 306 640 257 618 218 575 c 0
 176 528 148 431 148 329 c 0
 148 218 181 117 233 71 c 0
 268 40 313 22 359 22 c 0
 412 22 457 40 492 75 c 0
 515 98 532 123 541 148 c 0
 561 200 574 269 574 328 c 0
 574 447 543 541 489 590 c 0
 453 622 407 640 361 640 c 0
261 834 m 0
 289 834 312 811 312 784 c 0
 312 757 289 735 261 735 c 0
 234 735 213 757 213 785 c 4
 213 811 236 834 261 834 c 0
460 834 m 0
 488 834 511 811 511 784 c 0
 511 757 488 735 460 735 c 0
 433 735 412 757 412 785 c 0
 412 811 435 834 460 834 c 0
EndSplineSet
EndChar
StartChar: multiply
Encoding: 215 215
Width: 564
Flags: W
Fore
234 253 m 1
 38 449 l 1
 86 497 l 1
 282 300 l 1
 479 497 l 1
 527 449 l 1
 330 253 l 1
 527 56 l 1
 479 8 l 1
 282 205 l 1
 86 8 l 1
 38 56 l 1
 234 253 l 1
EndSplineSet
EndChar
StartChar: Oslash
Encoding: 216 216
Width: 722
Flags: MW
HStem: -14 36<332 427> 640 36<295.5 388.5>
VStem: 34 114<298.5 425.5> 574 114<234.5 363.5>
Fore
658 734 m 1
 570 604 l 1
 611 566 628 546 646 511 c 0
 673 461 688 396 688 331 c 0
 688 128 553 -14 359 -14 c 0
 292 -14 246 -1 184 36 c 1
 105 -80 l 1
 56 -80 l 1
 151 59 l 1
 109 97 93 117 75 152 c 0
 49 202 34 267 34 330 c 0
 34 533 170 676 362 676 c 0
 428 676 473 663 537 627 c 1
 609 734 l 1
 658 734 l 1
527 540 m 1
 219 88 l 1
 262 41 303 22 361 22 c 0
 493 22 574 139 574 330 c 0
 574 419 561 475 527 540 c 1
194 123 m 1
 502 575 l 1
 458 621 416 640 361 640 c 0
 230 640 148 521 148 330 c 0
 148 242 160 187 194 123 c 1
EndSplineSet
EndChar
StartChar: Ugrave
Encoding: 217 217
Width: 722
Flags: MW
HStem: -14 44<342.5 409.5> 643 19
VStem: 104 102<241 553> 567 44<245 254 254 515>
Fore
611 515 m 2
 611 254 l 2
 611 177 602 131 578 89 c 0
 539 21 464 -14 355 -14 c 0
 185 -14 104 68 104 241 c 2
 104 553 l 2
 104 626 93 637 14 643 c 1
 14 662 l 1
 297 662 l 1
 297 643 l 1
 217 636 206 625 206 553 c 2
 206 233 l 2
 206 170 213 133 231 101 c 0
 258 54 307 30 378 30 c 0
 453 30 517 61 544 109 c 0
 560 139 567 177 567 245 c 2
 567 515 l 2
 567 615 551 637 473 643 c 1
 473 662 l 1
 705 662 l 1
 705 643 l 1
 623 633 611 617 611 515 c 2
454 719 m 1
 414 719 l 1
 260 816 l 2
 242 828 231 843 231 859 c 0
 231 878 244 890 265 890 c 0
 280 890 289 885 307 867 c 2
 454 719 l 1
EndSplineSet
EndChar
StartChar: Uacute
Encoding: 218 218
Width: 722
Flags: MW
HStem: -14 44<342.5 409.5> 643 19
VStem: 104 102<241 553> 567 44<245 254 254 515>
Fore
611 515 m 2
 611 254 l 2
 611 177 602 131 578 89 c 0
 539 21 464 -14 355 -14 c 0
 185 -14 104 68 104 241 c 2
 104 553 l 2
 104 626 93 637 14 643 c 1
 14 662 l 1
 297 662 l 1
 297 643 l 1
 217 636 206 625 206 553 c 2
 206 233 l 2
 206 170 213 133 231 101 c 0
 258 54 307 30 378 30 c 0
 453 30 517 61 544 109 c 0
 560 139 567 177 567 245 c 2
 567 515 l 2
 567 615 551 637 473 643 c 1
 473 662 l 1
 705 662 l 1
 705 643 l 1
 623 633 611 617 611 515 c 2
353 719 m 1
 313 719 l 1
 460 867 l 2
 478 885 487 890 502 890 c 0
 524 890 537 878 537 858 c 0
 537 842 528 829 507 816 c 2
 353 719 l 1
EndSplineSet
EndChar
StartChar: Ucircumflex
Encoding: 219 219
Width: 722
Flags: MW
HStem: -14 44<342.5 409.5> 643 19
VStem: 104 102<241 553> 567 44<245 254 254 515>
Fore
611 515 m 2
 611 254 l 2
 611 177 602 131 578 89 c 0
 539 21 464 -14 355 -14 c 0
 185 -14 104 68 104 241 c 2
 104 553 l 2
 104 626 93 637 14 643 c 1
 14 662 l 1
 297 662 l 1
 297 643 l 1
 217 636 206 625 206 553 c 2
 206 233 l 2
 206 170 213 133 231 101 c 0
 258 54 307 30 378 30 c 0
 453 30 517 61 544 109 c 0
 560 139 567 177 567 245 c 2
 567 515 l 2
 567 615 551 637 473 643 c 1
 473 662 l 1
 705 662 l 1
 705 643 l 1
 623 633 611 617 611 515 c 2
536 719 m 1
 502 719 l 1
 380 822 l 1
 259 719 l 1
 225 719 l 1
 349 886 l 1
 411 886 l 1
 536 719 l 1
EndSplineSet
EndChar
StartChar: Udieresis
Encoding: 220 220
Width: 722
Flags: W
HStem: -14 44<342.5 409.5> 643 19
VStem: 14 99 104 102<241 553> 213 99 567 44<245 254 254 515>
Fore
611 515 m 2
 611 254 l 2
 611 177 602 131 578 89 c 0
 539 21 464 -14 355 -14 c 0
 185 -14 104 68 104 241 c 2
 104 553 l 2
 104 626 93 637 14 643 c 1
 14 662 l 1
 297 662 l 1
 297 643 l 1
 217 636 206 625 206 553 c 2
 206 233 l 2
 206 170 213 133 231 101 c 0
 258 54 307 30 378 30 c 0
 453 30 517 61 544 109 c 0
 560 139 567 177 567 245 c 2
 567 515 l 2
 567 615 551 637 473 643 c 1
 473 662 l 1
 705 662 l 1
 705 643 l 1
 623 633 611 617 611 515 c 2
278 834 m 0
 306 834 329 811 329 784 c 0
 329 757 306 735 278 735 c 0
 251 735 230 757 230 785 c 4
 230 811 253 834 278 834 c 0
477 834 m 0
 505 834 528 811 528 784 c 0
 528 757 505 735 477 735 c 0
 450 735 429 757 429 785 c 0
 429 811 452 834 477 834 c 0
EndSplineSet
EndChar
StartChar: Yacute
Encoding: 221 221
Width: 722
Flags: MW
HStem: 0 19 642 20<277 279>
VStem: 315 102<120 294 294 294>
Fore
703 662 m 1
 703 643 l 1
 652 639 626 617 565 529 c 1
 417 303 l 1
 417 109 l 2
 417 33 431 21 520 19 c 1
 520 0 l 1
 214 0 l 1
 214 19 l 1
 305 23 315 33 315 120 c 2
 315 294 l 1
 184 486 l 1
 84 627 70 641 22 643 c 1
 22 662 l 1
 302 662 l 1
 302 643 l 1
 291 642 281 642 277 642 c 0
 245 640 231 631 231 613 c 0
 231 602 237 585 248 569 c 2
 396 347 l 1
 539 573 l 2
 548 588 553 600 553 610 c 0
 553 634 536 642 484 643 c 1
 484 662 l 1
 703 662 l 1
360 719 m 1
 320 719 l 1
 467 867 l 2
 485 885 494 890 509 890 c 0
 531 890 544 878 544 858 c 0
 544 842 535 829 514 816 c 2
 360 719 l 1
EndSplineSet
EndChar
StartChar: Thorn
Encoding: 222 222
Width: 556
Flags: MW
HStem: 0 19 158 40<259 310> 494 38<221.5 282 282 303> 643 19
VStem: 100 102<120 161 201 461> 433 109<318 396.5>
Fore
293 662 m 1
 293 643 l 1
 211 636 201 623 202 532 c 1
 282 532 l 2
 442 532 542 462 542 351 c 0
 542 285 505 224 446 192 c 0
 403 168 349 158 271 158 c 0
 247 158 229 159 202 161 c 1
 202 109 l 2
 202 36 217 22 296 19 c 1
 296 0 l 1
 16 0 l 1
 16 19 l 1
 92 26 100 36 100 120 c 2
 100 553 l 2
 100 625 90 635 16 643 c 1
 16 662 l 1
 293 662 l 1
202 461 m 2
 202 201 l 1
 225 199 239 198 259 198 c 0
 374 198 433 248 433 345 c 0
 433 448 372 494 234 494 c 0
 209 494 202 487 202 461 c 2
EndSplineSet
EndChar
StartChar: germandbls
Encoding: 223 223
Width: 500
Flags: W
HStem: -9 29<300.5 331> 0 15 656 27<217 271.5>
VStem: 73 84<84 454 454 489> 334 87<495 560.5> 374 94<131.5 214>
Fore
73 84 m 2
 73 454 l 2
 73 524 82 569 103 606 c 0
 132 657 183 683 251 683 c 0
 355 683 421 623 421 531 c 0
 421 459 391 426 284 377 c 1
 345 365 374 354 406 326 c 0
 446 292 468 242 468 186 c 0
 468 77 389 -9 289 -9 c 0
 232 -9 192 21 192 64 c 0
 192 91 211 112 237 112 c 0
 259 112 277 95 279 72 c 2
 281 50 l 2
 283 28 291 20 310 20 c 0
 352 20 374 65 374 150 c 0
 374 285 330 354 242 357 c 0
 219 358 210 363 210 374 c 0
 210 383 218 387 239 389 c 0
 304 396 334 437 334 517 c 0
 334 604 300 656 243 656 c 0
 191 656 157 614 157 549 c 2
 157 0 l 1
 12 0 l 1
 12 15 l 1
 62 19 73 31 73 84 c 2
EndSplineSet
EndChar
StartChar: agrave
Encoding: 224 224
Width: 444
Flags: W
HStem: -10 57 -10 58 -10 57 -10 58 436 24<191 235.5> 658 20<97.5 115.5>
VStem: 56 83 287 81<123 268 268 268 292 300>
Fore
442 66 m 1
 442 40 l 1
 407 2 386 -10 352 -10 c 0
 311 -10 293 11 288 63 c 1
 227 11 186 -10 142 -10 c 0
 81 -10 37 34 37 97 c 0
 37 130 51 164 73 184 c 0
 116 222 133 230 287 292 c 1
 287 353 l 2
 287 407 260 436 211 436 c 0
 171 436 139 414 139 387 c 0
 139 380 140 372 142 363 c 0
 143 356 144 351 144 347 c 0
 144 325 123 305 99 305 c 0
 76 305 56 325 56 348 c 0
 56 411 130 460 224 460 c 0
 283 460 326 441 348 405 c 0
 363 381 368 352 368 300 c 2
 368 105 l 2
 368 61 375 47 398 47 c 0
 413 47 425 52 442 66 c 1
287 123 m 2
 287 268 l 1
 166 224 125 188 125 129 c 2
 125 125 l 2
 125 82 153 48 188 48 c 0
 209 48 237 57 261 71 c 0
 282 83 287 92 287 123 c 2
297 507 m 1
 257 507 l 1
 103 604 l 2
 85 616 74 631 74 647 c 0
 74 666 87 678 108 678 c 0
 123 678 132 673 150 655 c 2
 297 507 l 1
EndSplineSet
EndChar
StartChar: aacute
Encoding: 225 225
Width: 444
Flags: W
HStem: -10 57 -10 58 -10 57 -10 58 436 24<191 235.5> 658 20<330.5 349>
VStem: 56 83 287 81<123 268 268 268 292 300>
Fore
442 66 m 1
 442 40 l 1
 407 2 386 -10 352 -10 c 0
 311 -10 293 11 288 63 c 1
 227 11 186 -10 142 -10 c 0
 81 -10 37 34 37 97 c 0
 37 130 51 164 73 184 c 0
 116 222 133 230 287 292 c 1
 287 353 l 2
 287 407 260 436 211 436 c 0
 171 436 139 414 139 387 c 0
 139 380 140 372 142 363 c 0
 143 356 144 351 144 347 c 0
 144 325 123 305 99 305 c 0
 76 305 56 325 56 348 c 0
 56 411 130 460 224 460 c 0
 283 460 326 441 348 405 c 0
 363 381 368 352 368 300 c 2
 368 105 l 2
 368 61 375 47 398 47 c 0
 413 47 425 52 442 66 c 1
287 123 m 2
 287 268 l 1
 166 224 125 188 125 129 c 2
 125 125 l 2
 125 82 153 48 188 48 c 0
 209 48 237 57 261 71 c 0
 282 83 287 92 287 123 c 2
189 507 m 1
 149 507 l 1
 296 655 l 2
 314 673 323 678 338 678 c 0
 360 678 373 666 373 646 c 0
 373 630 364 617 343 604 c 2
 189 507 l 1
EndSplineSet
EndChar
StartChar: acircumflex
Encoding: 226 226
Width: 444
Flags: W
HStem: -10 57 -10 58 -10 57 -10 58 436 24<191 235.5> 654 20<191 253 253 253>
VStem: 56 83 287 81<123 268 268 268 292 300>
Fore
442 66 m 1
 442 40 l 1
 407 2 386 -10 352 -10 c 0
 311 -10 293 11 288 63 c 1
 227 11 186 -10 142 -10 c 0
 81 -10 37 34 37 97 c 0
 37 130 51 164 73 184 c 0
 116 222 133 230 287 292 c 1
 287 353 l 2
 287 407 260 436 211 436 c 0
 171 436 139 414 139 387 c 0
 139 380 140 372 142 363 c 0
 143 356 144 351 144 347 c 0
 144 325 123 305 99 305 c 0
 76 305 56 325 56 348 c 0
 56 411 130 460 224 460 c 0
 283 460 326 441 348 405 c 0
 363 381 368 352 368 300 c 2
 368 105 l 2
 368 61 375 47 398 47 c 0
 413 47 425 52 442 66 c 1
287 123 m 2
 287 268 l 1
 166 224 125 188 125 129 c 2
 125 125 l 2
 125 82 153 48 188 48 c 0
 209 48 237 57 261 71 c 0
 282 83 287 92 287 123 c 2
378 507 m 5
 344 507 l 5
 222 610 l 5
 101 507 l 5
 67 507 l 5
 191 674 l 5
 253 674 l 5
 378 507 l 5
EndSplineSet
EndChar
StartChar: atilde
Encoding: 227 227
Width: 444
Flags: W
HStem: -10 57 -10 58 -10 57 -10 58 436 24<191 235.5> 532 56<297.5 309.5> 578 55<133 143>
VStem: 56 83 287 81<123 268 268 268 292 300>
Fore
442 66 m 1
 442 40 l 1
 407 2 386 -10 352 -10 c 0
 311 -10 293 11 288 63 c 1
 227 11 186 -10 142 -10 c 0
 81 -10 37 34 37 97 c 0
 37 130 51 164 73 184 c 0
 116 222 133 230 287 292 c 1
 287 353 l 2
 287 407 260 436 211 436 c 0
 171 436 139 414 139 387 c 0
 139 380 140 372 142 363 c 0
 143 356 144 351 144 347 c 0
 144 325 123 305 99 305 c 0
 76 305 56 325 56 348 c 0
 56 411 130 460 224 460 c 0
 283 460 326 441 348 405 c 0
 363 381 368 352 368 300 c 2
 368 105 l 2
 368 61 375 47 398 47 c 0
 413 47 425 52 442 66 c 1
287 123 m 2
 287 268 l 1
 166 224 125 188 125 129 c 2
 125 125 l 2
 125 82 153 48 188 48 c 0
 209 48 237 57 261 71 c 0
 282 83 287 92 287 123 c 2
358 638 m 1
 387 638 l 1
 366 562 337 532 282 532 c 0
 257 532 242 536 201 556 c 2
 178 567 l 2
 163 574 149 578 137 578 c 0
 114 578 97 563 86 532 c 1
 57 532 l 1
 72 597 108 633 158 633 c 0
 180 633 205 627 228 615 c 2
 252 603 l 2
 271 594 290 588 305 588 c 0
 328 588 341 600 358 638 c 1
EndSplineSet
EndChar
StartChar: adieresis
Encoding: 228 228
Width: 444
Flags: W
HStem: -10 57 -10 58 -10 57 -10 58 436 24<191 235.5>
VStem: 37 99 56 83 236 99 287 81<123 268 268 268 292 300>
Fore
442 66 m 1
 442 40 l 1
 407 2 386 -10 352 -10 c 0
 311 -10 293 11 288 63 c 1
 227 11 186 -10 142 -10 c 0
 81 -10 37 34 37 97 c 0
 37 130 51 164 73 184 c 0
 116 222 133 230 287 292 c 1
 287 353 l 2
 287 407 260 436 211 436 c 0
 171 436 139 414 139 387 c 0
 139 380 140 372 142 363 c 0
 143 356 144 351 144 347 c 0
 144 325 123 305 99 305 c 0
 76 305 56 325 56 348 c 0
 56 411 130 460 224 460 c 0
 283 460 326 441 348 405 c 0
 363 381 368 352 368 300 c 2
 368 105 l 2
 368 61 375 47 398 47 c 0
 413 47 425 52 442 66 c 1
287 123 m 2
 287 268 l 1
 166 224 125 188 125 129 c 2
 125 125 l 2
 125 82 153 48 188 48 c 0
 209 48 237 57 261 71 c 0
 282 83 287 92 287 123 c 2
121 622 m 0
 149 622 172 599 172 572 c 0
 172 545 149 523 121 523 c 0
 94 523 73 545 73 573 c 4
 73 599 96 622 121 622 c 0
320 622 m 0
 348 622 371 599 371 572 c 0
 371 545 348 523 320 523 c 0
 293 523 272 545 272 573 c 0
 272 599 295 622 320 622 c 0
EndSplineSet
EndChar
StartChar: aring
Encoding: 229 229
Width: 444
Flags: W
HStem: -10 57 -10 58 -10 57 -10 58 436 24<191 235.5> 512 34 677 34
VStem: 37 34 56 83 202 34 287 81<123 268 268 268 292 300>
Fore
442 66 m 1
 442 40 l 1
 407 2 386 -10 352 -10 c 0
 311 -10 293 11 288 63 c 1
 227 11 186 -10 142 -10 c 0
 81 -10 37 34 37 97 c 0
 37 130 51 164 73 184 c 0
 116 222 133 230 287 292 c 1
 287 353 l 2
 287 407 260 436 211 436 c 0
 171 436 139 414 139 387 c 0
 139 380 140 372 142 363 c 0
 143 356 144 351 144 347 c 0
 144 325 123 305 99 305 c 0
 76 305 56 325 56 348 c 0
 56 411 130 460 224 460 c 0
 283 460 326 441 348 405 c 0
 363 381 368 352 368 300 c 2
 368 105 l 2
 368 61 375 47 398 47 c 0
 413 47 425 52 442 66 c 1
287 123 m 2
 287 268 l 1
 166 224 125 188 125 129 c 2
 125 125 l 2
 125 82 153 48 188 48 c 0
 209 48 237 57 261 71 c 0
 282 83 287 92 287 123 c 2
221 721 m 0
 276 721 321 676 321 621 c 0
 321 566 276 522 221 522 c 0
 165 522 122 566 122 622 c 0
 122 676 167 721 221 721 c 0
222 687 m 0
 186 687 156 658 156 622 c 0
 156 586 185 556 220 556 c 0
 257 556 287 585 287 621 c 0
 287 657 257 687 222 687 c 0
EndSplineSet
EndChar
StartChar: ae
Encoding: 230 230
Width: 667
Flags: W
HStem: -10 67<455.5 458.5> -10 48<173.5 179> -10 67 -10 48 277 30<355 521> 431 29<433 469> 436 24<192 225>
VStem: 38 87<101 130> 146 128
Fore
620 154 m 1
 632 149 l 1
 605 90 586 62 559 38 c 0
 523 6 482 -10 435 -10 c 0
 378 -10 340 11 306 63 c 1
 238 7 204 -10 154 -10 c 0
 86 -10 38 35 38 100 c 0
 38 160 80 201 187 245 c 2
 273 281 l 1
 275 344 l 1
 276 367 271 398 263 413 c 0
 256 427 237 436 213 436 c 0
 171 436 140 413 145 386 c 0
 146 383 146 380 146 380 c 1
 146 369 l 1
 147 352 l 1
 148 323 132 304 104 304 c 0
 77 304 60 323 60 352 c 0
 60 414 129 460 220 460 c 0
 269 460 299 448 337 415 c 5
 382 449 410 460 456 460 c 0
 557 460 605 406 616 277 c 1
 354 277 l 1
 355 178 360 146 381 107 c 0
 398 77 435 57 476 57 c 0
 533 57 572 84 620 154 c 1
274 201 m 2
 274 253 l 1
 153 209 125 185 125 125 c 0
 125 77 155 38 192 38 c 0
 229 38 294 70 294 88 c 0
 294 89 294 90 293 91 c 0
 280 128 274 165 274 201 c 2
355 307 m 1
 521 307 l 1
 519 394 496 431 442 431 c 0
 385 431 360 395 355 307 c 1
EndSplineSet
EndChar
StartChar: ccedilla
Encoding: 231 231
Width: 444
Flags: MW
HStem: -215 35<176.5 204> -100 38 431 29<219.5 256>
VStem: 25 77<199.5 252> 242 75<-149.5 -123>
Fore
226 -10 m 1
 205 -65 l 1
 215 -63 221 -62 231 -62 c 0
 285 -62 317 -88 317 -131 c 0
 317 -183 269 -215 192 -215 c 0
 160 -215 137 -211 108 -199 c 1
 122 -168 l 1
 149 -177 166 -180 187 -180 c 0
 221 -180 242 -163 242 -136 c 0
 242 -110 227 -100 189 -100 c 0
 178 -100 169 -101 161 -104 c 1
 154 -99 l 1
 192 -8 l 1
 91 5 25 93 25 212 c 0
 25 292 53 360 103 404 c 0
 144 440 195 460 244 460 c 0
 328 460 398 413 398 357 c 0
 398 334 376 315 351 315 c 0
 329 315 311 332 303 361 c 2
 297 383 l 2
 287 420 274 431 238 431 c 0
 157 431 102 360 102 257 c 0
 102 142 166 62 257 62 c 0
 314 62 350 86 398 156 c 1
 412 147 l 1
 360 42 307 -3 226 -10 c 1
EndSplineSet
EndChar
StartChar: egrave
Encoding: 232 232
Width: 444
Flags: W
HStem: -10 69<224.5 259.5> 277 32<99 303> 424 36<209 235.5> 658 20<97.5 115.5>
Fore
408 164 m 1
 424 157 l 1
 382 49 307 -10 212 -10 c 0
 97 -10 25 76 25 214 c 0
 25 296 52 367 99 408 c 0
 137 442 184 460 234 460 c 0
 286 460 332 439 362 403 c 0
 387 371 397 342 405 277 c 1
 97 277 l 1
 99 216 106 183 124 145 c 0
 153 88 196 59 253 59 c 0
 317 59 360 88 408 164 c 1
99 309 m 1
 303 309 l 1
 290 396 266 424 205 424 c 0
 144 424 110 387 99 309 c 1
297 507 m 1
 257 507 l 1
 103 604 l 2
 85 616 74 631 74 647 c 0
 74 666 87 678 108 678 c 0
 123 678 132 673 150 655 c 2
 297 507 l 1
EndSplineSet
EndChar
StartChar: eacute
Encoding: 233 233
Width: 444
Flags: W
HStem: -10 69<224.5 259.5> 277 32<99 303> 424 36<209 235.5> 658 20<330.5 349>
Fore
408 164 m 1
 424 157 l 1
 382 49 307 -10 212 -10 c 0
 97 -10 25 76 25 214 c 0
 25 296 52 367 99 408 c 0
 137 442 184 460 234 460 c 0
 286 460 332 439 362 403 c 0
 387 371 397 342 405 277 c 1
 97 277 l 1
 99 216 106 183 124 145 c 0
 153 88 196 59 253 59 c 0
 317 59 360 88 408 164 c 1
99 309 m 1
 303 309 l 1
 290 396 266 424 205 424 c 0
 144 424 110 387 99 309 c 1
189 507 m 1
 149 507 l 1
 296 655 l 2
 314 673 323 678 338 678 c 0
 360 678 373 666 373 646 c 0
 373 630 364 617 343 604 c 2
 189 507 l 1
EndSplineSet
EndChar
StartChar: ecircumflex
Encoding: 234 234
Width: 444
Flags: W
HStem: -10 69<224.5 259.5> 277 32<99 303> 424 36<209 235.5> 654 20<191 253 253 253>
Fore
408 164 m 1
 424 157 l 1
 382 49 307 -10 212 -10 c 0
 97 -10 25 76 25 214 c 0
 25 296 52 367 99 408 c 0
 137 442 184 460 234 460 c 0
 286 460 332 439 362 403 c 0
 387 371 397 342 405 277 c 1
 97 277 l 1
 99 216 106 183 124 145 c 0
 153 88 196 59 253 59 c 0
 317 59 360 88 408 164 c 1
99 309 m 1
 303 309 l 1
 290 396 266 424 205 424 c 0
 144 424 110 387 99 309 c 1
378 507 m 1
 344 507 l 1
 222 610 l 1
 101 507 l 1
 67 507 l 1
 191 674 l 1
 253 674 l 1
 378 507 l 1
EndSplineSet
EndChar
StartChar: edieresis
Encoding: 235 235
Width: 444
Flags: W
HStem: -10 69<224.5 259.5> 277 32<99 303> 424 36<209 235.5>
VStem: 25 99 224 99
Fore
408 164 m 1
 424 157 l 1
 382 49 307 -10 212 -10 c 0
 97 -10 25 76 25 214 c 0
 25 296 52 367 99 408 c 0
 137 442 184 460 234 460 c 0
 286 460 332 439 362 403 c 0
 387 371 397 342 405 277 c 1
 97 277 l 1
 99 216 106 183 124 145 c 0
 153 88 196 59 253 59 c 0
 317 59 360 88 408 164 c 1
99 309 m 1
 303 309 l 1
 290 396 266 424 205 424 c 0
 144 424 110 387 99 309 c 1
121 622 m 0
 149 622 172 599 172 572 c 0
 172 545 149 523 121 523 c 0
 94 523 73 545 73 573 c 4
 73 599 96 622 121 622 c 0
320 622 m 0
 348 622 371 599 371 572 c 0
 371 545 348 523 320 523 c 0
 293 523 272 545 272 573 c 0
 272 599 295 622 320 622 c 0
EndSplineSet
EndChar
StartChar: igrave
Encoding: 236 236
Width: 278
Flags: MW
HStem: 0 15 390 15 440 20<175 175> 658 20<15.5 33.5>
VStem: 95 84<102 334 334 356>
Fore
175 460 m 1
 179 457 l 1
 179 102 l 2
 179 30 187 20 253 15 c 1
 253 0 l 1
 16 0 l 1
 16 15 l 1
 85 19 95 30 95 102 c 2
 95 334 l 2
 95 378 86 394 62 394 c 0
 53 394 40 393 28 391 c 2
 20 390 l 1
 20 405 l 1
 175 460 l 1
215 507 m 1
 175 507 l 1
 21 604 l 2
 3 616 -8 631 -8 647 c 0
 -8 666 5 678 26 678 c 0
 41 678 50 673 68 655 c 2
 215 507 l 1
EndSplineSet
EndChar
StartChar: iacute
Encoding: 237 237
Width: 278
Flags: W
HStem: 0 15 390 15 440 20<175 175> 658 20<247.5 266>
VStem: 95 84<102 334 334 356>
Fore
175 460 m 1
 179 457 l 1
 179 102 l 2
 179 30 187 20 253 15 c 1
 253 0 l 1
 16 0 l 1
 16 15 l 1
 85 19 95 30 95 102 c 2
 95 334 l 2
 95 378 86 394 62 394 c 0
 53 394 40 393 28 391 c 2
 20 390 l 1
 20 405 l 1
 175 460 l 1
106 507 m 1
 66 507 l 1
 213 655 l 2
 231 673 240 678 255 678 c 0
 277 678 290 666 290 646 c 0
 290 630 281 617 260 604 c 2
 106 507 l 1
EndSplineSet
EndChar
StartChar: icircumflex
Encoding: 238 238
Width: 278
Flags: MW
HStem: 0 15 390 15 440 20<175 175> 654 20<108 170 170 170>
VStem: 95 84<102 334 334 356>
Fore
175 460 m 1
 179 457 l 1
 179 102 l 2
 179 30 187 20 253 15 c 1
 253 0 l 1
 16 0 l 1
 16 15 l 1
 85 19 95 30 95 102 c 2
 95 334 l 2
 95 378 86 394 62 394 c 0
 53 394 40 393 28 391 c 2
 20 390 l 1
 20 405 l 1
 175 460 l 1
295 507 m 1
 261 507 l 1
 139 610 l 5
 18 507 l 1
 -16 507 l 1
 108 674 l 1
 170 674 l 1
 295 507 l 1
EndSplineSet
EndChar
StartChar: idieresis
Encoding: 239 239
Width: 278
Flags: W
HStem: 0 15 390 15 440 20<175 175> 523 99<46.5 73 205.5 232>
VStem: 11 99<559 585.5> 95 84<102 334 334 356> 170 99<559 585.5>
Fore
59 622 m 0
 87 622 110 599 110 572 c 0
 110 545 87 523 59 523 c 0
 32 523 11 545 11 573 c 0
 11 599 34 622 59 622 c 0
218 622 m 0
 246 622 269 599 269 572 c 0
 269 545 246 523 218 523 c 0
 191 523 170 545 170 573 c 0
 170 599 193 622 218 622 c 0
175 460 m 1
 179 457 l 1
 179 102 l 2
 179 30 187 20 253 15 c 1
 253 0 l 1
 16 0 l 1
 16 15 l 1
 85 19 95 30 95 102 c 2
 95 334 l 2
 95 378 86 394 62 394 c 0
 53 394 40 393 28 391 c 2
 20 390 l 1
 20 405 l 1
 175 460 l 1
EndSplineSet
EndChar
StartChar: eth
Encoding: 240 240
Width: 500
Flags: MW
HStem: -10 28<241.5 273.5> 432 28<202 265>
VStem: 29 90<241 290> 381 90<237 269>
Fore
270 575 m 1
 147 510 l 1
 114 540 l 1
 235 604 l 1
 188 637 154 651 102 660 c 1
 144 683 l 1
 210 677 245 666 296 636 c 1
 391 686 l 1
 424 656 l 1
 333 608 l 1
 384 559 402 535 424 490 c 0
 455 427 471 355 471 285 c 0
 471 189 437 95 382 43 c 0
 345 8 300 -10 247 -10 c 0
 123 -10 29 90 29 223 c 0
 29 357 121 460 241 460 c 0
 289 460 316 447 367 400 c 1
 352 474 329 515 270 575 c 1
237 432 m 0
 167 432 119 369 119 276 c 0
 119 206 135 136 163 83 c 0
 185 42 222 18 261 18 c 0
 337 18 381 86 381 201 c 0
 381 337 322 432 237 432 c 0
EndSplineSet
EndChar
StartChar: ntilde
Encoding: 241 241
Width: 500
Flags: W
HStem: 0 15 405 55<283 291.5> 532 56<325.5 337.5> 578 55<161 171>
VStem: 80 84<90 338 338 348> 340 84<99 308 308 310>
Fore
16 398 m 1
 16 415 l 1
 71 431 105 442 154 460 c 1
 161 458 l 1
 161 379 l 1
 229 443 260 460 306 460 c 0
 380 460 424 404 424 310 c 2
 424 81 l 2
 424 32 436 20 485 15 c 1
 485 0 l 1
 277 0 l 1
 277 15 l 1
 327 19 340 36 340 99 c 2
 340 308 l 2
 340 374 316 405 267 405 c 0
 234 405 212 393 164 348 c 1
 164 67 l 2
 164 31 179 19 230 15 c 1
 230 0 l 1
 18 0 l 1
 18 15 l 1
 69 19 80 33 80 90 c 2
 80 338 l 2
 80 387 71 402 43 402 c 0
 32 402 22 401 16 398 c 1
386 638 m 5
 415 638 l 5
 394 562 365 532 310 532 c 4
 285 532 270 536 229 556 c 6
 206 567 l 6
 191 574 177 578 165 578 c 4
 142 578 125 563 114 532 c 5
 85 532 l 5
 100 597 136 633 186 633 c 4
 208 633 233 627 256 615 c 6
 280 603 l 6
 299 594 318 588 333 588 c 4
 356 588 369 600 386 638 c 5
EndSplineSet
EndChar
StartChar: ograve
Encoding: 242 242
Width: 500
Flags: W
HStem: -10 28<240.5 297.5> 432 28<201.5 279> 658 20<125.5 143.5>
VStem: 29 90<239.5 295> 380 90<165 267.5>
Fore
250 460 m 0
 378 460 470 365 470 234 c 0
 470 96 374 -10 248 -10 c 0
 122 -10 29 91 29 226 c 0
 29 364 120 460 250 460 c 0
237 432 m 0
 166 432 119 370 119 275 c 0
 119 204 135 134 163 82 c 0
 184 42 221 18 260 18 c 0
 335 18 380 86 380 199 c 0
 380 336 321 432 237 432 c 0
325 507 m 1
 285 507 l 1
 131 604 l 2
 113 616 102 631 102 647 c 0
 102 666 115 678 136 678 c 0
 151 678 160 673 178 655 c 2
 325 507 l 1
EndSplineSet
EndChar
StartChar: oacute
Encoding: 243 243
Width: 500
Flags: W
HStem: -10 28<240.5 297.5> 432 28<201.5 279> 658 20<358.5 377>
VStem: 29 90<239.5 295> 380 90<165 267.5>
Fore
250 460 m 0
 378 460 470 365 470 234 c 0
 470 96 374 -10 248 -10 c 0
 122 -10 29 91 29 226 c 0
 29 364 120 460 250 460 c 0
237 432 m 0
 166 432 119 370 119 275 c 0
 119 204 135 134 163 82 c 0
 184 42 221 18 260 18 c 0
 335 18 380 86 380 199 c 0
 380 336 321 432 237 432 c 0
217 507 m 1
 177 507 l 5
 324 655 l 2
 342 673 351 678 366 678 c 0
 388 678 401 666 401 646 c 0
 401 630 392 617 371 604 c 2
 217 507 l 1
EndSplineSet
EndChar
StartChar: ocircumflex
Encoding: 244 244
Width: 500
Flags: W
HStem: -10 28<240.5 297.5> 432 28<201.5 279> 654 20<219 281 281 281>
VStem: 29 90<239.5 295> 380 90<165 267.5>
Fore
250 460 m 0
 378 460 470 365 470 234 c 0
 470 96 374 -10 248 -10 c 0
 122 -10 29 91 29 226 c 0
 29 364 120 460 250 460 c 0
237 432 m 0
 166 432 119 370 119 275 c 0
 119 204 135 134 163 82 c 0
 184 42 221 18 260 18 c 0
 335 18 380 86 380 199 c 0
 380 336 321 432 237 432 c 0
406 507 m 1
 372 507 l 1
 250 610 l 1
 129 507 l 1
 95 507 l 1
 219 674 l 1
 281 674 l 1
 406 507 l 1
EndSplineSet
EndChar
StartChar: otilde
Encoding: 245 245
Width: 500
Flags: W
HStem: -10 28<240.5 297.5> 432 28<201.5 279> 532 56<325.5 337.5> 578 55<161 171>
VStem: 29 90<239.5 295> 380 90<165 267.5>
Fore
250 460 m 0
 378 460 470 365 470 234 c 0
 470 96 374 -10 248 -10 c 0
 122 -10 29 91 29 226 c 0
 29 364 120 460 250 460 c 0
237 432 m 0
 166 432 119 370 119 275 c 0
 119 204 135 134 163 82 c 0
 184 42 221 18 260 18 c 0
 335 18 380 86 380 199 c 0
 380 336 321 432 237 432 c 0
386 638 m 5
 415 638 l 5
 394 562 365 532 310 532 c 4
 285 532 270 536 229 556 c 6
 206 567 l 6
 191 574 177 578 165 578 c 4
 142 578 125 563 114 532 c 5
 85 532 l 5
 100 597 136 633 186 633 c 4
 208 633 233 627 256 615 c 6
 280 603 l 6
 299 594 318 588 333 588 c 4
 356 588 369 600 386 638 c 5
EndSplineSet
EndChar
StartChar: odieresis
Encoding: 246 246
Width: 500
Flags: W
HStem: -10 28<240.5 297.5> 432 28<201.5 279>
VStem: 29 90<239.5 295> 29 99 228 99 380 90<165 267.5>
Fore
250 460 m 0
 378 460 470 365 470 234 c 0
 470 96 374 -10 248 -10 c 0
 122 -10 29 91 29 226 c 0
 29 364 120 460 250 460 c 0
237 432 m 0
 166 432 119 370 119 275 c 0
 119 204 135 134 163 82 c 0
 184 42 221 18 260 18 c 0
 335 18 380 86 380 199 c 0
 380 336 321 432 237 432 c 0
149 622 m 0
 177 622 200 599 200 572 c 0
 200 545 177 523 149 523 c 0
 122 523 101 545 101 573 c 4
 101 599 124 622 149 622 c 0
348 622 m 0
 376 622 399 599 399 572 c 0
 399 545 376 523 348 523 c 0
 321 523 300 545 300 573 c 0
 300 599 323 622 348 622 c 0
EndSplineSet
EndChar
StartChar: divide
Encoding: 247 247
Width: 564
Flags: MW
HStem: -10 111<267 296.5> 220 66<30 534> 405 111<267 296.5>
VStem: 227 111<29.5 59.5 444.5 474.5>
Fore
534 220 m 1
 30 220 l 1
 30 286 l 1
 534 286 l 1
 534 220 l 1
282 516 m 0
 312 516 338 490 338 459 c 0
 338 430 312 405 281 405 c 0
 252 405 227 430 227 459 c 0
 227 490 252 516 282 516 c 0
282 101 m 0
 312 101 338 75 338 44 c 0
 338 15 312 -10 281 -10 c 0
 252 -10 227 15 227 44 c 0
 227 75 252 101 282 101 c 0
EndSplineSet
EndChar
StartChar: oslash
Encoding: 248 248
Width: 500
Flags: MW
HStem: -10 28<244 298.5> 432 28<201.5 252.5>
VStem: 29 90<241.5 295> 380 90<164.5 235>
Fore
437 551 m 1
 372 426 l 1
 403 404 416 392 432 368 c 0
 456 330 470 282 470 234 c 0
 470 95 374 -10 247 -10 c 0
 212 -10 189 -5 154 11 c 1
 89 -112 l 1
 52 -112 l 1
 125 28 l 1
 91 55 78 70 62 97 c 0
 41 135 29 181 29 227 c 0
 29 363 120 460 249 460 c 0
 282 460 306 455 341 442 c 1
 398 551 l 1
 437 551 l 1
340 366 m 1
 179 60 l 1
 204 30 227 18 261 18 c 0
 336 18 380 87 380 203 c 0
 380 267 369 311 340 366 c 1
158 92 m 1
 317 396 l 1
 290 422 268 432 237 432 c 0
 166 432 119 370 119 276 c 0
 119 207 131 149 158 92 c 1
EndSplineSet
EndChar
StartChar: ugrave
Encoding: 249 249
Width: 500
Flags: W
HStem: -10 58<206.5 210.5> -9 20 433 17 436 14 658 20<104.5 122.5>
VStem: 71 84<120 124 124 372 372 395> 333 84<135 370 370 395>
Fore
479 50 m 1
 479 36 l 1
 428 22 392 11 342 -9 c 1
 338 -7 l 1
 338 76 l 1
 295 33 l 2
 268 6 229 -10 192 -10 c 0
 119 -10 71 41 71 120 c 2
 71 372 l 2
 71 418 57 433 9 436 c 1
 9 450 l 1
 155 450 l 1
 155 124 l 2
 155 82 187 48 226 48 c 0
 256 48 287 60 314 82 c 0
 328 93 333 107 333 135 c 2
 333 370 l 2
 333 420 321 430 259 433 c 1
 259 450 l 1
 417 450 l 1
 417 107 l 2
 417 61 428 50 474 50 c 2
 479 50 l 1
304 507 m 1
 264 507 l 1
 110 604 l 2
 92 616 81 631 81 647 c 0
 81 666 94 678 115 678 c 0
 130 678 139 673 157 655 c 2
 304 507 l 1
EndSplineSet
EndChar
StartChar: uacute
Encoding: 250 250
Width: 500
Flags: W
HStem: -10 58<206.5 210.5> -9 20 433 17 436 14 658 20<358.5 377>
VStem: 71 84<120 124 124 372 372 395> 333 84<135 370 370 395>
Fore
479 50 m 1
 479 36 l 1
 428 22 392 11 342 -9 c 1
 338 -7 l 1
 338 76 l 1
 295 33 l 2
 268 6 229 -10 192 -10 c 0
 119 -10 71 41 71 120 c 2
 71 372 l 2
 71 418 57 433 9 436 c 1
 9 450 l 1
 155 450 l 1
 155 124 l 2
 155 82 187 48 226 48 c 0
 256 48 287 60 314 82 c 0
 328 93 333 107 333 135 c 2
 333 370 l 2
 333 420 321 430 259 433 c 1
 259 450 l 1
 417 450 l 1
 417 107 l 2
 417 61 428 50 474 50 c 2
 479 50 l 1
217 507 m 1
 177 507 l 1
 324 655 l 2
 342 673 351 678 366 678 c 0
 388 678 401 666 401 646 c 0
 401 630 392 617 371 604 c 2
 217 507 l 1
EndSplineSet
EndChar
StartChar: ucircumflex
Encoding: 251 251
Width: 500
Flags: W
HStem: -10 58<206.5 210.5> -9 20 433 17 436 14 654 20<206 268 268 268>
VStem: 71 84<120 124 124 372 372 395> 333 84<135 370 370 395>
Fore
479 50 m 1
 479 36 l 1
 428 22 392 11 342 -9 c 1
 338 -7 l 1
 338 76 l 1
 295 33 l 2
 268 6 229 -10 192 -10 c 0
 119 -10 71 41 71 120 c 2
 71 372 l 2
 71 418 57 433 9 436 c 1
 9 450 l 1
 155 450 l 1
 155 124 l 2
 155 82 187 48 226 48 c 0
 256 48 287 60 314 82 c 0
 328 93 333 107 333 135 c 2
 333 370 l 2
 333 420 321 430 259 433 c 1
 259 450 l 1
 417 450 l 1
 417 107 l 2
 417 61 428 50 474 50 c 2
 479 50 l 1
393 507 m 5
 359 507 l 5
 237 610 l 5
 116 507 l 5
 82 507 l 5
 206 674 l 5
 268 674 l 5
 393 507 l 5
EndSplineSet
EndChar
StartChar: udieresis
Encoding: 252 252
Width: 500
Flags: W
HStem: -10 58<206.5 210.5> -9 20 433 17 436 14
VStem: 9 99 71 84<120 124 124 372 372 395> 208 99 333 84<135 370 370 395>
Fore
479 50 m 1
 479 36 l 1
 428 22 392 11 342 -9 c 1
 338 -7 l 1
 338 76 l 1
 295 33 l 2
 268 6 229 -10 192 -10 c 0
 119 -10 71 41 71 120 c 2
 71 372 l 2
 71 418 57 433 9 436 c 1
 9 450 l 1
 155 450 l 1
 155 124 l 2
 155 82 187 48 226 48 c 0
 256 48 287 60 314 82 c 0
 328 93 333 107 333 135 c 2
 333 370 l 2
 333 420 321 430 259 433 c 1
 259 450 l 1
 417 450 l 1
 417 107 l 2
 417 61 428 50 474 50 c 2
 479 50 l 1
130 622 m 0
 158 622 181 599 181 572 c 0
 181 545 158 523 130 523 c 0
 103 523 82 545 82 573 c 4
 82 599 105 622 130 622 c 0
329 622 m 0
 357 622 380 599 380 572 c 0
 380 545 357 523 329 523 c 0
 302 523 281 545 281 573 c 0
 281 599 304 622 329 622 c 0
EndSplineSet
EndChar
StartChar: yacute
Encoding: 253 253
Width: 500
Flags: W
HStem: -218 84 430 20<14 220 220 220 340 475 475 475> 658 20<358.5 377>
Fore
475 450 m 1
 475 435 l 1
 451 432 440 422 427 390 c 1
 273 -18 l 2
 219 -162 171 -218 104 -218 c 0
 62 -218 30 -193 30 -160 c 0
 30 -136 50 -116 73 -116 c 0
 90 -116 107 -120 126 -127 c 0
 136 -132 145 -134 151 -134 c 0
 165 -134 187 -115 201 -89 c 0
 218 -59 241 4 241 19 c 0
 241 34 225 70 197 120 c 1
 182 150 l 1
 179 158 l 1
 65 404 l 2
 57 421 40 432 14 436 c 1
 14 450 l 1
 220 450 l 1
 220 435 l 1
 177 433 162 426 162 408 c 0
 162 397 166 384 172 370 c 2
 287 117 l 1
 384 393 l 1
 387 400 388 406 388 410 c 0
 388 426 372 435 340 435 c 1
 340 450 l 1
 475 450 l 1
217 507 m 1
 177 507 l 1
 324 655 l 2
 342 673 351 678 366 678 c 0
 388 678 401 666 401 646 c 0
 401 630 392 617 371 604 c 2
 217 507 l 1
EndSplineSet
EndChar
StartChar: thorn
Encoding: 254 254
Width: 500
Flags: W
HStem: -217 18 -217 217 -217 18 -10 32<239.5 299> 400 60<275.5 298>
VStem: 75 84<-131 -124 -124 33 73 88 88 334 382 573 573 594> 384 86<174.5 266>
Fore
9 623 m 1
 9 639 l 1
 78 658 106 666 154 683 c 1
 159 680 l 1
 159 382 l 1
 204 436 248 460 303 460 c 0
 400 460 470 371 470 247 c 0
 470 102 378 -10 260 -10 c 0
 218 -10 194 0 159 33 c 1
 159 -124 l 2
 159 -187 172 -198 247 -199 c 1
 247 -217 l 1
 5 -217 l 1
 5 -199 l 1
 64 -194 75 -183 75 -131 c 2
 75 573 l 2
 75 615 66 624 26 624 c 0
 19 624 15 624 9 623 c 1
159 334 m 2
 159 88 l 2
 159 58 216 22 263 22 c 0
 335 22 384 97 384 208 c 0
 384 324 335 400 261 400 c 0
 215 400 159 364 159 334 c 2
EndSplineSet
EndChar
StartChar: ydieresis
Encoding: 255 255
Width: 500
Flags: W
HStem: -218 84 430 20<14 220 220 220 340 475 475 475>
VStem: 14 99 213 99
Fore
475 450 m 1
 475 435 l 1
 451 432 440 422 427 390 c 1
 273 -18 l 2
 219 -162 171 -218 104 -218 c 0
 62 -218 30 -193 30 -160 c 0
 30 -136 50 -116 73 -116 c 0
 90 -116 107 -120 126 -127 c 0
 136 -132 145 -134 151 -134 c 0
 165 -134 187 -115 201 -89 c 0
 218 -59 241 4 241 19 c 0
 241 34 225 70 197 120 c 1
 182 150 l 1
 179 158 l 1
 65 404 l 2
 57 421 40 432 14 436 c 1
 14 450 l 1
 220 450 l 1
 220 435 l 1
 177 433 162 426 162 408 c 0
 162 397 166 384 172 370 c 2
 287 117 l 1
 384 393 l 1
 387 400 388 406 388 410 c 0
 388 426 372 435 340 435 c 1
 340 450 l 1
 475 450 l 1
165 622 m 0
 193 622 216 599 216 572 c 0
 216 545 193 523 165 523 c 0
 138 523 117 545 117 573 c 4
 117 599 140 622 165 622 c 0
364 622 m 0
 392 622 415 599 415 572 c 0
 415 545 392 523 364 523 c 0
 337 523 316 545 316 573 c 0
 316 599 339 622 364 622 c 0
EndSplineSet
EndChar
StartChar: Amacron
Encoding: 256 256
Width: 722
Flags: W
HStem: 0 20 216 41<216 447> 654 20<347 367 367 367> 759 54<206 517>
Fore
706 19 m 1
 706 0 l 1
 451 0 l 1
 451 19 l 1
 504 20 521 28 521 53 c 0
 521 67 514 93 502 120 c 2
 461 216 l 1
 199 216 l 1
 153 99 l 2
 148 86 145 72 145 60 c 0
 145 32 165 19 213 19 c 1
 213 0 l 1
 15 0 l 1
 15 19 l 1
 63 21 75 37 139 183 c 1
 347 674 l 1
 367 674 l 1
 616 106 l 1
 651 32 661 22 706 19 c 1
216 257 m 1
 447 257 l 1
 331 532 l 1
 216 257 l 1
206 813 m 1
 517 813 l 1
 517 759 l 1
 206 759 l 1
 206 813 l 1
EndSplineSet
EndChar
StartChar: amacron
Encoding: 257 257
Width: 444
Flags: W
HStem: -10 57 -10 58 -10 57 -10 58 436 24<191 235.5> 547 54<67 378>
VStem: 56 83 287 81<123 268 268 268 292 300>
Fore
442 66 m 1
 442 40 l 1
 407 2 386 -10 352 -10 c 0
 311 -10 293 11 288 63 c 1
 227 11 186 -10 142 -10 c 0
 81 -10 37 34 37 97 c 0
 37 130 51 164 73 184 c 0
 116 222 133 230 287 292 c 1
 287 353 l 2
 287 407 260 436 211 436 c 0
 171 436 139 414 139 387 c 0
 139 380 140 372 142 363 c 0
 143 356 144 351 144 347 c 0
 144 325 123 305 99 305 c 0
 76 305 56 325 56 348 c 0
 56 411 130 460 224 460 c 0
 283 460 326 441 348 405 c 0
 363 381 368 352 368 300 c 2
 368 105 l 2
 368 61 375 47 398 47 c 0
 413 47 425 52 442 66 c 1
287 123 m 2
 287 268 l 1
 166 224 125 188 125 129 c 2
 125 125 l 2
 125 82 153 48 188 48 c 0
 209 48 237 57 261 71 c 0
 282 83 287 92 287 123 c 2
67 601 m 1
 378 601 l 1
 378 547 l 1
 67 547 l 1
 67 601 l 1
EndSplineSet
EndChar
StartChar: Abreve
Encoding: 258 258
Width: 722
Flags: W
HStem: 0 20 216 41<216 447> 654 20<347 367 367 367> 719 60<336.5 391>
Fore
706 19 m 1
 706 0 l 1
 451 0 l 1
 451 19 l 1
 504 20 521 28 521 53 c 0
 521 67 514 93 502 120 c 2
 461 216 l 1
 199 216 l 1
 153 99 l 2
 148 86 145 72 145 60 c 0
 145 32 165 19 213 19 c 1
 213 0 l 1
 15 0 l 1
 15 19 l 1
 63 21 75 37 139 183 c 1
 347 674 l 1
 367 674 l 1
 616 106 l 1
 651 32 661 22 706 19 c 1
216 257 m 1
 447 257 l 1
 331 532 l 1
 216 257 l 1
473 876 m 5
 502 876 l 5
 490 770 444 719 360 719 c 4
 313 719 273 738 248 773 c 4
 229 801 222 825 221 876 c 5
 250 876 l 5
 264 809 298 779 362 779 c 4
 420 779 445 800 473 876 c 5
EndSplineSet
EndChar
StartChar: abreve
Encoding: 259 259
Width: 444
Flags: W
HStem: -10 57 -10 58 -10 57 -10 58 436 24<191 235.5> 507 60<197.5 252> 644 20<82 111 111 111 334 363 363 363>
VStem: 56 83 287 81<123 268 268 268 292 300>
Fore
442 66 m 1
 442 40 l 1
 407 2 386 -10 352 -10 c 0
 311 -10 293 11 288 63 c 1
 227 11 186 -10 142 -10 c 0
 81 -10 37 34 37 97 c 0
 37 130 51 164 73 184 c 0
 116 222 133 230 287 292 c 1
 287 353 l 2
 287 407 260 436 211 436 c 0
 171 436 139 414 139 387 c 0
 139 380 140 372 142 363 c 0
 143 356 144 351 144 347 c 0
 144 325 123 305 99 305 c 0
 76 305 56 325 56 348 c 0
 56 411 130 460 224 460 c 0
 283 460 326 441 348 405 c 0
 363 381 368 352 368 300 c 2
 368 105 l 2
 368 61 375 47 398 47 c 0
 413 47 425 52 442 66 c 1
287 123 m 2
 287 268 l 1
 166 224 125 188 125 129 c 2
 125 125 l 2
 125 82 153 48 188 48 c 0
 209 48 237 57 261 71 c 0
 282 83 287 92 287 123 c 2
334 664 m 5
 363 664 l 5
 351 558 305 507 221 507 c 4
 174 507 134 526 109 561 c 4
 90 589 83 613 82 664 c 5
 111 664 l 5
 125 597 159 567 223 567 c 4
 281 567 306 588 334 664 c 5
EndSplineSet
EndChar
StartChar: Aogonek
Encoding: 260 260
Width: 722
Flags: MW
HStem: -165 56<684 694.5> 216 41<216 447> 654 20<347 367 367 367>
VStem: 601 56<-80.5 -72.5>
Fore
706 19 m 1
 706 0 l 1
 684 -5 657 -44 657 -69 c 0
 657 -92 673 -109 695 -109 c 0
 716 -109 735 -99 766 -73 c 1
 786 -89 l 1
 749 -142 715 -165 674 -165 c 0
 633 -165 601 -132 601 -89 c 0
 601 -56 616 -32 655 0 c 1
 451 0 l 1
 451 19 l 1
 504 20 521 28 521 53 c 0
 521 67 514 93 502 120 c 2
 461 216 l 1
 199 216 l 1
 153 99 l 2
 148 86 145 72 145 60 c 0
 145 32 165 19 213 19 c 1
 213 0 l 1
 15 0 l 1
 15 19 l 1
 63 21 75 37 139 183 c 1
 347 674 l 1
 367 674 l 1
 616 106 l 1
 651 32 661 22 706 19 c 1
216 257 m 1
 447 257 l 1
 331 532 l 1
 216 257 l 1
EndSplineSet
EndChar
StartChar: aogonek
Encoding: 261 261
Width: 444
Flags: W
HStem: -165 56<341.5 352.5> -10 58 436 24<191 235.5>
VStem: 56 83 259 56<-79 -73> 287 81<123 268 268 268 292 300>
Fore
442 66 m 1
 442 40 l 1
 407 2 396 -4 355 -11 c 0
 331 -16 315 -38 315 -66 c 0
 315 -92 330 -109 353 -109 c 0
 374 -109 393 -99 424 -73 c 1
 444 -89 l 1
 407 -142 373 -165 332 -165 c 0
 291 -165 259 -132 259 -89 c 0
 259 -57 275 -30 313 0 c 1
 297 15 291 30 288 63 c 1
 227 11 186 -10 142 -10 c 0
 81 -10 37 34 37 97 c 0
 37 130 51 164 73 184 c 0
 116 222 133 230 287 292 c 1
 287 353 l 2
 287 407 260 436 211 436 c 0
 171 436 139 414 139 387 c 0
 139 380 140 372 142 363 c 0
 143 356 144 351 144 347 c 0
 144 325 123 305 99 305 c 0
 76 305 56 325 56 348 c 0
 56 411 130 460 224 460 c 0
 283 460 326 441 348 405 c 0
 363 381 368 352 368 300 c 2
 368 105 l 2
 368 61 375 47 398 47 c 0
 413 47 425 52 442 66 c 1
287 123 m 2
 287 268 l 1
 166 224 125 188 125 129 c 2
 125 125 l 2
 125 82 153 48 188 48 c 0
 209 48 237 57 261 71 c 0
 282 83 287 92 287 123 c 2
EndSplineSet
EndChar
StartChar: Cacute
Encoding: 262 262
Width: 667
Flags: MW
HStem: -14 44<360.5 416.5> 636 40<322 386.5>
VStem: 28 116<282.5 380>
Fore
620 450 m 1
 597 450 l 1
 578 515 563 543 531 575 c 0
 491 615 439 636 382 636 c 0
 237 636 144 519 144 338 c 0
 144 227 175 137 230 88 c 0
 273 50 329 30 392 30 c 0
 475 30 541 60 615 131 c 1
 633 113 l 1
 572 32 473 -14 360 -14 c 0
 261 -14 169 24 109 89 c 0
 58 146 28 232 28 325 c 0
 28 435 66 528 136 590 c 0
 198 645 281 676 363 676 c 0
 410 676 460 668 509 652 c 0
 524 646 539 643 548 643 c 0
 568 643 584 655 590 676 c 1
 611 676 l 1
 620 450 l 1
360 719 m 1
 320 719 l 1
 467 867 l 2
 485 885 494 890 509 890 c 0
 531 890 544 878 544 858 c 0
 544 842 535 829 514 816 c 2
 360 719 l 1
EndSplineSet
EndChar
StartChar: cacute
Encoding: 263 263
Width: 444
Flags: W
HStem: -10 72<211.5 237.5> 431 29<219.5 256> 658 20<350.5 369>
VStem: 25 77<199.5 252.5>
Fore
398 156 m 1
 412 147 l 1
 382 88 363 61 336 37 c 0
 300 6 260 -10 215 -10 c 0
 104 -10 25 83 25 213 c 0
 25 292 53 360 103 404 c 0
 144 440 195 460 244 460 c 0
 328 460 398 413 398 357 c 0
 398 334 376 315 350 315 c 0
 329 315 311 333 303 361 c 2
 297 383 l 2
 287 420 274 431 238 431 c 0
 157 431 102 360 102 257 c 0
 102 142 166 62 257 62 c 0
 314 62 350 86 398 156 c 1
209 507 m 1
 169 507 l 1
 316 655 l 2
 334 673 343 678 358 678 c 0
 380 678 393 666 393 646 c 0
 393 630 384 617 363 604 c 2
 209 507 l 1
EndSplineSet
EndChar
StartChar: Ccircumflex
Encoding: 264 264
Width: 667
Flags: W
HStem: -13.5621 43.8498<360 392> 450 21G<597 620> 636 40<360 392>
VStem: 28 116<306 354>
Fore
536 719 m 5
 502 719 l 5
 380 822 l 5
 259 719 l 5
 225 719 l 5
 349 886 l 5
 411 886 l 5
 536 719 l 5
620 450 m 1
 597 450 l 1
 578 515 563 543 531 575 c 0
 491 615 439 636 382 636 c 0
 237 636 144 519 144 338 c 0
 144 227 175 137 230 88 c 0
 273 50 329 30 392 30 c 0
 475 30 541 60 615 131 c 1
 633 113 l 1
 572 32 473 -14 360 -14 c 0
 261 -14 169 24 109 89 c 0
 58 146 28 232 28 325 c 0
 28 435 66 528 136 590 c 0
 198 645 281 676 363 676 c 0
 410 676 460 668 509 652 c 0
 524 646 539 643 548 643 c 0
 568 643 584 655 590 676 c 1
 611 676 l 1
 620 450 l 1
EndSplineSet
MinimumDistance: x11,-1 
EndChar
StartChar: ccircumflex
Encoding: 265 265
Width: 444
Flags: W
HStem: -9.99736 71.9974<215 257> 431 29<233 249> 654 20G<206 268>
VStem: 25.0015 76.9985<213 257>
Fore
393 507 m 5
 359 507 l 5
 237 610 l 5
 116 507 l 5
 82 507 l 5
 206 674 l 5
 268 674 l 5
 393 507 l 5
398 156 m 1
 412 147 l 1
 382 88 363 61 336 37 c 0
 300 6 260 -10 215 -10 c 0
 104 -10 25 83 25 213 c 0
 25 292 53 360 103 404 c 0
 144 440 195 460 244 460 c 0
 328 460 398 413 398 357 c 0
 398 334 376 315 350 315 c 0
 329 315 311 333 303 361 c 2
 297 383 l 2
 287 420 274 431 238 431 c 0
 157 431 102 360 102 257 c 0
 102 142 166 62 257 62 c 0
 314 62 350 86 398 156 c 1
EndSplineSet
MinimumDistance: x19,-1 
EndChar
StartChar: Cdotaccent
Encoding: 266 266
Width: 667
Flags: W
HStem: -13.5146 43.7595<360 392> 450 21G<597 620> 636 40<360 392> 735 99<359 367>
VStem: 28 116<306 354> 317 99<783 787>
Fore
365 834 m 4
 393 834 416 811 416 784 c 4
 416 757 393 735 365 735 c 4
 338 735 317 757 317 785 c 4
 317 811 340 834 365 834 c 4
620 450 m 1
 597 450 l 1
 578 515 563 543 531 575 c 0
 491 615 439 636 382 636 c 0
 237 636 144 519 144 338 c 0
 144 227 175 137 230 88 c 0
 273 50 329 30 392 30 c 0
 475 30 541 60 615 131 c 1
 633 113 l 1
 572 32 473 -14 360 -14 c 0
 261 -14 169 24 109 89 c 0
 58 146 28 232 28 325 c 0
 28 435 66 528 136 590 c 0
 198 645 281 676 363 676 c 0
 410 676 460 668 509 652 c 0
 524 646 539 643 548 643 c 0
 568 643 584 655 590 676 c 1
 611 676 l 1
 620 450 l 1
EndSplineSet
MinimumDistance: x1,-1 
EndChar
StartChar: cdotaccent
Encoding: 267 267
Width: 444
Flags: W
HStem: -9.99736 71.9974<215 257> 431 29<233 249> 523 99<214 223>
VStem: 25.0015 76.9985<213 257> 173 99<566 575>
Fore
221 622 m 4
 249 622 272 599 272 572 c 4
 272 545 249 523 221 523 c 4
 194 523 173 545 173 573 c 4
 173 599 196 622 221 622 c 4
398 156 m 1
 412 147 l 1
 382 88 363 61 336 37 c 0
 300 6 260 -10 215 -10 c 0
 104 -10 25 83 25 213 c 0
 25 292 53 360 103 404 c 0
 144 440 195 460 244 460 c 0
 328 460 398 413 398 357 c 0
 398 334 376 315 350 315 c 0
 329 315 311 333 303 361 c 2
 297 383 l 2
 287 420 274 431 238 431 c 0
 157 431 102 360 102 257 c 0
 102 142 166 62 257 62 c 0
 314 62 350 86 398 156 c 1
EndSplineSet
MinimumDistance: x1,-1 
EndChar
StartChar: Ccaron
Encoding: 268 268
Width: 667
Flags: MW
HStem: -14 44<360.5 416.5> 636 40<322 386.5>
VStem: 28 116<282.5 380>
Fore
620 450 m 1
 597 450 l 1
 578 515 563 543 531 575 c 0
 491 615 439 636 382 636 c 0
 237 636 144 519 144 338 c 0
 144 227 175 137 230 88 c 0
 273 50 329 30 392 30 c 0
 475 30 541 60 615 131 c 1
 633 113 l 1
 572 32 473 -14 360 -14 c 0
 261 -14 169 24 109 89 c 0
 58 146 28 232 28 325 c 0
 28 435 66 528 136 590 c 0
 198 645 281 676 363 676 c 0
 410 676 460 668 509 652 c 0
 524 646 539 643 548 643 c 0
 568 643 584 655 590 676 c 1
 611 676 l 1
 620 450 l 1
519 886 m 1
 394 719 l 1
 332 719 l 1
 208 886 l 1
 242 886 l 1
 363 783 l 5
 485 886 l 1
 519 886 l 1
EndSplineSet
EndChar
StartChar: ccaron
Encoding: 269 269
Width: 444
Flags: W
HStem: -10 72<211.5 237.5> 431 29<219.5 256> 654 20<87 121 121 121 364 398 398 398>
VStem: 25 77<199.5 252.5>
Fore
398 156 m 1
 412 147 l 1
 382 88 363 61 336 37 c 0
 300 6 260 -10 215 -10 c 0
 104 -10 25 83 25 213 c 0
 25 292 53 360 103 404 c 0
 144 440 195 460 244 460 c 0
 328 460 398 413 398 357 c 0
 398 334 376 315 350 315 c 0
 329 315 311 333 303 361 c 2
 297 383 l 2
 287 420 274 431 238 431 c 0
 157 431 102 360 102 257 c 0
 102 142 166 62 257 62 c 0
 314 62 350 86 398 156 c 1
398 674 m 1
 273 507 l 1
 211 507 l 1
 87 674 l 1
 121 674 l 1
 242 571 l 5
 364 674 l 1
 398 674 l 1
EndSplineSet
EndChar
StartChar: Dcaron
Encoding: 270 270
Width: 722
Flags: W
HStem: 0 19 0 37<238 300> 625 37<237.5 286 286 301> 643 19
VStem: 104 102<109 553 553 586> 576 109<285.5 379>
Fore
104 109 m 2
 104 553 l 2
 104 627 95 636 16 643 c 1
 16 662 l 1
 286 662 l 2
 423 662 532 626 600 557 c 0
 655 502 685 424 685 334 c 0
 685 237 648 148 583 89 c 0
 521 33 416 0 300 0 c 2
 16 0 l 1
 16 19 l 1
 92 24 104 37 104 109 c 2
206 586 m 2
 206 78 l 2
 206 46 218 37 258 37 c 0
 345 37 403 49 454 78 c 0
 535 125 576 209 576 327 c 0
 576 435 535 521 457 575 c 0
 409 609 344 625 258 625 c 0
 217 625 206 617 206 586 c 2
517 886 m 1
 392 719 l 1
 330 719 l 1
 206 886 l 1
 240 886 l 1
 361 783 l 1
 483 886 l 1
 517 886 l 1
EndSplineSet
EndChar
StartChar: dcaron
Encoding: 271 271
Width: 600
Flags: W
HStem: -10 52<209.5 240> 42 16 432 28<200 255> 572 104
VStem: 27 86<183.5 276> 127 39 340 84<102 114 114 332 332 358.5 417 573 573 593.5>
Fore
344 -10 m 1
 340 -7 l 1
 340 57 l 1
 306 10 268 -10 212 -10 c 0
 102 -10 27 77 27 205 c 0
 27 347 120 460 235 460 c 0
 275 460 302 449 340 417 c 1
 340 573 l 2
 340 614 331 624 294 624 c 0
 286 624 280 624 272 623 c 1
 272 639 l 1
 336 656 371 666 419 683 c 1
 424 681 l 1
 424 114 l 2
 424 68 432 57 468 57 c 0
 471 57 473 57 491 58 c 1
 491 42 l 1
 344 -10 l 1
340 102 m 2
 340 332 l 2
 340 385 291 432 238 432 c 0
 162 432 113 358 113 245 c 0
 113 122 168 42 251 42 c 0
 280 42 305 52 323 72 c 0
 333 83 340 95 340 102 c 2
487 433 m 1
 478 452 l 1
 532 489 560 525 560 558 c 0
 560 566 554 572 546 572 c 0
 545 572 545 572 538 570 c 0
 532 569 525 568 519 568 c 0
 483 568 460 587 460 619 c 0
 460 653 484 676 519 676 c 0
 564 676 599 637 599 587 c 0
 599 527 554 466 487 433 c 1
EndSplineSet
EndChar
StartChar: Dcroat
Encoding: 272 272
Width: 722
Flags: W
HStem: 0 19 0 37<238 300> 315 44<21 104 206 352> 625 37<236 286 286 300.5> 643 19
VStem: 104 102<109 315 359 553 553 586> 576 109<285.5 379>
Fore
104 315 m 1
 21 315 l 1
 21 359 l 1
 104 359 l 1
 104 553 l 2
 104 627 95 636 16 643 c 1
 16 662 l 1
 286 662 l 2
 423 662 532 626 600 557 c 0
 655 502 685 424 685 334 c 0
 685 237 648 148 583 89 c 0
 521 33 416 0 300 0 c 2
 16 0 l 1
 16 19 l 1
 92 24 104 37 104 109 c 2
 104 315 l 1
352 359 m 1
 352 315 l 1
 206 315 l 1
 206 78 l 2
 206 46 218 37 258 37 c 0
 345 37 403 49 454 78 c 0
 535 125 576 209 576 327 c 0
 576 435 535 521 457 575 c 0
 409 609 345 625 256 625 c 0
 216 625 206 617 206 586 c 2
 206 359 l 1
 352 359 l 1
EndSplineSet
EndChar
StartChar: dcroat
Encoding: 273 273
Width: 500
Flags: MW
HStem: -10 52<209.5 240> 42 16 432 28<200 255> 527 34<219 340 424 500>
VStem: 27 86<183.5 276> 340 84<102 114 114 332 332 358.5 417 527 561 573 573 593.5>
Fore
340 527 m 1
 219 527 l 1
 219 561 l 1
 340 561 l 1
 340 573 l 2
 340 614 331 624 294 624 c 0
 286 624 280 624 272 623 c 1
 272 639 l 1
 336 656 371 666 419 683 c 1
 424 681 l 1
 424 561 l 1
 500 561 l 1
 500 527 l 1
 424 527 l 1
 424 114 l 2
 424 68 432 57 468 57 c 0
 471 57 473 57 491 58 c 1
 491 42 l 1
 344 -10 l 1
 340 -7 l 1
 340 57 l 1
 306 10 268 -10 212 -10 c 0
 102 -10 27 77 27 205 c 0
 27 347 120 460 235 460 c 0
 275 460 302 449 340 417 c 1
 340 527 l 1
340 102 m 2
 340 332 l 2
 340 385 291 432 238 432 c 0
 162 432 113 358 113 245 c 0
 113 122 168 42 251 42 c 0
 280 42 305 52 323 72 c 0
 333 83 340 95 340 102 c 2
EndSplineSet
EndChar
StartChar: Emacron
Encoding: 274 274
Width: 611
Flags: W
HStem: 0 37<306 333 333 404.5> 0 19 0 37 327 41<201 355> 624 38<220.5 234 234 369> 643 19 759 54<150 461>
VStem: 99 102<109 327 368 553 553 588>
Fore
597 169 m 1
 552 0 l 1
 12 0 l 1
 12 19 l 1
 85 24 99 39 99 109 c 2
 99 553 l 2
 99 623 86 637 12 643 c 1
 12 662 l 1
 543 662 l 1
 546 519 l 1
 521 519 l 1
 504 609 482 624 369 624 c 2
 234 624 l 2
 207 624 201 618 201 590 c 2
 201 368 l 1
 355 368 l 2
 402 368 430 376 443 393 c 0
 454 407 458 422 465 463 c 1
 488 463 l 1
 488 231 l 1
 465 231 l 1
 452 314 437 327 355 327 c 2
 201 327 l 1
 201 80 l 2
 201 63 203 52 208 49 c 1
 215 42 257 37 306 37 c 2
 333 37 l 2
 476 37 519 61 569 169 c 1
 597 169 l 1
150 813 m 1
 461 813 l 1
 461 759 l 1
 150 759 l 1
 150 813 l 1
EndSplineSet
EndChar
StartChar: emacron
Encoding: 275 275
Width: 444
Flags: W
HStem: -10 69<224.5 259.5> 277 32<99 303> 424 36<209 235.5> 547 54<67 378>
Fore
408 164 m 1
 424 157 l 1
 382 49 307 -10 212 -10 c 0
 97 -10 25 76 25 214 c 0
 25 296 52 367 99 408 c 0
 137 442 184 460 234 460 c 0
 286 460 332 439 362 403 c 0
 387 371 397 342 405 277 c 1
 97 277 l 1
 99 216 106 183 124 145 c 0
 153 88 196 59 253 59 c 0
 317 59 360 88 408 164 c 1
99 309 m 1
 303 309 l 1
 290 396 266 424 205 424 c 0
 144 424 110 387 99 309 c 1
67 601 m 1
 378 601 l 1
 378 547 l 1
 67 547 l 1
 67 601 l 1
EndSplineSet
EndChar
StartChar: Ebreve
Encoding: 276 276
Width: 611
Flags: W
HStem: 0 37<284 371> 327 41<202 380> 624 38<220 407> 719 60<284 308>
VStem: 99 102<96 326 369 576> 99 389<327 368>
Fore
405 876 m 5
 434 876 l 5
 422 770 376 719 292 719 c 4
 245 719 205 738 180 773 c 4
 161 801 154 825 153 876 c 5
 182 876 l 5
 196 809 230 779 294 779 c 4
 352 779 377 800 405 876 c 5
597 169 m 1
 552 0 l 1
 12 0 l 1
 12 19 l 1
 85 24 99 39 99 109 c 2
 99 553 l 2
 99 623 86 637 12 643 c 1
 12 662 l 1
 543 662 l 1
 546 519 l 1
 521 519 l 1
 504 609 482 624 369 624 c 2
 234 624 l 2
 207 624 201 618 201 590 c 2
 201 368 l 1
 355 368 l 2
 402 368 430 376 443 393 c 0
 454 407 458 422 465 463 c 1
 488 463 l 1
 488 231 l 1
 465 231 l 1
 452 314 437 327 355 327 c 2
 201 327 l 1
 201 80 l 2
 201 63 203 52 208 49 c 1
 215 42 257 37 306 37 c 2
 333 37 l 2
 476 37 519 61 569 169 c 1
 597 169 l 1
EndSplineSet
MinimumDistance: x25,-1 
EndChar
StartChar: ebreve
Encoding: 277 277
Width: 444
Flags: W
HStem: -9.99782 68.9978<212 253> 277 32<100 302> 423.78 35.2478<205 234> 507 60<204 236> 644 20G<82 111 334 363>
Fore
334 664 m 5
 363 664 l 5
 351 558 305 507 221 507 c 4
 174 507 134 526 109 561 c 4
 90 589 83 613 82 664 c 5
 111 664 l 5
 125 597 159 567 223 567 c 4
 281 567 306 588 334 664 c 5
408 164 m 1
 424 157 l 1
 382 49 307 -10 212 -10 c 0
 97 -10 25 76 25 214 c 0
 25 296 52 367 99 408 c 0
 137 442 184 460 234 460 c 0
 286 460 332 439 362 403 c 0
 387 371 397 342 405 277 c 1
 97 277 l 1
 99 216 106 183 124 145 c 0
 153 88 196 59 253 59 c 0
 317 59 360 88 408 164 c 1
99 309 m 1
 303 309 l 1
 290 396 266 424 205 424 c 0
 144 424 110 387 99 309 c 1
EndSplineSet
EndChar
StartChar: Edotaccent
Encoding: 278 278
Width: 611
Flags: W
HStem: 0 37<306 333 333 404.5> 0 19 0 37 327 41<201 355> 624 38<220.5 234 234 369> 643 19
VStem: 99 102<109 327 368 553 553 588>
Fore
597 169 m 1
 552 0 l 1
 12 0 l 1
 12 19 l 1
 85 24 99 39 99 109 c 2
 99 553 l 2
 99 623 86 637 12 643 c 1
 12 662 l 1
 543 662 l 1
 546 519 l 1
 521 519 l 1
 504 609 482 624 369 624 c 2
 234 624 l 2
 207 624 201 618 201 590 c 2
 201 368 l 1
 355 368 l 2
 402 368 430 376 443 393 c 0
 454 407 458 422 465 463 c 1
 488 463 l 1
 488 231 l 1
 465 231 l 1
 452 314 437 327 355 327 c 2
 201 327 l 1
 201 80 l 2
 201 63 203 52 208 49 c 1
 215 42 257 37 306 37 c 2
 333 37 l 2
 476 37 519 61 569 169 c 1
 597 169 l 1
305 834 m 4
 333 834 356 811 356 784 c 4
 356 757 333 735 305 735 c 4
 278 735 257 757 257 785 c 4
 257 811 280 834 305 834 c 4
EndSplineSet
EndChar
StartChar: edotaccent
Encoding: 279 279
Width: 444
Flags: MW
HStem: -10 69<224.5 259.5> 277 32<99 303> 424 36<209 235.5>
Fore
408 164 m 1
 424 157 l 1
 382 49 307 -10 212 -10 c 0
 97 -10 25 76 25 214 c 0
 25 296 52 367 99 408 c 0
 137 442 184 460 234 460 c 0
 286 460 332 439 362 403 c 0
 387 371 397 342 405 277 c 1
 97 277 l 1
 99 216 106 183 124 145 c 0
 153 88 196 59 253 59 c 0
 317 59 360 88 408 164 c 1
99 309 m 1
 303 309 l 1
 290 396 266 424 205 424 c 0
 144 424 110 387 99 309 c 1
221 622 m 4
 249 622 272 599 272 572 c 4
 272 545 249 523 221 523 c 4
 194 523 173 545 173 573 c 4
 173 599 196 622 221 622 c 4
EndSplineSet
EndChar
StartChar: Eogonek
Encoding: 280 280
Width: 611
Flags: W
HStem: -165 56<509 519.5> 0 37<306 333 333 404.5> 327 41<201 355> 624 38<220.5 234 234 369> 643 19
VStem: 99 102<109 327 368 553 553 588> 426 56<-80.5 -72.5>
Fore
552 0 m 1
 546 0 l 2
 516 0 482 -37 482 -69 c 0
 482 -92 498 -109 520 -109 c 0
 541 -109 560 -99 591 -73 c 1
 611 -89 l 1
 574 -142 540 -165 499 -165 c 0
 458 -165 426 -132 426 -89 c 0
 426 -56 441 -31 480 0 c 1
 12 0 l 1
 12 19 l 1
 85 24 99 38 99 109 c 2
 99 553 l 2
 99 623 86 637 12 643 c 1
 12 662 l 1
 543 662 l 1
 546 519 l 1
 521 519 l 1
 504 609 482 624 369 624 c 2
 234 624 l 2
 207 624 201 618 201 590 c 2
 201 368 l 1
 355 368 l 2
 402 368 430 376 443 393 c 0
 454 407 458 422 465 463 c 1
 488 463 l 1
 488 231 l 1
 465 231 l 1
 452 314 437 327 355 327 c 2
 201 327 l 1
 201 80 l 2
 201 63 203 52 208 49 c 1
 215 42 257 37 306 37 c 2
 333 37 l 2
 476 37 519 61 569 169 c 1
 597 169 l 1
 552 0 l 1
EndSplineSet
EndChar
StartChar: eogonek
Encoding: 281 281
Width: 444
Flags: MW
HStem: -165 56<302 313> -10 69 277 32<99 303> 424 36<209 235.5>
VStem: 219 56<-81.5 -73>
Fore
408 164 m 1
 424 157 l 1
 408 113 386 81 330 22 c 0
 288 -22 275 -44 275 -70 c 0
 275 -93 291 -109 313 -109 c 0
 335 -109 354 -99 385 -73 c 1
 405 -89 l 1
 367 -142 334 -165 292 -165 c 0
 251 -165 219 -132 219 -89 c 0
 219 -57 234 -31 272 -1 c 1
 249 -8 234 -10 213 -10 c 0
 97 -10 25 76 25 214 c 0
 25 296 52 367 99 408 c 0
 137 442 184 460 234 460 c 0
 286 460 332 439 362 403 c 0
 387 371 397 342 405 277 c 1
 97 277 l 1
 99 216 106 183 124 145 c 0
 153 88 196 59 253 59 c 0
 317 59 360 88 408 164 c 1
99 309 m 1
 303 309 l 1
 290 396 266 424 205 424 c 0
 144 424 110 387 99 309 c 1
EndSplineSet
EndChar
StartChar: Ecaron
Encoding: 282 282
Width: 611
Flags: W
HStem: 0 37<306 333 333 404.5> 0 19 0 37 327 41<201 355> 624 38<220.5 234 234 369> 643 19
VStem: 99 102<109 327 368 553 553 588>
Fore
597 169 m 1
 552 0 l 1
 12 0 l 1
 12 19 l 1
 85 24 99 39 99 109 c 2
 99 553 l 2
 99 623 86 637 12 643 c 1
 12 662 l 1
 543 662 l 1
 546 519 l 1
 521 519 l 1
 504 609 482 624 369 624 c 2
 234 624 l 2
 207 624 201 618 201 590 c 2
 201 368 l 1
 355 368 l 2
 402 368 430 376 443 393 c 0
 454 407 458 422 465 463 c 1
 488 463 l 1
 488 231 l 1
 465 231 l 1
 452 314 437 327 355 327 c 2
 201 327 l 1
 201 80 l 2
 201 63 203 52 208 49 c 1
 215 42 257 37 306 37 c 2
 333 37 l 2
 476 37 519 61 569 169 c 1
 597 169 l 1
461 886 m 1
 336 719 l 5
 274 719 l 1
 150 886 l 1
 184 886 l 1
 305 783 l 1
 427 886 l 1
 461 886 l 1
EndSplineSet
EndChar
StartChar: ecaron
Encoding: 283 283
Width: 444
Flags: W
HStem: -10 69<224.5 259.5> 277 32<99 303> 424 36<209 235.5> 654 20<67 101 101 101 344 378 378 378>
Fore
408 164 m 1
 424 157 l 1
 382 49 307 -10 212 -10 c 0
 97 -10 25 76 25 214 c 0
 25 296 52 367 99 408 c 0
 137 442 184 460 234 460 c 0
 286 460 332 439 362 403 c 0
 387 371 397 342 405 277 c 1
 97 277 l 1
 99 216 106 183 124 145 c 0
 153 88 196 59 253 59 c 0
 317 59 360 88 408 164 c 1
99 309 m 1
 303 309 l 1
 290 396 266 424 205 424 c 0
 144 424 110 387 99 309 c 1
378 674 m 1
 253 507 l 5
 191 507 l 1
 67 674 l 1
 101 674 l 1
 222 571 l 1
 344 674 l 1
 378 674 l 1
EndSplineSet
EndChar
StartChar: Gcircumflex
Encoding: 284 284
Width: 722
Flags: W
HStem: -14 40<384 413> 636 40<374 400>
VStem: 32 114<306 354> 454 255<336 353> 542 97<82 261>
Fore
536 719 m 5
 502 719 l 5
 380 822 l 5
 259 719 l 5
 225 719 l 5
 349 886 l 5
 411 886 l 5
 536 719 l 5
709 354 m 1
 709 336 l 1
 651 331 639 318 639 259 c 2
 639 56 l 1
 599 21 474 -14 388 -14 c 0
 278 -14 182 24 115 93 c 0
 59 152 32 227 32 325 c 0
 32 529 175 676 375 676 c 0
 420 676 466 668 511 653 c 0
 529 646 545 643 555 643 c 0
 576 643 594 657 600 676 c 1
 622 676 l 1
 630 465 l 1
 607 465 l 1
 582 526 566 553 536 581 c 0
 497 617 448 636 392 636 c 0
 324 636 262 609 218 560 c 0
 174 511 146 420 146 326 c 0
 146 140 246 26 409 26 c 0
 481 26 542 53 542 85 c 2
 542 247 l 2
 542 290 536 313 521 322 c 0
 509 330 497 333 454 336 c 1
 454 354 l 1
 709 354 l 1
EndSplineSet
MinimumDistance: x9,-1 
EndChar
StartChar: gcircumflex
Encoding: 285 285
Width: 500
Flags: W
HStem: -217.453 57.2098<201 244> 149 25<243 256> 388 39<388 469> 432 28<220 238> 654 20G<206 268>
VStem: 28.0066 69.9934<-121 -88> 69.508 83.4835<297 335> 328.997 77.0026<265 304> 433 27.0701<-64 -58>
Fore
393 507 m 5
 359 507 l 5
 237 610 l 5
 116 507 l 5
 82 507 l 5
 206 674 l 5
 268 674 l 5
 393 507 l 5
470 388 m 1
 387 388 l 1
 401 356 406 333 406 304 c 0
 406 254 391 219 358 191 c 0
 327 164 287 149 250 149 c 0
 244 149 231 150 212 152 c 0
 209 152 202 153 193 154 c 1
 166 146 133 111 133 91 c 0
 133 75 158 66 211 64 c 2
 340 58 l 2
 414 55 461 13 461 -49 c 0
 461 -87 444 -119 406 -150 c 0
 354 -192 276 -218 201 -218 c 0
 106 -218 28 -174 28 -121 c 0
 28 -84 55 -51 126 1 c 1
 85 21 73 33 73 54 c 0
 73 74 86 94 119 123 c 0
 125 128 143 145 162 163 c 1
 96 196 69 234 69 297 c 0
 69 388 143 460 236 460 c 0
 262 460 289 455 316 445 c 2
 338 437 l 2
 358 430 373 427 393 427 c 2
 470 427 l 1
 470 388 l 1
147 -2 m 1
 105 -52 98 -65 98 -88 c 0
 98 -132 156 -161 244 -161 c 0
 357 -161 433 -122 433 -64 c 0
 433 -28 400 -15 309 -15 c 0
 260 -15 180 -9 147 -2 c 1
152 338 m 2
 152 335 l 2
 152 239 194 174 254 174 c 0
 300 174 329 209 329 265 c 0
 329 304 317 350 299 385 c 0
 283 415 257 432 226 432 c 0
 180 432 152 397 152 338 c 2
EndSplineSet
EndChar
StartChar: Gbreve
Encoding: 286 286
Width: 722
Flags: W
HStem: -14 40<333 431> 636 40<358 397.5> 719 60<336.5 391>
VStem: 32 114<276 373> 542 97<85 247 247 259>
Fore
709 354 m 1
 709 336 l 1
 651 331 639 318 639 259 c 2
 639 56 l 1
 599 21 474 -14 388 -14 c 0
 278 -14 182 24 115 93 c 0
 59 152 32 227 32 325 c 0
 32 529 175 676 375 676 c 0
 420 676 466 668 511 653 c 0
 529 646 545 643 555 643 c 0
 576 643 594 657 600 676 c 1
 622 676 l 1
 630 465 l 1
 607 465 l 1
 582 526 566 553 536 581 c 0
 497 617 448 636 392 636 c 0
 324 636 262 609 218 560 c 0
 174 511 146 420 146 326 c 0
 146 140 246 26 409 26 c 0
 481 26 542 53 542 85 c 2
 542 247 l 2
 542 290 536 313 521 322 c 0
 509 330 497 333 454 336 c 1
 454 354 l 1
 709 354 l 1
473 876 m 5
 502 876 l 5
 490 770 444 719 360 719 c 4
 313 719 273 738 248 773 c 4
 229 801 222 825 221 876 c 5
 250 876 l 5
 264 809 298 779 362 779 c 4
 420 779 445 800 473 876 c 5
EndSplineSet
EndChar
StartChar: gbreve
Encoding: 287 287
Width: 500
Flags: W
HStem: -218 57<200 238.5> -2 20 149 25<247 268.5> 388 39<393 470> 432 28<203 241.5> 507 60<225.5 280> 644 20<110 139 139 139 362 391 391 391>
VStem: 28 70<-110 -102.5> 329 77<279 284.5> 433 28<-68 -46>
Fore
470 388 m 1
 387 388 l 1
 401 356 406 333 406 304 c 0
 406 254 391 219 358 191 c 0
 327 164 287 149 250 149 c 0
 244 149 231 150 212 152 c 0
 209 152 202 153 193 154 c 1
 166 146 133 111 133 91 c 0
 133 75 158 66 211 64 c 2
 340 58 l 2
 414 55 461 13 461 -49 c 0
 461 -87 444 -119 406 -150 c 0
 354 -192 276 -218 201 -218 c 0
 106 -218 28 -174 28 -121 c 0
 28 -84 55 -51 126 1 c 1
 85 21 73 33 73 54 c 0
 73 74 86 94 119 123 c 0
 125 128 143 145 162 163 c 1
 96 196 69 234 69 297 c 0
 69 388 143 460 236 460 c 0
 262 460 289 455 316 445 c 2
 338 437 l 2
 358 430 373 427 393 427 c 2
 470 427 l 1
 470 388 l 1
147 -2 m 1
 105 -52 98 -65 98 -88 c 0
 98 -132 156 -161 244 -161 c 0
 357 -161 433 -122 433 -64 c 0
 433 -28 400 -15 309 -15 c 0
 260 -15 180 -9 147 -2 c 1
152 338 m 2
 152 335 l 2
 152 239 194 174 254 174 c 0
 300 174 329 209 329 265 c 0
 329 304 317 350 299 385 c 0
 283 415 257 432 226 432 c 0
 180 432 152 397 152 338 c 2
362 664 m 5
 391 664 l 5
 379 558 333 507 249 507 c 4
 202 507 162 526 137 561 c 4
 118 589 111 613 110 664 c 5
 139 664 l 5
 153 597 187 567 251 567 c 4
 309 567 334 588 362 664 c 5
EndSplineSet
EndChar
StartChar: Gdotaccent
Encoding: 288 288
Width: 722
Flags: W
HStem: -14 40<384 411> 636 40<374 400> 735 99<355.892 375>
VStem: 32 114<306 354> 317 99<783 787> 454 255<336 353> 542 97<82 261>
Fore
365 834 m 0
 393 834 416 811 416 784 c 0
 416 757 393 735 365 735 c 0
 338 735 317 757 317 785 c 0
 317 811 340 834 365 834 c 0
709 354 m 1
 709 336 l 1
 651 331 639 318 639 259 c 2
 639 56 l 1
 599 21 474 -14 388 -14 c 0
 278 -14 182 24 115 93 c 0
 59 152 32 227 32 325 c 0
 32 529 175 676 375 676 c 0
 420 676 466 668 511 653 c 0
 529 646 545 643 555 643 c 0
 576 643 594 657 600 676 c 1
 622 676 l 1
 630 465 l 1
 607 465 l 1
 582 526 566 553 536 581 c 0
 497 617 448 636 392 636 c 0
 324 636 262 609 218 560 c 0
 174 511 146 420 146 326 c 0
 146 140 246 26 409 26 c 0
 481 26 542 53 542 85 c 2
 542 247 l 2
 542 290 536 313 521 322 c 0
 509 330 497 333 454 336 c 1
 454 354 l 1
 709 354 l 1
EndSplineSet
MinimumDistance: x6,-1 
EndChar
StartChar: gdotaccent
Encoding: 289 289
Width: 500
Flags: W
HStem: -217.453 57.2098<201 244> 149 25<243 256> 388 39<388 469> 432 28<220 238> 523 99<212 228>
VStem: 28.0066 69.9934<-121 -88> 69.508 83.4835<297 335> 173 99<566 575> 328.997 77.0026<265 304> 433 27.0701<-64 -58>
Fore
221 622 m 4
 249 622 272 599 272 572 c 0
 272 545 249 523 221 523 c 0
 194 523 173 545 173 573 c 0
 173 599 196 622 221 622 c 4
470 388 m 1
 387 388 l 1
 401 356 406 333 406 304 c 0
 406 254 391 219 358 191 c 0
 327 164 287 149 250 149 c 0
 244 149 231 150 212 152 c 0
 209 152 202 153 193 154 c 1
 166 146 133 111 133 91 c 0
 133 75 158 66 211 64 c 2
 340 58 l 2
 414 55 461 13 461 -49 c 0
 461 -87 444 -119 406 -150 c 0
 354 -192 276 -218 201 -218 c 0
 106 -218 28 -174 28 -121 c 0
 28 -84 55 -51 126 1 c 1
 85 21 73 33 73 54 c 0
 73 74 86 94 119 123 c 0
 125 128 143 145 162 163 c 1
 96 196 69 234 69 297 c 0
 69 388 143 460 236 460 c 0
 262 460 289 455 316 445 c 2
 338 437 l 2
 358 430 373 427 393 427 c 2
 470 427 l 1
 470 388 l 1
147 -2 m 1
 105 -52 98 -65 98 -88 c 0
 98 -132 156 -161 244 -161 c 0
 357 -161 433 -122 433 -64 c 0
 433 -28 400 -15 309 -15 c 0
 260 -15 180 -9 147 -2 c 1
152 338 m 2
 152 335 l 2
 152 239 194 174 254 174 c 0
 300 174 329 209 329 265 c 0
 329 304 317 350 299 385 c 0
 283 415 257 432 226 432 c 0
 180 432 152 397 152 338 c 2
EndSplineSet
EndChar
StartChar: Gcommaaccent
Encoding: 290 290
Width: 722
Flags: W
HStem: -142 104 -14 40<333 431> 636 40<358 397.5>
VStem: 32 114<276 373> 132 39 542 97<85 247 247 259>
Fore
709 354 m 1
 709 336 l 1
 651 331 639 318 639 259 c 2
 639 56 l 1
 599 21 474 -14 388 -14 c 0
 278 -14 182 24 115 93 c 0
 59 152 32 227 32 325 c 0
 32 529 175 676 375 676 c 0
 420 676 466 668 511 653 c 0
 529 646 545 643 555 643 c 0
 576 643 594 657 600 676 c 1
 622 676 l 1
 630 465 l 1
 607 465 l 1
 582 526 566 553 536 581 c 0
 497 617 448 636 392 636 c 0
 324 636 262 609 218 560 c 0
 174 511 146 420 146 326 c 0
 146 140 246 26 409 26 c 0
 481 26 542 53 542 85 c 2
 542 247 l 2
 542 290 536 313 521 322 c 0
 509 330 497 333 454 336 c 1
 454 354 l 1
 709 354 l 1
318 -281 m 1
 309 -262 l 1
 363 -225 391 -188 391 -156 c 0
 391 -148 385 -142 377 -142 c 0
 376 -142 376 -142 369 -144 c 0
 363 -145 356 -146 350 -146 c 0
 314 -146 291 -127 291 -95 c 0
 291 -61 315 -38 350 -38 c 0
 395 -38 430 -77 430 -127 c 0
 430 -187 385 -248 318 -281 c 1
EndSplineSet
EndChar
StartChar: gcommaaccent
Encoding: 291 291
Width: 500
Flags: W
HStem: -218 57<200 238.5> -2 20 149 25<247 268.5> 388 39<393 470> 432 28<203 241.5> 493 104
VStem: 28 70<-110 -102.5> 28 39 329 77<279 284.5> 433 28<-68 -46>
Fore
470 388 m 1
 387 388 l 1
 401 356 406 333 406 304 c 0
 406 254 391 219 358 191 c 0
 327 164 287 149 250 149 c 0
 244 149 231 150 212 152 c 0
 209 152 202 153 193 154 c 1
 166 146 133 111 133 91 c 0
 133 75 158 66 211 64 c 2
 340 58 l 2
 414 55 461 13 461 -49 c 0
 461 -87 444 -119 406 -150 c 0
 354 -192 276 -218 201 -218 c 0
 106 -218 28 -174 28 -121 c 0
 28 -84 55 -51 126 1 c 1
 85 21 73 33 73 54 c 0
 73 74 86 94 119 123 c 0
 125 128 143 145 162 163 c 1
 96 196 69 234 69 297 c 0
 69 388 143 460 236 460 c 0
 262 460 289 455 316 445 c 2
 338 437 l 2
 358 430 373 427 393 427 c 2
 470 427 l 1
 470 388 l 1
147 -2 m 1
 105 -52 98 -65 98 -88 c 0
 98 -132 156 -161 244 -161 c 0
 357 -161 433 -122 433 -64 c 0
 433 -28 400 -15 309 -15 c 0
 260 -15 180 -9 147 -2 c 1
152 338 m 2
 152 335 l 2
 152 239 194 174 254 174 c 0
 300 174 329 209 329 265 c 0
 329 304 317 350 299 385 c 0
 283 415 257 432 226 432 c 0
 180 432 152 397 152 338 c 2
292 736 m 1
 301 717 l 1
 247 680 219 644 219 611 c 0
 219 603 225 597 233 597 c 0
 234 597 234 597 241 599 c 0
 247 600 254 601 260 601 c 0
 296 601 319 582 319 550 c 0
 319 516 295 493 260 493 c 0
 215 493 180 532 180 582 c 0
 180 642 225 703 292 736 c 1
EndSplineSet
EndChar
StartChar: Hcircumflex
Encoding: 292 292
Width: 722
Flags: W
HStem: 0 21G<19 297 424 702> 315 44<210 511> 642 20G<19 297 424 702>
VStem: 107 102<96 314 360 576> 512 102<96 314 360 576>
Fore
517 719 m 1
 483 719 l 1
 361 822 l 5
 240 719 l 1
 206 719 l 1
 330 886 l 1
 392 886 l 1
 517 719 l 1
209 359 m 1
 512 359 l 1
 512 553 l 2
 512 625 501 636 424 643 c 1
 424 662 l 1
 702 662 l 1
 702 643 l 1
 625 636 614 625 614 553 c 2
 614 109 l 2
 614 38 627 25 702 19 c 1
 702 0 l 1
 424 0 l 1
 424 19 l 1
 502 24 512 36 512 120 c 2
 512 315 l 1
 209 315 l 1
 209 109 l 2
 209 38 222 25 297 19 c 1
 297 0 l 1
 19 0 l 1
 19 19 l 1
 97 24 107 36 107 120 c 2
 107 553 l 2
 107 625 96 636 19 643 c 1
 19 662 l 1
 297 662 l 1
 297 643 l 1
 220 636 209 625 209 553 c 2
 209 359 l 1
EndSplineSet
MinimumDistance: x14,-1 
EndChar
StartChar: hcircumflex
Encoding: 293 293
Width: 500
Flags: W
HStem: 0 21G<9 225 275 487> 405.995 54.0048<268 304>
VStem: 73 84<80 343 377 592> 275 212<1 15> 343 84<80 320>
Fore
406 719 m 1
 372 719 l 1
 250 822 l 5
 129 719 l 1
 95 719 l 1
 219 886 l 1
 281 886 l 1
 406 719 l 1
157 343 m 1
 157 102 l 2
 157 33 167 21 225 15 c 1
 225 0 l 1
 9 0 l 1
 9 15 l 1
 67 23 73 32 73 102 c 2
 73 573 l 2
 73 616 65 624 22 624 c 0
 17 624 14 624 10 623 c 1
 10 639 l 1
 37 647 l 2
 93 663 118 671 152 683 c 1
 157 680 l 1
 157 376 l 1
 203 436 245 460 304 460 c 0
 385 460 427 406 427 301 c 2
 427 102 l 2
 427 33 433 25 487 15 c 1
 487 0 l 1
 275 0 l 1
 275 15 l 1
 333 21 343 34 343 102 c 2
 343 300 l 2
 343 370 318 406 268 406 c 0
 229 406 199 389 157 343 c 1
EndSplineSet
MinimumDistance: x23,-1 
EndChar
StartChar: Hbar
Encoding: 294 294
Width: 722
Flags: W
HStem: 0 21G<19 297 424 702> 315 44<209 511> 453 54<11 106 209 511 615 710> 642 20G<19 297 424 702>
VStem: 107 102<96 314 360 452 508 576> 512 102<96 314 360 452 508 576>
Fore
10 453 m 1
 10 507 l 1
 107 507 l 1
 107 553 l 2
 107 625 96 636 19 643 c 1
 19 662 l 1
 297 662 l 1
 297 643 l 1
 220 636 209 625 209 553 c 2
 209 507 l 1
 512 507 l 1
 512 553 l 2
 512 625 501 636 424 643 c 1
 424 662 l 1
 702 662 l 1
 702 643 l 1
 625 636 614 625 614 553 c 2
 614 507 l 1
 711 507 l 1
 711 453 l 1
 614 453 l 1
 614 109 l 2
 614 38 627 25 702 19 c 1
 702 0 l 1
 424 0 l 1
 424 19 l 1
 502 24 512 36 512 120 c 2
 512 315 l 1
 209 315 l 1
 209 109 l 2
 209 38 222 25 297 19 c 1
 297 0 l 1
 19 0 l 1
 19 19 l 1
 97 24 107 36 107 120 c 2
 107 453 l 1
 10 453 l 1
208 453 m 1
 209 359 l 1
 512 359 l 1
 512 453 l 1
 208 453 l 1
EndSplineSet
MinimumDistance: x0,-1 x0,0 x0,0 x0,0 x0,0 
EndChar
StartChar: hbar
Encoding: 295 295
Width: 548
Flags: W
HStem: 0 21G<57 273 323 535> 405.995 54.0048<316 352> 492 54<10 120 205 319>
VStem: 9 311<492 546> 121 84<80 343 377 491 547 592> 323 212<1 15> 391 84<80 320>
Fore
391 300 m 2
 391 370 366 406 316 406 c 0
 277 406 247 389 205 343 c 1
 205 102 l 2
 205 33 215 21 273 15 c 1
 273 0 l 1
 57 0 l 1
 57 15 l 1
 115 23 121 32 121 102 c 2
 121 492 l 1
 9 492 l 1
 9 546 l 1
 121 546 l 1
 121 573 l 2
 121 616 113 624 70 624 c 0
 65 624 62 624 58 623 c 1
 58 639 l 1
 85 647 l 2
 141 663 166 671 200 683 c 1
 205 680 l 1
 205 546 l 1
 320 546 l 1
 320 492 l 1
 205 492 l 1
 205 376 l 1
 251 436 293 460 352 460 c 0
 433 460 475 406 475 301 c 2
 475 102 l 2
 475 33 481 25 535 15 c 1
 535 0 l 1
 323 0 l 1
 323 15 l 1
 381 21 391 34 391 102 c 2
 391 300 l 2
EndSplineSet
MinimumDistance: x0,-1 x0,0 x0,0 x0,0 x0,0 
EndChar
StartChar: Itilde
Encoding: 296 296
Width: 333
Flags: W
HStem: 0 21G<18 315> 642 20G<18 315> 744.828 55.6807<235 258> 789.991 55.0092<90 111>
VStem: 115 102<96 576>
Fore
311 850 m 5
 340 850 l 5
 319 774 290 744 235 744 c 4
 210 744 195 748 154 768 c 6
 131 779 l 6
 116 786 102 790 90 790 c 4
 67 790 50 775 39 744 c 5
 10 744 l 5
 25 809 61 845 111 845 c 4
 133 845 158 839 181 827 c 6
 205 815 l 6
 224 806 243 800 258 800 c 4
 281 800 294 812 311 850 c 5
115 109 m 2
 115 553 l 2
 115 627 103 638 18 643 c 1
 18 662 l 1
 315 662 l 1
 315 643 l 1
 231 639 217 626 217 553 c 2
 217 109 l 2
 217 36 233 22 315 19 c 1
 315 0 l 1
 18 0 l 1
 18 19 l 1
 102 22 115 34 115 109 c 2
EndSplineSet
MinimumDistance: x18,-1 
EndChar
StartChar: itilde
Encoding: 297 297
Width: 278
Flags: W
HStem: 0 21G<16 253> 532.828 55.6807<180 203> 577.991 55.0092<35 56>
VStem: 95 84<80 352>
Fore
256 638 m 5
 285 638 l 5
 264 562 235 532 180 532 c 4
 155 532 140 536 99 556 c 6
 76 567 l 6
 61 574 47 578 35 578 c 4
 12 578 -5 563 -16 532 c 5
 -45 532 l 5
 -30 597 6 633 56 633 c 4
 78 633 103 627 126 615 c 6
 150 603 l 6
 169 594 188 588 203 588 c 4
 226 588 239 600 256 638 c 5
175 460 m 1
 179 457 l 1
 179 102 l 2
 179 30 187 20 253 15 c 1
 253 0 l 1
 16 0 l 1
 16 15 l 1
 85 19 95 30 95 102 c 2
 95 334 l 2
 95 378 86 394 62 394 c 0
 53 394 40 393 28 391 c 2
 20 390 l 1
 20 405 l 1
 175 460 l 1
EndSplineSet
MinimumDistance: x13,-1 
EndChar
StartChar: Imacron
Encoding: 298 298
Width: 333
Flags: MW
HStem: 0 19 643 19 759 54<11 322>
VStem: 115 102<109 553>
Fore
115 109 m 2
 115 553 l 2
 115 627 103 638 18 643 c 1
 18 662 l 1
 315 662 l 1
 315 643 l 1
 231 639 217 626 217 553 c 2
 217 109 l 2
 217 36 233 22 315 19 c 1
 315 0 l 1
 18 0 l 1
 18 19 l 1
 102 22 115 34 115 109 c 2
11 813 m 1
 322 813 l 1
 322 759 l 1
 11 759 l 1
 11 813 l 1
EndSplineSet
EndChar
StartChar: imacron
Encoding: 299 299
Width: 278
Flags: MW
HStem: 0 15 390 15 440 20<175 175> 547 54<-16 292>
VStem: 95 84<102 334 334 356>
Fore
175 460 m 1
 179 457 l 1
 179 102 l 2
 179 30 187 20 253 15 c 1
 253 0 l 1
 16 0 l 1
 16 15 l 1
 85 19 95 30 95 102 c 2
 95 334 l 2
 95 378 86 394 62 394 c 0
 53 394 40 393 28 391 c 2
 20 390 l 1
 20 405 l 1
 175 460 l 1
-16 601 m 1
 292 601 l 1
 292 547 l 1
 -16 547 l 1
 -16 601 l 1
EndSplineSet
EndChar
StartChar: Ibreve
Encoding: 300 300
Width: 333
Flags: W
HStem: 0 21G<18 315> 642 20G<18 315> 719 60<146.543 178>
VStem: 115 102<96 576>
Fore
277 876 m 5
 306 876 l 5
 294 770 248 719 164 719 c 4
 117 719 77 738 52 773 c 4
 33 801 26 825 25 876 c 5
 54 876 l 5
 68 809 102 779 166 779 c 4
 224 779 249 800 277 876 c 5
115 109 m 2
 115 553 l 2
 115 627 103 638 18 643 c 1
 18 662 l 1
 315 662 l 1
 315 643 l 1
 231 639 217 626 217 553 c 2
 217 109 l 2
 217 36 233 22 315 19 c 1
 315 0 l 1
 18 0 l 1
 18 19 l 1
 102 22 115 34 115 109 c 2
EndSplineSet
MinimumDistance: x13,-1 
EndChar
StartChar: ibreve
Encoding: 301 301
Width: 278
Flags: W
HStem: 0 21G<16 253> 507 60<125 141> 644 20G<-3 26 249 278>
VStem: 95 84<80 352>
Fore
249 664 m 5
 278 664 l 5
 266 558 220 507 136 507 c 4
 89 507 49 526 24 561 c 4
 5 589 -2 613 -3 664 c 5
 26 664 l 5
 40 597 74 567 138 567 c 4
 196 567 221 588 249 664 c 5
175 460 m 1
 179 457 l 1
 179 102 l 2
 179 30 187 20 253 15 c 1
 253 0 l 1
 16 0 l 1
 16 15 l 1
 85 19 95 30 95 102 c 2
 95 334 l 2
 95 378 86 394 62 394 c 0
 53 394 40 393 28 391 c 2
 20 390 l 1
 20 405 l 1
 175 460 l 1
EndSplineSet
MinimumDistance: x8,-1 
EndChar
StartChar: Iogonek
Encoding: 302 302
Width: 333
Flags: W
HStem: -165 56<295 305.5> 643 19
VStem: 115 102<109 553> 212 56<-81 -72.5>
Fore
315 19 m 1
 315 0 l 1
 310 -1 307 -4 296 -13 c 1
 278 -32 268 -51 268 -70 c 0
 268 -92 284 -109 306 -109 c 0
 327 -109 346 -99 377 -73 c 1
 397 -89 l 1
 360 -142 326 -165 285 -165 c 0
 244 -165 212 -132 212 -89 c 0
 212 -56 227 -31 266 0 c 1
 18 0 l 1
 18 19 l 1
 102 22 115 34 115 109 c 2
 115 553 l 2
 115 627 103 638 18 643 c 1
 18 662 l 1
 315 662 l 1
 315 643 l 1
 231 639 217 626 217 553 c 2
 217 109 l 2
 217 36 233 22 315 19 c 1
EndSplineSet
EndChar
StartChar: iogonek
Encoding: 303 303
Width: 278
Flags: W
HStem: -165 56<176 186.5> 390 15 440 20<175 175> 581 102<114.5 142.5>
VStem: 78 102<618 646> 93 56<-81 -72.5> 95 84<102 334 334 356>
Fore
179 457 m 1
 179 102 l 2
 179 30 187 20 253 15 c 1
 253 0 l 1
 220 0 l 2
 182 0 149 -33 149 -70 c 0
 149 -92 165 -109 187 -109 c 0
 208 -109 227 -99 258 -73 c 1
 278 -89 l 1
 241 -142 207 -165 166 -165 c 0
 125 -165 93 -132 93 -89 c 0
 93 -56 108 -31 147 0 c 1
 16 0 l 1
 16 15 l 1
 85 19 95 30 95 102 c 2
 95 334 l 2
 95 378 86 394 62 394 c 0
 53 394 40 393 28 391 c 2
 20 390 l 1
 20 405 l 1
 175 460 l 1
 179 457 l 1
128 683 m 0
 157 683 180 660 180 632 c 0
 180 603 157 581 128 581 c 0
 100 581 78 604 78 632 c 0
 78 660 101 683 128 683 c 0
EndSplineSet
EndChar
StartChar: Idotaccent
Encoding: 304 304
Width: 333
Flags: MW
HStem: 0 19 643 19
VStem: 115 102<109 553>
Fore
115 109 m 2
 115 553 l 2
 115 627 103 638 18 643 c 1
 18 662 l 1
 315 662 l 1
 315 643 l 1
 231 639 217 626 217 553 c 2
 217 109 l 2
 217 36 233 22 315 19 c 1
 315 0 l 1
 18 0 l 1
 18 19 l 1
 102 22 115 34 115 109 c 2
166 834 m 0
 194 834 217 811 217 784 c 0
 217 757 194 735 166 735 c 0
 139 735 118 757 118 785 c 0
 118 811 141 834 166 834 c 0
EndSplineSet
EndChar
StartChar: dotlessi
Encoding: 305 305
Width: 278
Flags: MW
HStem: 0 15 390 15 440 20<175 175>
VStem: 95 84<102 334 334 356>
Fore
175 460 m 1
 179 457 l 1
 179 102 l 2
 179 30 187 20 253 15 c 1
 253 0 l 1
 16 0 l 1
 16 15 l 1
 85 19 95 30 95 102 c 2
 95 334 l 2
 95 378 86 394 62 394 c 0
 53 394 40 393 28 391 c 2
 20 390 l 1
 20 405 l 1
 175 460 l 1
EndSplineSet
EndChar
StartChar: IJ
Encoding: 306 306
Width: 728
Flags: W
HStem: -14 121.992<399 449> -13.9917 37.9917<449 478>
VStem: 115 102<89 578> 516 102<162 578>
Fore
618 553 m 2
 618 183 l 2
 618 58 557 -14 449 -14 c 0
 391 -14 350 16 350 58 c 0
 350 85 372 108 399 108 c 0
 425 108 441 92 451 57 c 0
 458 32 464 24 478 24 c 0
 504 24 516 45 516 90 c 2
 516 553 l 2
 516 626 505 637 423 643 c 1
 423 662 l 1
 710 662 l 1
 710 643 l 1
 629 637 618 626 618 553 c 2
115 109 m 2
 115 553 l 2
 115 627 103 638 18 643 c 1
 18 662 l 1
 315 662 l 1
 315 643 l 1
 231 639 217 626 217 553 c 2
 217 109 l 2
 217 36 233 22 315 19 c 1
 315 0 l 1
 18 0 l 1
 18 19 l 1
 102 22 115 34 115 109 c 2
EndSplineSet
MinimumDistance: x0,-1 
Ligature: I J
EndChar
StartChar: ij
Encoding: 307 307
Width: 480
Flags: W
HStem: 0 21G<16 253> 581 102<118.27 130 352.27 368>
VStem: 78 102<630 634> 95 84<86 342> 312 102<630 634> 329 84<-26 342>
Fore
413 457 m 1
 413 0 l 2
 413 -142 354 -218 244 -218 c 0
 190 -218 150 -195 150 -163 c 0
 150 -141 168 -124 191 -124 c 0
 207 -124 221 -133 239 -156 c 0
 256 -177 266 -184 281 -184 c 0
 295 -184 309 -176 315 -166 c 0
 326 -146 329 -121 329 -45 c 2
 329 334 l 2
 329 377 320 394 297 394 c 0
 287 394 272 393 257 391 c 2
 252 390 l 1
 252 406 l 1
 311 424 349 437 408 460 c 1
 413 457 l 1
362 683 m 0
 391 683 414 660 414 632 c 0
 414 603 391 581 362 581 c 0
 334 581 312 604 312 632 c 0
 312 660 335 683 362 683 c 0
175 460 m 1
 179 457 l 1
 179 102 l 2
 179 30 187 20 253 15 c 1
 253 0 l 1
 16 0 l 1
 16 15 l 1
 85 19 95 30 95 102 c 2
 95 334 l 2
 95 378 86 394 62 394 c 0
 53 394 40 393 28 391 c 2
 20 390 l 1
 20 405 l 1
 175 460 l 1
128 683 m 0
 157 683 180 660 180 632 c 0
 180 603 157 581 128 581 c 0
 100 581 78 604 78 632 c 0
 78 660 101 683 128 683 c 0
EndSplineSet
MinimumDistance: x0,-1 
Ligature: i j
EndChar
StartChar: Jcircumflex
Encoding: 308 308
Width: 389
Flags: W
HStem: -14 121.992<59 109> -13.9917 37.9917<109 138>
VStem: 176 102<162 578>
Fore
388 719 m 5
 354 719 l 5
 232 822 l 5
 111 719 l 5
 77 719 l 5
 201 886 l 5
 263 886 l 5
 388 719 l 5
278 553 m 2
 278 183 l 2
 278 58 217 -14 109 -14 c 0
 51 -14 10 16 10 58 c 0
 10 85 32 108 59 108 c 0
 85 108 101 92 111 57 c 0
 118 32 124 24 138 24 c 0
 164 24 176 45 176 90 c 2
 176 553 l 2
 176 626 165 637 83 643 c 1
 83 662 l 1
 370 662 l 1
 370 643 l 1
 289 637 278 626 278 553 c 2
EndSplineSet
MinimumDistance: x7,-1 
EndChar
StartChar: jcircumflex
Encoding: 309 309
Width: 278
Flags: W
HStem: 654 20G<108 170>
VStem: 109 84<-26 342>
Fore
295 507 m 1
 261 507 l 1
 139 610 l 1
 18 507 l 1
 -16 507 l 1
 108 674 l 1
 170 674 l 1
 295 507 l 1
193 457 m 1
 193 0 l 2
 193 -142 134 -218 24 -218 c 0
 -30 -218 -70 -195 -70 -163 c 0
 -70 -141 -52 -124 -29 -124 c 0
 -13 -124 1 -133 19 -156 c 0
 36 -177 46 -184 61 -184 c 0
 75 -184 89 -176 95 -166 c 0
 106 -146 109 -121 109 -45 c 2
 109 334 l 2
 109 377 100 394 77 394 c 0
 67 394 52 393 37 391 c 2
 32 390 l 1
 32 406 l 1
 91 424 129 437 188 460 c 1
 193 457 l 1
EndSplineSet
MinimumDistance: x7,-1 
EndChar
StartChar: Kcommaaccent
Encoding: 310 310
Width: 722
Flags: W
HStem: -142 104 0 19 643 19
VStem: 124 102<120 296 348 553> 134 39
Fore
413 643 m 1
 413 662 l 1
 675 662 l 1
 675 643 l 1
 607 638 591 630 523 565 c 1
 333 377 l 1
 566 127 l 2
 657 30 671 20 723 19 c 1
 723 0 l 1
 418 0 l 1
 418 19 l 1
 430 20 441 20 446 20 c 0
 474 21 488 28 488 42 c 0
 488 66 434 137 358 212 c 2
 252 317 l 1
 226 296 l 1
 226 109 l 2
 226 36 238 24 316 19 c 1
 316 0 l 1
 34 0 l 1
 34 19 l 1
 113 24 124 37 124 120 c 2
 124 553 l 2
 124 624 112 637 34 643 c 1
 34 662 l 1
 318 662 l 1
 318 643 l 1
 237 637 226 626 226 553 c 2
 226 348 l 1
 403 509 l 2
 458 560 481 590 481 612 c 0
 481 632 469 640 439 642 c 0
 435 642 425 642 413 643 c 1
318 -281 m 1
 309 -262 l 1
 363 -225 391 -188 391 -156 c 0
 391 -148 385 -142 377 -142 c 0
 376 -142 376 -142 369 -144 c 0
 363 -145 356 -146 350 -146 c 0
 314 -146 291 -127 291 -95 c 0
 291 -61 315 -38 350 -38 c 4
 395 -38 430 -77 430 -127 c 0
 430 -187 385 -248 318 -281 c 1
EndSplineSet
EndChar
StartChar: kcommaaccent
Encoding: 311 311
Width: 500
Flags: W
HStem: -142 104 0 15<287 306 306 312> 435 15<463.5 472 472 480>
VStem: 82 84<82 251 261 564 564 588> 107 39
Fore
7 623 m 1
 7 639 l 1
 37 647 l 2
 95 663 124 671 162 683 c 1
 166 681 l 1
 166 261 l 1
 303 383 l 2
 317 395 326 409 326 417 c 0
 326 431 315 435 276 436 c 1
 276 450 l 1
 480 450 l 1
 480 435 l 1
 472 435 l 2
 455 435 441 433 426 429 c 0
 397 421 335 375 264 309 c 2
 235 282 l 1
 388 88 l 1
 430 37 461 18 505 15 c 1
 505 0 l 1
 287 0 l 1
 287 15 l 1
 306 15 l 2
 318 15 327 21 327 30 c 0
 327 35 324 41 316 51 c 0
 313 54 311 57 309 60 c 2
 306 64 l 1
 166 251 l 1
 166 67 l 2
 166 32 181 18 221 16 c 2
 241 15 l 1
 241 0 l 1
 7 0 l 1
 7 15 l 1
 79 27 82 30 82 82 c 2
 82 564 l 2
 82 612 72 625 39 625 c 0
 29 625 20 624 7 623 c 1
207 -281 m 1
 198 -262 l 1
 252 -225 280 -188 280 -156 c 0
 280 -148 274 -142 266 -142 c 0
 265 -142 265 -142 258 -144 c 0
 252 -145 245 -146 239 -146 c 0
 203 -146 180 -127 180 -95 c 0
 180 -61 204 -38 239 -38 c 4
 284 -38 319 -77 319 -127 c 0
 319 -187 274 -248 207 -281 c 1
EndSplineSet
EndChar
StartChar: kgreenlandic
Encoding: 312 312
Width: 500
Flags: W
HStem: 0 21G<7 241 352 490> 224 28<166.016 194.408> 372.982 86.6637<404 423> 393.989 66.0109<354 404> 430 20G<7 241>
VStem: 82 84<56 224 253 394>
Fore
166 383 m 2
 166 252 l 1
 195 252 l 2
 236 252 288 318 298 352 c 1
 320 450 343 460 404 460 c 0
 440 460 468 439 467 406 c 0
 466 384 445 372 423 372 c 0
 392 372 380 394 354 394 c 0
 334 394 330 258 256 244 c 1
 333 221 358 130 412 56 c 1
 442 20 446 18 490 15 c 1
 490 0 l 1
 352 0 l 1
 227 200 l 2
 210 228 184 224 166 224 c 1
 166 67 l 2
 166 32 181 18 221 16 c 2
 241 15 l 1
 241 0 l 1
 7 0 l 1
 7 15 l 1
 79 27 82 30 82 82 c 2
 82 368 l 2
 82 420 79 423 7 435 c 1
 7 450 l 1
 241 450 l 1
 241 435 l 1
 221 434 l 2
 181 432 166 418 166 383 c 2
EndSplineSet
MinimumDistance: x0,-1 
EndChar
StartChar: Lacute
Encoding: 313 313
Width: 611
Flags: W
HStem: 0 39<287 354 354 395.5> 0 19 0 39 643 19
VStem: 99 102<109 553>
Fore
573 174 m 1
 598 174 l 1
 550 0 l 1
 12 0 l 1
 12 19 l 1
 85 24 99 39 99 109 c 2
 99 553 l 2
 99 623 86 637 12 643 c 1
 12 662 l 1
 294 662 l 1
 294 643 l 1
 215 638 201 624 201 553 c 2
 201 80 l 2
 201 45 214 39 287 39 c 2
 354 39 l 2
 437 39 492 57 527 96 c 0
 542 113 556 136 573 174 c 1
272 719 m 1
 232 719 l 1
 379 867 l 2
 397 885 406 890 421 890 c 0
 443 890 456 878 456 858 c 0
 456 842 447 829 426 816 c 2
 272 719 l 1
EndSplineSet
EndChar
StartChar: lacute
Encoding: 314 314
Width: 278
Flags: W
HStem: 0 15 658 20
VStem: 98 84<87 564 564 587.5>
Fore
19 623 m 1
 19 639 l 1
 88 656 126 666 178 683 c 1
 182 681 l 1
 182 84 l 2
 182 29 194 19 257 15 c 1
 257 0 l 1
 21 0 l 1
 21 15 l 1
 84 20 98 33 98 87 c 2
 98 564 l 2
 98 611 88 625 56 625 c 0
 48 625 36 624 25 623 c 2
 19 623 l 1
106 719 m 1
 66 719 l 1
 213 867 l 2
 231 885 240 890 255 890 c 0
 277 890 290 878 290 858 c 0
 290 842 281 829 260 816 c 2
 106 719 l 1
EndSplineSet
EndChar
StartChar: Lcommaaccent
Encoding: 315 315
Width: 611
Flags: W
HStem: -142 104 0 19 0 39<287 354 354 395.5> 643 19
VStem: 99 102<109 553> 112 39
Fore
573 174 m 1
 598 174 l 1
 550 0 l 1
 12 0 l 1
 12 19 l 1
 85 24 99 39 99 109 c 2
 99 553 l 2
 99 623 86 637 12 643 c 1
 12 662 l 1
 294 662 l 1
 294 643 l 1
 215 638 201 624 201 553 c 2
 201 80 l 2
 201 45 214 39 287 39 c 2
 354 39 l 2
 437 39 492 57 527 96 c 0
 542 113 556 136 573 174 c 1
263 -281 m 1
 254 -262 l 1
 308 -225 336 -188 336 -156 c 0
 336 -148 330 -142 322 -142 c 0
 321 -142 321 -142 314 -144 c 0
 308 -145 301 -146 295 -146 c 0
 259 -146 236 -127 236 -95 c 0
 236 -61 260 -38 295 -38 c 0
 340 -38 375 -77 375 -127 c 0
 375 -187 330 -248 263 -281 c 1
EndSplineSet
EndChar
StartChar: lcommaaccent
Encoding: 316 316
Width: 278
Flags: W
HStem: -142 104 0 15
VStem: 98 84<87 564 564 587.5> 119 39
Fore
19 623 m 1
 19 639 l 1
 88 656 126 666 178 683 c 1
 182 681 l 1
 182 84 l 2
 182 29 194 19 257 15 c 1
 257 0 l 1
 21 0 l 1
 21 15 l 1
 84 20 98 33 98 87 c 2
 98 564 l 2
 98 611 88 625 56 625 c 0
 48 625 36 624 25 623 c 2
 19 623 l 1
96 -281 m 1
 87 -262 l 1
 141 -225 169 -188 169 -156 c 0
 169 -148 163 -142 155 -142 c 0
 154 -142 154 -142 147 -144 c 0
 141 -145 134 -146 128 -146 c 0
 92 -146 69 -127 69 -95 c 0
 69 -61 93 -38 128 -38 c 0
 173 -38 208 -77 208 -127 c 0
 208 -187 163 -248 96 -281 c 1
EndSplineSet
EndChar
StartChar: Lcaron
Encoding: 317 317
Width: 611
Flags: W
HStem: 0 39<287 354 354 395.5> 0 19 0 39 572 104 643 19
VStem: 99 102<109 553> 112 39
Fore
573 174 m 1
 598 174 l 1
 550 0 l 1
 12 0 l 1
 12 19 l 1
 85 24 99 39 99 109 c 2
 99 553 l 2
 99 623 86 637 12 643 c 1
 12 662 l 1
 294 662 l 1
 294 643 l 1
 215 638 201 624 201 553 c 2
 201 80 l 2
 201 45 214 39 287 39 c 2
 354 39 l 2
 437 39 492 57 527 96 c 0
 542 113 556 136 573 174 c 1
403 433 m 1
 394 452 l 1
 448 489 476 525 476 558 c 0
 476 566 470 572 462 572 c 0
 461 572 461 572 454 570 c 0
 448 569 441 568 435 568 c 0
 399 568 376 587 376 619 c 0
 376 653 400 676 435 676 c 0
 480 676 515 637 515 587 c 0
 515 527 470 466 403 433 c 1
EndSplineSet
EndChar
StartChar: lcaron
Encoding: 318 318
Width: 348
Flags: W
HStem: 0 15 572 104
VStem: 98 84<87 564 564 587.5> 119 39
Fore
19 623 m 1
 19 639 l 1
 88 656 126 666 178 683 c 1
 182 681 l 1
 182 84 l 2
 182 29 194 19 257 15 c 1
 257 0 l 1
 21 0 l 1
 21 15 l 1
 84 20 98 33 98 87 c 2
 98 564 l 2
 98 611 88 625 56 625 c 0
 48 625 36 624 25 623 c 2
 19 623 l 1
236 433 m 1
 227 452 l 1
 281 489 309 525 309 558 c 0
 309 566 303 572 295 572 c 0
 294 572 294 572 287 570 c 0
 281 569 274 568 268 568 c 0
 232 568 209 587 209 619 c 0
 209 653 233 676 268 676 c 0
 313 676 348 637 348 587 c 0
 348 527 303 466 236 433 c 1
EndSplineSet
EndChar
StartChar: Ldot
Encoding: 319 319
Width: 832
Flags: W
HStem: 0 39<252 380> 239 111<716 732>
VStem: 12 282<643 661> 99 102<95 576> 670 111<288 295>
Fore
725 350 m 0
 755 350 781 324 781 293 c 0
 781 264 755 239 724 239 c 0
 695 239 670 264 670 293 c 0
 670 324 695 350 725 350 c 0
573 174 m 1
 598 174 l 1
 550 0 l 1
 12 0 l 1
 12 19 l 1
 85 24 99 39 99 109 c 2
 99 553 l 2
 99 623 86 637 12 643 c 1
 12 662 l 1
 294 662 l 1
 294 643 l 1
 215 638 201 624 201 553 c 2
 201 80 l 2
 201 45 214 39 287 39 c 2
 354 39 l 2
 437 39 492 57 527 96 c 0
 542 113 556 136 573 174 c 1
EndSplineSet
MinimumDistance: x1,-1 
EndChar
StartChar: ldot
Encoding: 320 320
Width: 444
Flags: W
HStem: 0 21G<21 257> 239 111<355 360>
VStem: 98 84<80 576> 303 111<288 295>
Fore
358 350 m 4
 388 350 414 324 414 293 c 4
 414 264 388 239 357 239 c 4
 328 239 303 264 303 293 c 4
 303 324 328 350 358 350 c 4
19 623 m 1
 19 639 l 1
 88 656 126 666 178 683 c 1
 182 681 l 1
 182 84 l 2
 182 29 194 19 257 15 c 1
 257 0 l 1
 21 0 l 1
 21 15 l 1
 84 20 98 33 98 87 c 2
 98 564 l 2
 98 611 88 625 56 625 c 0
 48 625 36 624 25 623 c 2
 19 623 l 1
EndSplineSet
MinimumDistance: x1,-1 
EndChar
StartChar: Lslash
Encoding: 321 321
Width: 611
Flags: W
HStem: 0 19 0 39<287 354 354 395.5> 643 19
VStem: 99 102<109 276 276 276 325 335 384 553>
Fore
99 325 m 1
 99 553 l 2
 99 623 86 637 12 643 c 1
 12 662 l 1
 294 662 l 1
 294 643 l 1
 215 638 201 624 201 553 c 2
 201 384 l 1
 356 473 l 1
 356 424 l 1
 201 335 l 1
 201 80 l 2
 201 45 214 39 287 39 c 2
 354 39 l 2
 437 39 492 57 527 96 c 0
 542 113 556 136 573 174 c 1
 598 174 l 1
 550 0 l 1
 12 0 l 1
 12 19 l 1
 85 24 99 39 99 109 c 2
 99 276 l 1
 12 226 l 1
 12 275 l 1
 99 325 l 1
EndSplineSet
EndChar
StartChar: lslash
Encoding: 322 322
Width: 278
Flags: MW
HStem: 0 15
VStem: 98 84<87 318 318 318 362 375 419 564 564 587.5>
Fore
98 362 m 1
 98 564 l 2
 98 611 88 625 56 625 c 0
 48 625 36 624 25 623 c 2
 19 623 l 1
 19 639 l 1
 88 656 126 666 178 683 c 1
 182 681 l 1
 182 419 l 1
 259 472 l 1
 259 428 l 1
 182 375 l 1
 182 84 l 2
 182 29 194 19 257 15 c 1
 257 0 l 1
 21 0 l 1
 21 15 l 1
 84 20 98 33 98 87 c 2
 98 318 l 1
 20 264 l 1
 20 308 l 1
 98 362 l 1
EndSplineSet
EndChar
StartChar: Nacute
Encoding: 323 323
Width: 722
Flags: W
HStem: -11 20 0 19 643 19<12 33.5>
VStem: 109 44<147 539> 568 44<178 515>
Fore
612 -11 m 1
 595 -11 l 1
 153 539 l 1
 153 147 l 2
 153 46 170 23 247 19 c 1
 247 0 l 1
 12 0 l 1
 12 19 l 1
 95 25 109 44 109 147 c 2
 109 588 l 1
 69 635 55 643 12 643 c 1
 12 662 l 1
 183 662 l 1
 568 178 l 1
 568 515 l 2
 568 577 559 613 539 627 c 0
 524 636 510 640 472 643 c 1
 472 662 l 1
 707 662 l 1
 707 643 l 1
 669 639 655 635 641 625 c 0
 622 612 612 575 612 515 c 2
 612 -11 l 1
328 719 m 1
 288 719 l 1
 435 867 l 2
 453 885 462 890 477 890 c 0
 499 890 512 878 512 858 c 0
 512 842 503 829 482 816 c 2
 328 719 l 1
EndSplineSet
EndChar
StartChar: nacute
Encoding: 324 324
Width: 500
Flags: W
HStem: 0 15 405 55<283 291.5> 658 20<358.5 377>
VStem: 80 84<90 338 338 348> 340 84<99 308 308 310>
Fore
16 398 m 1
 16 415 l 1
 71 431 105 442 154 460 c 1
 161 458 l 1
 161 379 l 1
 229 443 260 460 306 460 c 0
 380 460 424 404 424 310 c 2
 424 81 l 2
 424 32 436 20 485 15 c 1
 485 0 l 1
 277 0 l 1
 277 15 l 1
 327 19 340 36 340 99 c 2
 340 308 l 2
 340 374 316 405 267 405 c 0
 234 405 212 393 164 348 c 1
 164 67 l 2
 164 31 179 19 230 15 c 1
 230 0 l 1
 18 0 l 1
 18 15 l 1
 69 19 80 33 80 90 c 2
 80 338 l 2
 80 387 71 402 43 402 c 0
 32 402 22 401 16 398 c 1
217 507 m 1
 177 507 l 1
 324 655 l 2
 342 673 351 678 366 678 c 0
 388 678 401 666 401 646 c 0
 401 630 392 617 371 604 c 2
 217 507 l 1
EndSplineSet
EndChar
StartChar: Ncommaaccent
Encoding: 325 325
Width: 722
Flags: W
HStem: -142 104 -11 20 0 19 643 19<12 33.5>
VStem: 109 44<147 539> 112 39 568 44<178 515>
Fore
612 -11 m 1
 595 -11 l 1
 153 539 l 1
 153 147 l 2
 153 46 170 23 247 19 c 1
 247 0 l 1
 12 0 l 1
 12 19 l 1
 95 25 109 44 109 147 c 2
 109 588 l 1
 69 635 55 643 12 643 c 1
 12 662 l 1
 183 662 l 1
 568 178 l 1
 568 515 l 2
 568 577 559 613 539 627 c 0
 524 636 510 640 472 643 c 1
 472 662 l 1
 707 662 l 1
 707 643 l 1
 669 639 655 635 641 625 c 0
 622 612 612 575 612 515 c 2
 612 -11 l 1
318 -281 m 1
 309 -262 l 1
 363 -225 391 -188 391 -156 c 0
 391 -148 385 -142 377 -142 c 0
 376 -142 376 -142 369 -144 c 0
 363 -145 356 -146 350 -146 c 0
 314 -146 291 -127 291 -95 c 0
 291 -61 315 -38 350 -38 c 0
 395 -38 430 -77 430 -127 c 0
 430 -187 385 -248 318 -281 c 1
EndSplineSet
EndChar
StartChar: ncommaaccent
Encoding: 326 326
Width: 500
Flags: W
HStem: -142 104 0 15 405 55<283 291.5>
VStem: 80 84<90 338 338 348> 116 39 340 84<99 308 308 310>
Fore
16 398 m 1
 16 415 l 1
 71 431 105 442 154 460 c 1
 161 458 l 1
 161 379 l 1
 229 443 260 460 306 460 c 0
 380 460 424 404 424 310 c 2
 424 81 l 2
 424 32 436 20 485 15 c 1
 485 0 l 1
 277 0 l 1
 277 15 l 1
 327 19 340 36 340 99 c 2
 340 308 l 2
 340 374 316 405 267 405 c 0
 234 405 212 393 164 348 c 1
 164 67 l 2
 164 31 179 19 230 15 c 1
 230 0 l 1
 18 0 l 1
 18 15 l 1
 69 19 80 33 80 90 c 2
 80 338 l 2
 80 387 71 402 43 402 c 0
 32 402 22 401 16 398 c 1
207 -281 m 1
 198 -262 l 1
 252 -225 280 -188 280 -156 c 0
 280 -148 274 -142 266 -142 c 0
 265 -142 265 -142 258 -144 c 0
 252 -145 245 -146 239 -146 c 0
 203 -146 180 -127 180 -95 c 0
 180 -61 204 -38 239 -38 c 0
 284 -38 319 -77 319 -127 c 0
 319 -187 274 -248 207 -281 c 1
EndSplineSet
EndChar
StartChar: Ncaron
Encoding: 327 327
Width: 722
Flags: W
HStem: -11 20 0 19 643 19<12 33.5>
VStem: 109 44<147 539> 568 44<178 515>
Fore
612 -11 m 1
 595 -11 l 1
 153 539 l 1
 153 147 l 2
 153 46 170 23 247 19 c 1
 247 0 l 1
 12 0 l 1
 12 19 l 1
 95 25 109 44 109 147 c 2
 109 588 l 1
 69 635 55 643 12 643 c 1
 12 662 l 1
 183 662 l 1
 568 178 l 1
 568 515 l 2
 568 577 559 613 539 627 c 0
 524 636 510 640 472 643 c 1
 472 662 l 1
 707 662 l 1
 707 643 l 1
 669 639 655 635 641 625 c 0
 622 612 612 575 612 515 c 2
 612 -11 l 1
517 886 m 1
 392 719 l 1
 330 719 l 1
 206 886 l 1
 240 886 l 1
 361 783 l 1
 483 886 l 1
 517 886 l 1
EndSplineSet
EndChar
StartChar: ncaron
Encoding: 328 328
Width: 500
Flags: W
HStem: 0 15 405 55<283 291.5> 654 20<95 129 129 129 372 406 406 406>
VStem: 80 84<90 338 338 348> 340 84<99 308 308 310>
Fore
16 398 m 1
 16 415 l 1
 71 431 105 442 154 460 c 1
 161 458 l 1
 161 379 l 1
 229 443 260 460 306 460 c 0
 380 460 424 404 424 310 c 2
 424 81 l 2
 424 32 436 20 485 15 c 1
 485 0 l 1
 277 0 l 1
 277 15 l 1
 327 19 340 36 340 99 c 2
 340 308 l 2
 340 374 316 405 267 405 c 0
 234 405 212 393 164 348 c 1
 164 67 l 2
 164 31 179 19 230 15 c 1
 230 0 l 1
 18 0 l 1
 18 15 l 1
 69 19 80 33 80 90 c 2
 80 338 l 2
 80 387 71 402 43 402 c 0
 32 402 22 401 16 398 c 1
406 674 m 1
 281 507 l 1
 219 507 l 1
 95 674 l 1
 129 674 l 1
 250 571 l 1
 372 674 l 1
 406 674 l 1
EndSplineSet
EndChar
StartChar: napostrophe
Encoding: 329 329
Width: 598
Flags: W
HStem: 0 21G<115 327 374 582> 354 245<57 75> 404.996 55.0043<364 403>
VStem: 23 85<557 561> 113 145<402 415> 177 84<66 348> 437 84<80 320>
Fore
76 354 m 1
 55 354 l 1
 38 444 23 542 23 558 c 0
 23 581 42 599 66 599 c 0
 89 599 108 581 108 559 c 0
 108 530 99 470 83 394 c 1
 76 354 l 1
113 398 m 1
 113 415 l 1
 168 431 202 442 251 460 c 1
 258 458 l 1
 258 379 l 1
 326 443 357 460 403 460 c 0
 477 460 521 404 521 310 c 2
 521 81 l 2
 521 32 533 20 582 15 c 1
 582 0 l 1
 374 0 l 1
 374 15 l 1
 424 19 437 36 437 99 c 2
 437 308 l 2
 437 374 413 405 364 405 c 0
 331 405 309 393 261 348 c 1
 261 67 l 2
 261 31 276 19 327 15 c 1
 327 0 l 1
 115 0 l 1
 115 15 l 1
 166 19 177 33 177 90 c 2
 177 338 l 2
 177 387 168 402 140 402 c 0
 129 402 119 401 113 398 c 1
EndSplineSet
MinimumDistance: x0,-1 
EndChar
StartChar: Eng
Encoding: 330 330
Width: 722
Flags: W
HStem: 0 21G<12 247> 643 19<12.0628 33.0487>
VStem: 109 44<118 538> 567 45<-46 22 179 541>
DStem: 153 539 183 662 567 22 568 178
Fore
567 22 m 1
 567 -45 l 2
 567 -121 564 -146 553 -166 c 0
 547 -176 533 -184 519 -184 c 0
 504 -184 494 -177 477 -156 c 0
 459 -133 445 -124 429 -124 c 0
 406 -124 388 -141 388 -163 c 0
 388 -195 428 -218 482 -218 c 0
 592 -218 612 -142 612 0 c 2
 612 515 l 2
 612 575 622 612 641 625 c 0
 655 635 669 639 707 643 c 1
 707 662 l 1
 472 662 l 1
 472 643 l 1
 510 640 524 636 539 627 c 0
 559 613 568 577 568 515 c 2
 568 178 l 1
 183 662 l 1
 12 662 l 1
 12 643 l 1
 55 643 69 635 109 588 c 1
 109 147 l 2
 109 44 95 25 12 19 c 1
 12 0 l 1
 247 0 l 1
 247 19 l 1
 170 23 153 46 153 147 c 2
 153 539 l 1
 567 22 l 1
EndSplineSet
MinimumDistance: x0,-1 
EndChar
StartChar: eng
Encoding: 331 331
Width: 500
Flags: W
HStem: 0 21G<18 230> 404.996 55.0043<267 306>
VStem: 16 145<402 415> 80 84<66 348> 340 84<-26 326>
Fore
424 0 m 2
 424 -142 365 -218 255 -218 c 0
 201 -218 161 -195 161 -163 c 0
 161 -141 179 -124 202 -124 c 0
 218 -124 232 -133 250 -156 c 0
 267 -177 277 -184 292 -184 c 0
 306 -184 320 -176 326 -166 c 0
 337 -146 340 -121 340 -45 c 2
 340 308 l 2
 340 374 316 405 267 405 c 0
 234 405 212 393 164 348 c 1
 164 67 l 2
 164 31 179 19 230 15 c 1
 230 0 l 1
 18 0 l 1
 18 15 l 1
 69 19 80 33 80 90 c 2
 80 338 l 2
 80 387 71 402 43 402 c 0
 32 402 22 401 16 398 c 1
 16 415 l 1
 71 431 105 442 154 460 c 1
 161 458 l 1
 161 379 l 1
 229 443 260 460 306 460 c 0
 380 460 424 404 424 310 c 2
 424 0 l 2
EndSplineSet
MinimumDistance: x0,-1 
EndChar
StartChar: Omacron
Encoding: 332 332
Width: 722
Flags: W
HStem: -14 36<336 385.5> 640 36<333.5 384> 759 54<206 517>
VStem: 34 114<284 380> 574 114<298.5 376.5>
Fore
361 676 m 0
 457 676 541 640 604 571 c 0
 659 511 688 426 688 327 c 0
 688 126 552 -14 355 -14 c 0
 267 -14 178 25 120 88 c 0
 66 146 34 237 34 331 c 0
 34 532 170 676 361 676 c 0
361 640 m 0
 306 640 257 618 218 575 c 0
 176 528 148 431 148 329 c 0
 148 218 181 117 233 71 c 0
 268 40 313 22 359 22 c 0
 412 22 457 40 492 75 c 0
 515 98 532 123 541 148 c 0
 561 200 574 269 574 328 c 0
 574 447 543 541 489 590 c 0
 453 622 407 640 361 640 c 0
206 813 m 5
 517 813 l 5
 517 759 l 5
 206 759 l 5
 206 813 l 5
EndSplineSet
EndChar
StartChar: omacron
Encoding: 333 333
Width: 500
Flags: W
HStem: -10 28<240.5 297.5> 432 28<201.5 279> 547 54<95 406>
VStem: 29 90<239.5 295> 380 90<165 267.5>
Fore
250 460 m 0
 378 460 470 365 470 234 c 0
 470 96 374 -10 248 -10 c 0
 122 -10 29 91 29 226 c 0
 29 364 120 460 250 460 c 0
237 432 m 0
 166 432 119 370 119 275 c 0
 119 204 135 134 163 82 c 0
 184 42 221 18 260 18 c 0
 335 18 380 86 380 199 c 0
 380 336 321 432 237 432 c 0
95 601 m 1
 406 601 l 1
 406 547 l 1
 95 547 l 1
 95 601 l 1
EndSplineSet
EndChar
StartChar: Obreve
Encoding: 334 334
Width: 722
Flags: W
HStem: -14 36<354 370> 640 36<354 370> 719 60<354 370>
VStem: 34 114<306 354> 574 114<306 354>
Fore
473 876 m 5
 502 876 l 5
 490 770 444 719 360 719 c 4
 313 719 273 738 248 773 c 4
 229 801 222 825 221 876 c 5
 250 876 l 5
 264 809 298 779 362 779 c 4
 420 779 445 800 473 876 c 5
361 676 m 0
 457 676 541 640 604 571 c 0
 659 511 688 426 688 327 c 0
 688 126 552 -14 355 -14 c 0
 267 -14 178 25 120 88 c 0
 66 146 34 237 34 331 c 0
 34 532 170 676 361 676 c 0
361 640 m 0
 306 640 257 618 218 575 c 0
 176 528 148 431 148 329 c 0
 148 218 181 117 233 71 c 0
 268 40 313 22 359 22 c 0
 412 22 457 40 492 75 c 0
 515 98 532 123 541 148 c 0
 561 200 574 269 574 328 c 0
 574 447 543 541 489 590 c 0
 453 622 407 640 361 640 c 0
EndSplineSet
MinimumDistance: x9,-1 
EndChar
StartChar: obreve
Encoding: 335 335
Width: 500
Flags: W
HStem: -10 28<247 269> 432 28<236 251> 507 60<236 262>
VStem: 29.6509 90.2348<226 275> 379.761 89.5589<199 234>
Fore
362 664 m 5
 391 664 l 5
 379 558 333 507 249 507 c 4
 202 507 162 526 137 561 c 4
 118 589 111 613 110 664 c 5
 139 664 l 5
 153 597 187 567 251 567 c 4
 309 567 334 588 362 664 c 5
250 460 m 0
 378 460 470 365 470 234 c 0
 470 96 374 -10 248 -10 c 0
 122 -10 29 91 29 226 c 0
 29 364 120 460 250 460 c 0
237 432 m 0
 166 432 119 370 119 275 c 0
 119 204 135 134 163 82 c 0
 184 42 221 18 260 18 c 0
 335 18 380 86 380 199 c 0
 380 336 321 432 237 432 c 0
EndSplineSet
EndChar
StartChar: Ohungarumlaut
Encoding: 336 336
Width: 722
Flags: MW
HStem: -14 36<336 385.5> 640 36<333.5 384>
VStem: 34 114<284 380> 574 114<298.5 376.5>
Fore
361 676 m 0
 457 676 541 640 604 571 c 0
 659 511 688 426 688 327 c 0
 688 126 552 -14 355 -14 c 0
 267 -14 178 25 120 88 c 0
 66 146 34 237 34 331 c 0
 34 532 170 676 361 676 c 0
361 640 m 0
 306 640 257 618 218 575 c 0
 176 528 148 431 148 329 c 0
 148 218 181 117 233 71 c 0
 268 40 313 22 359 22 c 0
 412 22 457 40 492 75 c 0
 515 98 532 123 541 148 c 0
 561 200 574 269 574 328 c 0
 574 447 543 541 489 590 c 0
 453 622 407 640 361 640 c 0
428 719 m 1
 388 719 l 1
 535 867 l 2
 553 885 562 890 577 890 c 0
 599 890 612 878 612 858 c 0
 612 842 603 829 582 816 c 2
 428 719 l 1
272 719 m 1
 232 719 l 1
 379 867 l 2
 397 885 406 890 421 890 c 0
 443 890 456 878 456 858 c 0
 456 842 447 829 426 816 c 2
 272 719 l 1
EndSplineSet
EndChar
StartChar: ohungarumlaut
Encoding: 337 337
Width: 500
Flags: W
HStem: -10 28<240.5 297.5> 432 28<201.5 279> 658 20<262.5 281 418.5 437>
VStem: 29 90<239.5 295> 380 90<165 267.5>
Fore
250 460 m 0
 378 460 470 365 470 234 c 0
 470 96 374 -10 248 -10 c 0
 122 -10 29 91 29 226 c 0
 29 364 120 460 250 460 c 0
237 432 m 0
 166 432 119 370 119 275 c 0
 119 204 135 134 163 82 c 0
 184 42 221 18 260 18 c 0
 335 18 380 86 380 199 c 0
 380 336 321 432 237 432 c 0
277 507 m 1
 237 507 l 1
 384 655 l 2
 402 673 411 678 426 678 c 0
 448 678 461 666 461 646 c 0
 461 630 452 617 431 604 c 2
 277 507 l 1
121 507 m 1
 81 507 l 1
 228 655 l 2
 246 673 255 678 270 678 c 0
 292 678 305 666 305 646 c 0
 305 630 296 617 275 604 c 2
 121 507 l 1
EndSplineSet
EndChar
StartChar: OE
Encoding: 338 338
Width: 889
Flags: W
HStem: -6 37<275 319> 329 37<531 635 635 666> 626 36<568 596 596 647> 632 36<300.5 349>
VStem: 30 112<268 379.5> 431 100<131 329 366 527 527 563.5>
Fore
838 521 m 1
 815 521 l 1
 803 610 778 626 647 626 c 2
 596 626 l 2
 540 626 531 623 531 602 c 2
 531 366 l 1
 635 366 l 2
 697 366 733 376 748 397 c 0
 759 412 764 427 767 464 c 1
 788 464 l 1
 788 230 l 1
 767 230 l 1
 758 309 738 329 669 329 c 2
 531 329 l 1
 531 84 l 2
 531 47 543 37 587 38 c 2
 711 40 l 2
 774 42 810 73 861 168 c 1
 885 168 l 1
 841 0 l 1
 491 0 l 2
 470 0 410 -2 370 -4 c 0
 347 -5 326 -6 312 -6 c 0
 238 -6 170 21 120 71 c 0
 60 130 30 214 30 322 c 0
 30 437 67 537 131 593 c 0
 186 642 259 668 342 668 c 0
 356 668 359 668 407 665 c 0
 425 664 491 662 512 662 c 2
 838 662 l 1
 838 521 l 1
431 131 m 2
 431 527 l 2
 431 600 401 632 332 632 c 0
 211 632 142 521 142 325 c 0
 142 135 209 31 331 31 c 0
 402 31 431 60 431 131 c 2
EndSplineSet
EndChar
StartChar: oe
Encoding: 339 339
Width: 722
Flags: W
HStem: -10 67<530.5 550> -10 26<200.5 270> -10 67 -10 26 277 30<420 579 420 420> 431 29<214.5 263 487 523>
VStem: 30 90<186.5 256>
Fore
679 145 m 1
 690 139 l 1
 638 31 589 -10 511 -10 c 0
 449 -10 413 17 383 85 c 1
 345 17 304 -10 236 -10 c 0
 115 -10 30 85 30 218 c 0
 30 294 59 368 105 412 c 0
 139 443 182 460 232 460 c 0
 294 460 334 440 384 384 c 1
 425 440 460 460 514 460 c 0
 564 460 612 437 640 398 c 0
 663 367 671 338 674 277 c 1
 420 277 l 1
 424 190 433 153 459 107 c 0
 477 77 512 57 549 57 c 0
 597 57 632 81 679 145 c 1
229 431 m 0
 200 431 176 420 154 398 c 0
 134 377 120 323 120 271 c 0
 120 102 161 16 240 16 c 0
 308 16 343 79 343 199 c 0
 343 348 302 431 229 431 c 0
419 307 m 1
 579 307 l 1
 579 334 l 2
 579 390 546 431 500 431 c 0
 447 431 420 390 419 307 c 1
EndSplineSet
EndChar
StartChar: Racute
Encoding: 340 340
Width: 667
Flags: W
HStem: 0 19 625 37<235 293 293 317.5> 643 19
VStem: 102 102<120 306 343 553 553 588.5> 438 109<463 507.5>
Fore
659 19 m 1
 659 0 l 1
 498 0 l 1
 260 308 l 1
 204 306 l 1
 204 109 l 2
 204 37 217 24 294 19 c 1
 294 0 l 1
 17 0 l 1
 17 19 l 1
 92 25 102 37 102 120 c 2
 102 553 l 2
 102 624 92 635 17 643 c 1
 17 662 l 1
 293 662 l 2
 387 662 470 636 508 595 c 0
 534 566 547 529 547 486 c 0
 547 439 528 397 496 371 c 0
 463 344 433 332 366 319 c 1
 572 66 l 1
 601 32 621 22 659 19 c 1
204 589 m 2
 204 343 l 1
 300 345 335 351 381 377 c 0
 417 396 438 438 438 488 c 0
 438 582 380 625 255 625 c 0
 215 625 204 617 204 589 c 2
300 719 m 1
 260 719 l 1
 407 867 l 2
 425 885 434 890 449 890 c 0
 471 890 484 878 484 858 c 0
 484 842 475 829 454 816 c 2
 300 719 l 1
EndSplineSet
EndChar
StartChar: racute
Encoding: 341 341
Width: 333
Flags: W
HStem: 0 15 440 20<155 155 259 297> 658 20<274.5 293>
VStem: 76 84<84 90 90 315>
Fore
7 390 m 1
 7 406 l 1
 66 425 102 438 155 460 c 1
 160 458 l 1
 160 366 l 1
 209 437 238 460 280 460 c 0
 314 460 335 440 335 407 c 0
 335 379 320 362 296 362 c 0
 283 362 272 368 256 382 c 0
 245 392 236 397 230 397 c 0
 203 397 160 347 160 315 c 2
 160 90 l 2
 160 33 177 18 245 15 c 1
 245 0 l 1
 5 0 l 1
 5 15 l 1
 69 27 76 34 76 84 c 2
 76 334 l 2
 76 378 67 394 42 394 c 0
 30 394 21 393 7 390 c 1
133 507 m 1
 93 507 l 1
 240 655 l 2
 258 673 267 678 282 678 c 0
 304 678 317 666 317 646 c 0
 317 630 308 617 287 604 c 2
 133 507 l 1
EndSplineSet
EndChar
StartChar: Rcommaaccent
Encoding: 342 342
Width: 667
Flags: W
HStem: -142 104 0 19 625 37<235 293 293 317.5> 643 19
VStem: 102 102<120 306 343 553 553 588.5> 117 39 438 109<463 507.5>
Fore
659 19 m 1
 659 0 l 1
 498 0 l 1
 260 308 l 1
 204 306 l 1
 204 109 l 2
 204 37 217 24 294 19 c 1
 294 0 l 1
 17 0 l 1
 17 19 l 1
 92 25 102 37 102 120 c 2
 102 553 l 2
 102 624 92 635 17 643 c 1
 17 662 l 1
 293 662 l 2
 387 662 470 636 508 595 c 0
 534 566 547 529 547 486 c 0
 547 439 528 397 496 371 c 0
 463 344 433 332 366 319 c 1
 572 66 l 1
 601 32 621 22 659 19 c 1
204 589 m 2
 204 343 l 1
 300 345 335 351 381 377 c 0
 417 396 438 438 438 488 c 0
 438 582 380 625 255 625 c 0
 215 625 204 617 204 589 c 2
291 -281 m 1
 282 -262 l 1
 336 -225 364 -188 364 -156 c 0
 364 -148 358 -142 350 -142 c 0
 349 -142 349 -142 342 -144 c 0
 336 -145 329 -146 323 -146 c 0
 287 -146 264 -127 264 -95 c 0
 264 -61 288 -38 323 -38 c 0
 368 -38 403 -77 403 -127 c 0
 403 -187 358 -248 291 -281 c 1
EndSplineSet
EndChar
StartChar: rcommaaccent
Encoding: 343 343
Width: 333
Flags: W
HStem: -142 104 0 15 440 20<155 155 259 297>
VStem: 76 84<84 90 90 315> 105 39
Fore
7 390 m 1
 7 406 l 1
 66 425 102 438 155 460 c 1
 160 458 l 1
 160 366 l 1
 209 437 238 460 280 460 c 0
 314 460 335 440 335 407 c 0
 335 379 320 362 296 362 c 0
 283 362 272 368 256 382 c 0
 245 392 236 397 230 397 c 0
 203 397 160 347 160 315 c 2
 160 90 l 2
 160 33 177 18 245 15 c 1
 245 0 l 1
 5 0 l 1
 5 15 l 1
 69 27 76 34 76 84 c 2
 76 334 l 2
 76 378 67 394 42 394 c 0
 30 394 21 393 7 390 c 1
84 -281 m 1
 75 -262 l 1
 129 -225 157 -188 157 -156 c 0
 157 -148 151 -142 143 -142 c 0
 142 -142 142 -142 135 -144 c 0
 129 -145 122 -146 116 -146 c 0
 80 -146 57 -127 57 -95 c 0
 57 -61 81 -38 116 -38 c 0
 161 -38 196 -77 196 -127 c 0
 196 -187 151 -248 84 -281 c 1
EndSplineSet
EndChar
StartChar: Rcaron
Encoding: 344 344
Width: 667
Flags: W
HStem: 0 19 625 37<235 293 293 317.5> 643 19
VStem: 102 102<120 306 343 553 553 588.5> 438 109<463 507.5>
Fore
659 19 m 1
 659 0 l 1
 498 0 l 1
 260 308 l 1
 204 306 l 1
 204 109 l 2
 204 37 217 24 294 19 c 1
 294 0 l 1
 17 0 l 1
 17 19 l 1
 92 25 102 37 102 120 c 2
 102 553 l 2
 102 624 92 635 17 643 c 1
 17 662 l 1
 293 662 l 2
 387 662 470 636 508 595 c 0
 534 566 547 529 547 486 c 0
 547 439 528 397 496 371 c 0
 463 344 433 332 366 319 c 1
 572 66 l 1
 601 32 621 22 659 19 c 1
204 589 m 2
 204 343 l 1
 300 345 335 351 381 377 c 0
 417 396 438 438 438 488 c 0
 438 582 380 625 255 625 c 0
 215 625 204 617 204 589 c 2
489 886 m 1
 364 719 l 1
 302 719 l 1
 178 886 l 1
 212 886 l 1
 333 783 l 5
 455 886 l 1
 489 886 l 1
EndSplineSet
EndChar
StartChar: rcaron
Encoding: 345 345
Width: 333
Flags: W
HStem: 0 15 440 20<155 155 259 297> 654 20<11 45 45 45 288 322 322 322>
VStem: 76 84<84 90 90 315>
Fore
7 390 m 1
 7 406 l 1
 66 425 102 438 155 460 c 1
 160 458 l 1
 160 366 l 1
 209 437 238 460 280 460 c 0
 314 460 335 440 335 407 c 0
 335 379 320 362 296 362 c 0
 283 362 272 368 256 382 c 0
 245 392 236 397 230 397 c 0
 203 397 160 347 160 315 c 2
 160 90 l 2
 160 33 177 18 245 15 c 1
 245 0 l 1
 5 0 l 1
 5 15 l 1
 69 27 76 34 76 84 c 2
 76 334 l 2
 76 378 67 394 42 394 c 0
 30 394 21 393 7 390 c 1
322 674 m 1
 197 507 l 1
 135 507 l 1
 11 674 l 1
 45 674 l 1
 166 571 l 5
 288 674 l 1
 322 674 l 1
EndSplineSet
EndChar
StartChar: Sacute
Encoding: 346 346
Width: 556
Flags: W
HStem: -14 36<267 303.5> 0 20<114.5 127.5> 635 41<230 260> 642 20
VStem: 71 86<515 531> 390 101<116.5 147>
Fore
447 676 m 1
 469 463 l 1
 444 463 l 1
 428 522 414 548 383 580 c 0
 348 616 306 635 261 635 c 0
 199 635 157 597 157 542 c 0
 157 488 199 444 304 386 c 0
 436 315 491 250 491 168 c 0
 491 65 402 -14 287 -14 c 0
 247 -14 207 -6 169 9 c 0
 150 16 133 20 122 20 c 0
 107 20 95 6 94 -13 c 1
 72 -13 l 1
 42 199 l 1
 65 199 l 1
 115 77 178 22 267 22 c 0
 340 22 390 68 390 135 c 0
 390 159 385 180 376 193 c 0
 351 231 299 272 227 310 c 0
 115 369 71 425 71 505 c 0
 71 557 89 599 124 630 c 0
 157 659 201 676 244 676 c 0
 276 676 313 668 350 654 c 1
 367 646 384 642 394 642 c 0
 411 642 422 653 426 676 c 1
 447 676 l 1
245 719 m 1
 205 719 l 1
 352 867 l 2
 370 885 379 890 394 890 c 0
 416 890 429 878 429 858 c 0
 429 842 420 829 399 816 c 2
 245 719 l 1
EndSplineSet
EndChar
StartChar: sacute
Encoding: 347 347
Width: 389
Flags: W
HStem: -10 22<198 220.5> 0 20 430 20<300 311 311 311> 437 22<167 200> 658 20<322.5 341>
VStem: 51 62<355.5 372> 278 70<83 99.5>
Fore
315 314 m 1
 300 314 l 1
 277 403 247 437 190 437 c 0
 144 437 113 409 113 369 c 0
 113 342 128 317 156 301 c 2
 264 237 l 2
 324 201 348 168 348 118 c 0
 348 48 284 -10 207 -10 c 0
 189 -10 162 -6 134 0 c 0
 111 6 97 8 88 8 c 0
 76 8 72 6 65 -4 c 1
 52 -4 l 1
 52 152 l 1
 68 152 l 1
 81 95 90 72 111 47 c 0
 130 25 161 12 195 12 c 0
 246 12 278 40 278 84 c 0
 278 115 261 139 226 159 c 2
 168 192 l 2
 83 240 51 280 51 336 c 0
 51 408 108 459 187 459 c 0
 213 459 235 455 257 447 c 0
 268 442 278 440 284 440 c 0
 288 440 289 441 298 448 c 2
 300 450 l 1
 311 450 l 1
 315 314 l 1
181 507 m 1
 141 507 l 1
 288 655 l 2
 306 673 315 678 330 678 c 0
 352 678 365 666 365 646 c 0
 365 630 356 617 335 604 c 2
 181 507 l 1
EndSplineSet
EndChar
StartChar: Scircumflex
Encoding: 348 348
Width: 556
Flags: W
HStem: -13.0467 35.0467<263 282> 635 41<244 263>
VStem: 71.0022 85.9978<505 542> 389.997 101.003<135 168>
Fore
434 719 m 5
 400 719 l 5
 278 822 l 5
 157 719 l 5
 123 719 l 5
 247 886 l 5
 309 886 l 5
 434 719 l 5
447 676 m 1
 469 463 l 1
 444 463 l 1
 428 522 414 548 383 580 c 0
 348 616 306 635 261 635 c 0
 199 635 157 597 157 542 c 0
 157 488 199 444 304 386 c 0
 436 315 491 250 491 168 c 0
 491 65 402 -14 287 -14 c 0
 247 -14 207 -6 169 9 c 0
 150 16 133 20 122 20 c 0
 107 20 95 6 94 -13 c 1
 72 -13 l 1
 42 199 l 1
 65 199 l 1
 115 77 178 22 267 22 c 0
 340 22 390 68 390 135 c 0
 390 159 385 180 376 193 c 0
 351 231 299 272 227 310 c 0
 115 369 71 425 71 505 c 0
 71 557 89 599 124 630 c 0
 157 659 201 676 244 676 c 0
 276 676 313 668 350 654 c 1
 367 646 384 642 394 642 c 0
 411 642 422 653 426 676 c 1
 447 676 l 1
EndSplineSet
MinimumDistance: x14,-1 
EndChar
StartChar: scircumflex
Encoding: 349 349
Width: 389
Flags: W
HStem: -10 22<189 209> -4 156<53 65> 314 136<300 311> 437 22<183 206> 654 20G<163 225>
VStem: 51.0037 61.9963<336 369> 277.994 70.0059<84 118>
Fore
350 507 m 5
 316 507 l 5
 194 610 l 5
 73 507 l 5
 39 507 l 5
 163 674 l 5
 225 674 l 5
 350 507 l 5
315 314 m 1
 300 314 l 1
 277 403 247 437 190 437 c 0
 144 437 113 409 113 369 c 0
 113 342 128 317 156 301 c 2
 264 237 l 2
 324 201 348 168 348 118 c 0
 348 48 284 -10 207 -10 c 0
 189 -10 162 -6 134 0 c 0
 111 6 97 8 88 8 c 0
 76 8 72 6 65 -4 c 1
 52 -4 l 1
 52 152 l 1
 68 152 l 1
 81 95 90 72 111 47 c 0
 130 25 161 12 195 12 c 0
 246 12 278 40 278 84 c 0
 278 115 261 139 226 159 c 2
 168 192 l 2
 83 240 51 280 51 336 c 0
 51 408 108 459 187 459 c 0
 213 459 235 455 257 447 c 0
 268 442 278 440 284 440 c 0
 288 440 289 441 298 448 c 2
 300 450 l 1
 311 450 l 1
 315 314 l 1
EndSplineSet
MinimumDistance: x13,-1 
EndChar
StartChar: Scedilla
Encoding: 350 350
Width: 556
Flags: W
HStem: -215 35<232.5 260> -100 38 -14 36<280 280 280 289> 0 20<114.5 127.5> 635 41<230 260> 642 20
VStem: 71 86<515 531> 298 75<-149.5 -123> 390 101<117 147>
Fore
280 -14 m 1
 261 -65 l 1
 270 -63 277 -62 287 -62 c 0
 341 -62 373 -88 373 -131 c 0
 373 -183 325 -215 248 -215 c 0
 216 -215 193 -211 164 -199 c 1
 178 -168 l 1
 205 -177 222 -180 243 -180 c 0
 277 -180 298 -163 298 -136 c 0
 298 -110 283 -100 245 -100 c 0
 233 -100 225 -101 217 -104 c 1
 210 -99 l 1
 246 -11 l 1
 218 -7 195 -2 169 9 c 0
 150 16 133 20 122 20 c 0
 107 20 95 6 94 -13 c 1
 72 -13 l 1
 42 199 l 1
 65 199 l 1
 115 77 178 22 267 22 c 0
 340 22 390 68 390 135 c 0
 390 159 385 180 376 193 c 0
 351 231 299 272 227 310 c 0
 115 369 71 425 71 505 c 0
 71 557 89 599 124 630 c 0
 157 659 201 676 244 676 c 0
 276 676 313 668 350 654 c 1
 367 646 384 642 394 642 c 0
 411 642 422 653 426 676 c 1
 447 676 l 1
 469 463 l 1
 444 463 l 1
 428 522 414 548 383 580 c 0
 348 616 306 635 261 635 c 0
 199 635 157 597 157 542 c 0
 157 488 199 444 304 386 c 0
 436 315 491 250 491 168 c 0
 491 66 403 -14 289 -14 c 2
 280 -14 l 1
EndSplineSet
EndChar
StartChar: scedilla
Encoding: 351 351
Width: 389
Flags: W
HStem: -215 35<148.5 176> -100 38 -10 22<198 198 198 209> 0 20 430 20<300 311 311 311> 437 22<167 200>
VStem: 51 62<355.5 372> 214 75<-149.5 -123> 278 70<83.5 99.5>
Fore
198 -10 m 1
 177 -65 l 1
 187 -63 193 -62 203 -62 c 0
 257 -62 289 -88 289 -131 c 0
 289 -183 241 -215 164 -215 c 0
 132 -215 109 -211 80 -199 c 1
 94 -168 l 1
 122 -177 138 -180 159 -180 c 0
 193 -180 214 -163 214 -136 c 0
 214 -110 199 -100 161 -100 c 0
 150 -100 141 -101 133 -104 c 1
 126 -99 l 1
 165 -6 l 1
 153 -4 147 -3 134 0 c 0
 110 6 97 8 88 8 c 0
 76 8 72 6 65 -4 c 1
 52 -4 l 1
 52 152 l 1
 68 152 l 1
 81 95 90 72 111 47 c 0
 130 25 161 12 195 12 c 0
 246 12 278 40 278 84 c 0
 278 115 261 139 226 159 c 2
 168 192 l 2
 83 240 51 280 51 336 c 0
 51 408 108 459 187 459 c 0
 213 459 235 455 257 447 c 0
 268 442 278 440 284 440 c 0
 288 440 289 441 298 448 c 2
 300 450 l 1
 311 450 l 1
 315 314 l 1
 300 314 l 1
 277 403 247 437 190 437 c 0
 144 437 113 409 113 369 c 0
 113 342 128 317 156 301 c 2
 264 237 l 2
 324 201 348 168 348 118 c 0
 348 49 284 -10 209 -10 c 2
 198 -10 l 1
EndSplineSet
EndChar
StartChar: Scaron
Encoding: 352 352
Width: 556
Flags: W
HStem: -14 36<267 303.5> 0 20<114.5 127.5> 635 41<230 260> 642 20
VStem: 71 86<515 531> 390 101<116.5 147>
Fore
447 676 m 1
 469 463 l 1
 444 463 l 1
 428 522 414 548 383 580 c 0
 348 616 306 635 261 635 c 0
 199 635 157 597 157 542 c 0
 157 488 199 444 304 386 c 0
 436 315 491 250 491 168 c 0
 491 65 402 -14 287 -14 c 0
 247 -14 207 -6 169 9 c 0
 150 16 133 20 122 20 c 0
 107 20 95 6 94 -13 c 1
 72 -13 l 1
 42 199 l 1
 65 199 l 1
 115 77 178 22 267 22 c 0
 340 22 390 68 390 135 c 0
 390 159 385 180 376 193 c 0
 351 231 299 272 227 310 c 0
 115 369 71 425 71 505 c 0
 71 557 89 599 124 630 c 0
 157 659 201 676 244 676 c 0
 276 676 313 668 350 654 c 1
 367 646 384 642 394 642 c 0
 411 642 422 653 426 676 c 1
 447 676 l 1
434 886 m 1
 309 719 l 1
 247 719 l 1
 123 886 l 1
 157 886 l 1
 278 783 l 5
 400 886 l 1
 434 886 l 1
EndSplineSet
EndChar
StartChar: scaron
Encoding: 353 353
Width: 389
Flags: W
HStem: -10 22<198 220.5> 0 20 430 20<300 311 311 311> 437 22<167 200> 654 20<39 73 73 73 316 350 350 350>
VStem: 51 62<355.5 372> 278 70<83 99.5>
Fore
315 314 m 1
 300 314 l 1
 277 403 247 437 190 437 c 0
 144 437 113 409 113 369 c 0
 113 342 128 317 156 301 c 2
 264 237 l 2
 324 201 348 168 348 118 c 0
 348 48 284 -10 207 -10 c 0
 189 -10 162 -6 134 0 c 0
 111 6 97 8 88 8 c 0
 76 8 72 6 65 -4 c 1
 52 -4 l 1
 52 152 l 1
 68 152 l 1
 81 95 90 72 111 47 c 0
 130 25 161 12 195 12 c 0
 246 12 278 40 278 84 c 0
 278 115 261 139 226 159 c 2
 168 192 l 2
 83 240 51 280 51 336 c 0
 51 408 108 459 187 459 c 0
 213 459 235 455 257 447 c 0
 268 442 278 440 284 440 c 0
 288 440 289 441 298 448 c 2
 300 450 l 1
 311 450 l 1
 315 314 l 1
350 674 m 1
 225 507 l 1
 163 507 l 1
 39 674 l 1
 73 674 l 1
 194 571 l 5
 316 674 l 1
 350 674 l 1
EndSplineSet
EndChar
StartChar: uni0162
Encoding: 354 354
Width: 611
Flags: W
HStem: -215 35<273 289> 620 42<177 253 357 433>
VStem: 254 102<89 619> 334 75<-137 -129>
Fore
322 0 m 5
 297 -65 l 5
 307 -63 313 -62 323 -62 c 4
 377 -62 409 -88 409 -131 c 4
 409 -183 361 -215 284 -215 c 4
 252 -215 229 -211 200 -199 c 5
 214 -168 l 5
 242 -177 258 -180 279 -180 c 4
 313 -180 334 -163 334 -136 c 4
 334 -110 319 -100 281 -100 c 4
 270 -100 261 -101 253 -104 c 5
 246 -99 l 5
 287 0 l 1
 160 0 l 1
 160 19 l 1
 243 24 254 35 254 120 c 2
 254 620 l 1
 200 620 l 2
 88 620 65 601 41 492 c 1
 17 492 l 1
 23 662 l 1
 587 662 l 1
 593 492 l 1
 569 492 l 1
 546 602 524 620 410 620 c 2
 356 620 l 1
 356 109 l 2
 356 36 370 23 452 19 c 1
 452 0 l 1
 322 0 l 5
EndSplineSet
MinimumDistance: x3,-1 
EndChar
